SplineFontDB: 3.0
FontName: aliconnecticon
FullName: Aliconnect Icon
FamilyName: Aliconnect Icon
Weight: Book
Copyright: (c) 2018 Alicon Systems BV. All Rights Reserved.
Version: 1.29
ItalicAngle: 0
UnderlinePosition: -355
UnderlineWidth: 119
Ascent: 2048
Descent: 0
InvalidEm: 0
sfntRevision: 0x00014a3d
woffMajor: 1
woffMinor: 29
LayerCount: 2
Layer: 0 1 "Back" 1
Layer: 1 1 "Fore" 0
XUID: [1021 212 1677120463 18918]
StyleMap: 0x0040
FSType: 8
OS2Version: 3
OS2_WeightWidthSlopeOnly: 0
OS2_UseTypoMetrics: 0
CreationTime: 1138233600
ModificationTime: 1551007974
PfmFamily: 81
TTFWeight: 400
TTFWidth: 5
LineGap: 0
VLineGap: 0
Panose: 5 10 1 2 1 1 1 1 1 1
OS2TypoAscent: 2048
OS2TypoAOffset: 0
OS2TypoDescent: 0
OS2TypoDOffset: 0
OS2TypoLinegap: 0
OS2WinAscent: 2048
OS2WinAOffset: 0
OS2WinDescent: 0
OS2WinDOffset: 0
HheadAscent: 2048
HheadAOffset: 0
HheadDescent: 0
HheadDOffset: 0
OS2SubXSize: 1434
OS2SubYSize: 1331
OS2SubXOff: 0
OS2SubYOff: 283
OS2SupXSize: 1434
OS2SupYSize: 1331
OS2SupXOff: 0
OS2SupYOff: 977
OS2StrikeYSize: 102
OS2StrikeYPos: 530
OS2FamilyClass: 2053
OS2Vendor: 'MS  '
OS2CodePages: 00000001.00000000
OS2UnicodeRanges: 00000000.10000000.00000000.00000000
MarkAttachClasses: 1
DEI: 91125
TtTable: prep
PUSHB_1
 0
CALL
SVTCA[y-axis]
PUSHB_3
 1
 6
 2
CALL
SVTCA[x-axis]
PUSHB_3
 7
 6
 2
CALL
SVTCA[x-axis]
PUSHB_8
 7
 133
 109
 85
 61
 37
 0
 8
CALL
PUSHB_8
 8
 101
 83
 64
 46
 28
 0
 8
CALL
PUSHB_8
 9
 88
 72
 56
 40
 24
 0
 8
CALL
PUSHB_8
 10
 67
 55
 43
 31
 19
 0
 8
CALL
PUSHB_8
 11
 44
 36
 28
 20
 12
 0
 8
CALL
PUSHB_8
 12
 30
 24
 19
 14
 8
 0
 8
CALL
SVTCA[y-axis]
PUSHB_8
 1
 133
 109
 85
 61
 37
 0
 8
CALL
PUSHB_8
 2
 101
 83
 64
 46
 28
 0
 8
CALL
PUSHB_8
 3
 88
 72
 56
 40
 24
 0
 8
CALL
PUSHB_8
 4
 67
 55
 43
 31
 19
 0
 8
CALL
PUSHB_8
 5
 44
 36
 28
 20
 12
 0
 8
CALL
PUSHB_8
 6
 30
 24
 19
 14
 8
 0
 8
CALL
SVTCA[y-axis]
PUSHB_3
 13
 1
 7
CALL
PUSHB_1
 0
DUP
RCVT
RDTG
ROUND[Black]
RTG
WCVTP
EndTTInstrs
TtTable: fpgm
NPUSHB
 10
 9
 8
 7
 6
 5
 4
 3

StartChar: Ue00C
Encoding: 57356 57356 2
Width: 2048
Flags: W
LayerCount: 2
Fore
SplineSet
1792 1920 m 2,0,1
 1819 1920 1819 1920 1842 1910 c 128,-1,2
 1865 1900 1865 1900 1882.5 1882.5 c 128,-1,3
 1900 1865 1900 1865 1910 1842 c 128,-1,4
 1920 1819 1920 1819 1920 1792 c 2,5,-1
 1920 128 l 1,6,-1
 357 128 l 1,7,-1
 128 358 l 1,8,-1
 128 1792 l 2,9,10
 128 1819 128 1819 138 1842 c 128,-1,11
 148 1865 148 1865 165.5 1882.5 c 128,-1,12
 183 1900 183 1900 206 1910 c 128,-1,13
 229 1920 229 1920 256 1920 c 2,14,-1
 1792 1920 l 2,0,1
512 1152 m 1,15,-1
 1536 1152 l 1,16,-1
 1536 1792 l 1,17,-1
 512 1792 l 1,18,-1
 512 1152 l 1,15,-1
1280 640 m 1,19,-1
 640 640 l 1,20,-1
 640 256 l 1,21,-1
 768 256 l 1,22,-1
 768 512 l 1,23,-1
 896 512 l 1,24,-1
 896 256 l 1,25,-1
 1280 256 l 1,26,-1
 1280 640 l 1,19,-1
1792 1792 m 1,27,-1
 1664 1792 l 1,28,-1
 1664 1024 l 1,29,-1
 384 1024 l 1,30,-1
 384 1792 l 1,31,-1
 256 1792 l 1,32,-1
 256 411 l 1,33,-1
 410 256 l 1,34,-1
 512 256 l 1,35,-1
 512 768 l 1,36,-1
 1408 768 l 1,37,-1
 1408 256 l 1,38,-1
 1792 256 l 1,39,-1
 1792 1792 l 1,27,-1
EndSplineSet
EndChar

StartChar: uniE020
Encoding: 57376 57376 3
Width: 2048
Flags: W
LayerCount: 2
Fore
SplineSet
2048 1920 m 1,0,-1
 2048 896 l 1,1,-1
 282 896 l 1,2,-1
 877 301 l 1,3,-1
 787 211 l 1,4,-1
 37 960 l 1,5,-1
 787 1709 l 1,6,-1
 877 1619 l 1,7,-1
 282 1024 l 1,8,-1
 1920 1024 l 1,9,-1
 1920 1920 l 1,10,-1
 2048 1920 l 1,11,-1
 2048 1920 l 1,0,-1
EndSplineSet
EndChar

StartChar: uniE021
Encoding: 57377 57377 4
Width: 2048
Flags: W
LayerCount: 2
Fore
SplineSet
1115 1024 m 1,0,-1
 2029 109 l 1,1,-1
 1939 19 l 1,2,-1
 1024 933 l 1,3,-1
 109 19 l 1,4,-1
 19 109 l 1,5,-1
 933 1024 l 1,6,-1
 19 1939 l 1,7,-1
 109 2029 l 1,8,-1
 1024 1115 l 1,9,-1
 1939 2029 l 1,10,-1
 2029 1939 l 1,11,-1
 1115 1024 l 1,0,-1
EndSplineSet
EndChar

StartChar: uniE022
Encoding: 57378 57378 5
Width: 2048
Flags: W
LayerCount: 2
Fore
SplineSet
640 293 m 1,0,-1
 19 915 l 1,1,-1
 109 1005 l 1,2,-1
 640 475 l 1,3,-1
 1939 1773 l 1,4,-1
 2029 1683 l 1,5,-1
 640 293 l 1,6,-1
 640 293 l 1,0,-1
EndSplineSet
EndChar

StartChar: uniE023
Encoding: 57379 57379 6
Width: 2048
Flags: W
LayerCount: 2
Fore
SplineSet
1088 2044 m 0,0,1
 1184 2044 1184 2044 1273 2019 c 128,-1,2
 1362 1994 1362 1994 1440 1948 c 128,-1,3
 1518 1902 1518 1902 1582 1838 c 128,-1,4
 1646 1774 1646 1774 1692 1696 c 128,-1,5
 1738 1618 1738 1618 1763 1529 c 128,-1,6
 1788 1440 1788 1440 1788 1344 c 0,7,8
 1788 1207 1788 1207 1735.5 1079.5 c 128,-1,9
 1683 952 1683 952 1586 855 c 2,10,-1
 749 19 l 1,11,-1
 659 109 l 1,12,-1
 1495 946 l 2,13,14
 1574 1025 1574 1025 1617 1128.5 c 128,-1,15
 1660 1232 1660 1232 1660 1344 c 0,16,17
 1660 1461 1660 1461 1614.5 1565 c 128,-1,18
 1569 1669 1569 1669 1491 1747 c 128,-1,19
 1413 1825 1413 1825 1309 1870.5 c 128,-1,20
 1205 1916 1205 1916 1088 1916 c 0,21,22
 980 1916 980 1916 897.5 1883.5 c 128,-1,23
 815 1851 815 1851 745 1797.5 c 128,-1,24
 675 1744 675 1744 610.5 1676 c 128,-1,25
 546 1608 546 1608 475 1536 c 1,26,-1
 896 1536 l 1,27,-1
 896 1408 l 1,28,-1
 256 1408 l 1,29,-1
 256 2048 l 1,30,-1
 384 2048 l 1,31,-1
 384 1627 l 1,32,33
 439 1683 439 1683 489.5 1735.5 c 128,-1,34
 540 1788 540 1788 590.5 1834.5 c 128,-1,35
 641 1881 641 1881 693.5 1919.5 c 128,-1,36
 746 1958 746 1958 805.5 1985.5 c 128,-1,37
 865 2013 865 2013 934.5 2028.5 c 128,-1,38
 1004 2044 1004 2044 1088 2044 c 0,0,1
EndSplineSet
EndChar

StartChar: uniE024
Encoding: 57380 57380 7
Width: 2048
Flags: W
LayerCount: 2
Fore
SplineSet
1152 1536 m 1,0,-1
 1573 1536 l 1,1,2
 1502 1608 1502 1608 1437.5 1676 c 128,-1,3
 1373 1744 1373 1744 1303 1797.5 c 128,-1,4
 1233 1851 1233 1851 1150.5 1883.5 c 128,-1,5
 1068 1916 1068 1916 960 1916 c 0,6,7
 843 1916 843 1916 739 1870.5 c 128,-1,8
 635 1825 635 1825 557 1747 c 128,-1,9
 479 1669 479 1669 433.5 1565 c 128,-1,10
 388 1461 388 1461 388 1344 c 0,11,12
 388 1232 388 1232 431 1128.5 c 128,-1,13
 474 1025 474 1025 553 946 c 2,14,-1
 1389 109 l 1,15,-1
 1299 19 l 1,16,-1
 462 855 l 2,17,18
 365 952 365 952 312.5 1079.5 c 128,-1,19
 260 1207 260 1207 260 1344 c 0,20,21
 260 1440 260 1440 285 1529 c 128,-1,22
 310 1618 310 1618 356 1696 c 128,-1,23
 402 1774 402 1774 466 1838 c 128,-1,24
 530 1902 530 1902 608 1948 c 128,-1,25
 686 1994 686 1994 775 2019 c 128,-1,26
 864 2044 864 2044 960 2044 c 0,27,28
 1044 2044 1044 2044 1113.5 2028.5 c 128,-1,29
 1183 2013 1183 2013 1242.5 1985.5 c 128,-1,30
 1302 1958 1302 1958 1354.5 1919.5 c 128,-1,31
 1407 1881 1407 1881 1457.5 1834.5 c 128,-1,32
 1508 1788 1508 1788 1558 1735.5 c 128,-1,33
 1608 1683 1608 1683 1664 1627 c 1,34,-1
 1664 2048 l 1,35,-1
 1792 2048 l 1,36,-1
 1792 1408 l 1,37,-1
 1152 1408 l 1,38,-1
 1152 1536 l 1,0,-1
EndSplineSet
EndChar

StartChar: uniE025
Encoding: 57381 57381 8
Width: 2048
Flags: W
LayerCount: 2
Fore
SplineSet
1920 1152 m 1,0,-1
 1920 1024 l 1,1,-1
 1024 1024 l 1,2,-1
 1024 128 l 1,3,-1
 896 128 l 1,4,-1
 896 1024 l 1,5,-1
 0 1024 l 1,6,-1
 0 1152 l 1,7,-1
 896 1152 l 1,8,-1
 896 2048 l 1,9,-1
 1024 2048 l 1,10,-1
 1024 1152 l 1,11,-1
 1920 1152 l 1,12,-1
 1920 1152 l 1,0,-1
EndSplineSet
EndChar

StartChar: uniE027
Encoding: 57383 57383 9
Width: 2048
Flags: W
LayerCount: 2
Fore
SplineSet
1805 1843 m 1,0,-1
 1050 1088 l 1,1,-1
 1805 333 l 1,2,-1
 1715 243 l 1,3,-1
 960 998 l 1,4,-1
 205 243 l 1,5,-1
 115 333 l 1,6,-1
 870 1088 l 1,7,-1
 115 1843 l 1,8,-1
 205 1933 l 1,9,-1
 960 1178 l 1,10,-1
 1715 1933 l 1,11,-1
 1805 1843 l 1,12,-1
 1805 1843 l 1,0,-1
EndSplineSet
EndChar

StartChar: uniE028
Encoding: 57384 57384 10
Width: 2048
Flags: W
LayerCount: 2
Fore
SplineSet
1088 384 m 256,0,1
 1088 357 1088 357 1078 334 c 128,-1,2
 1068 311 1068 311 1050.5 293.5 c 128,-1,3
 1033 276 1033 276 1010 266 c 128,-1,4
 987 256 987 256 960 256 c 256,5,6
 933 256 933 256 910 266 c 128,-1,7
 887 276 887 276 869.5 293.5 c 128,-1,8
 852 311 852 311 842 334 c 128,-1,9
 832 357 832 357 832 384 c 256,10,11
 832 411 832 411 842 434 c 128,-1,12
 852 457 852 457 869.5 474.5 c 128,-1,13
 887 492 887 492 910 502 c 128,-1,14
 933 512 933 512 960 512 c 256,15,16
 987 512 987 512 1010 502 c 128,-1,17
 1033 492 1033 492 1050.5 474.5 c 128,-1,18
 1068 457 1068 457 1078 434 c 128,-1,19
 1088 411 1088 411 1088 384 c 256,0,1
1088 1792 m 256,20,21
 1088 1765 1088 1765 1078 1742 c 128,-1,22
 1068 1719 1068 1719 1050.5 1701.5 c 128,-1,23
 1033 1684 1033 1684 1010 1674 c 128,-1,24
 987 1664 987 1664 960 1664 c 256,25,26
 933 1664 933 1664 910 1674 c 128,-1,27
 887 1684 887 1684 869.5 1701.5 c 128,-1,28
 852 1719 852 1719 842 1742 c 128,-1,29
 832 1765 832 1765 832 1792 c 256,30,31
 832 1819 832 1819 842 1842 c 128,-1,32
 852 1865 852 1865 869.5 1882.5 c 128,-1,33
 887 1900 887 1900 910 1910 c 128,-1,34
 933 1920 933 1920 960 1920 c 256,35,36
 987 1920 987 1920 1010 1910 c 128,-1,37
 1033 1900 1033 1900 1050.5 1882.5 c 128,-1,38
 1068 1865 1068 1865 1078 1842 c 128,-1,39
 1088 1819 1088 1819 1088 1792 c 256,20,21
1920 1024 m 1,40,-1
 0 1024 l 1,41,-1
 0 1152 l 1,42,-1
 1920 1152 l 1,43,-1
 1920 1024 l 1,40,-1
EndSplineSet
EndChar

StartChar: uniE029
Encoding: 57385 57385 11
Width: 2048
Flags: W
LayerCount: 2
Fore
SplineSet
1475 2048 m 1,0,-1
 1596 2048 l 1,1,-1
 575 0 l 1,2,-1
 152 899 l 1,3,-1
 0 899 l 1,4,-1
 0 1026 l 1,5,-1
 231 1026 l 1,6,-1
 575 260 l 1,7,-1
 1475 2048 l 1,8,-1
 1475 2048 l 1,0,-1
EndSplineSet
EndChar

StartChar: uniE02A
Encoding: 57386 57386 12
Width: 2048
Flags: W
LayerCount: 2
Fore
SplineSet
768 1664 m 0,0,1
 768 1584 768 1584 738 1514.5 c 128,-1,2
 708 1445 708 1445 655.5 1392.5 c 128,-1,3
 603 1340 603 1340 533 1310 c 128,-1,4
 463 1280 463 1280 384 1280 c 0,5,6
 304 1280 304 1280 234.5 1310 c 128,-1,7
 165 1340 165 1340 112.5 1392.5 c 128,-1,8
 60 1445 60 1445 30 1514.5 c 128,-1,9
 0 1584 0 1584 0 1664 c 0,10,11
 0 1743 0 1743 30 1813 c 128,-1,12
 60 1883 60 1883 112.5 1935.5 c 128,-1,13
 165 1988 165 1988 234.5 2018 c 128,-1,14
 304 2048 304 2048 384 2048 c 0,15,16
 463 2048 463 2048 533 2018 c 128,-1,17
 603 1988 603 1988 655.5 1935.5 c 128,-1,18
 708 1883 708 1883 738 1813 c 128,-1,19
 768 1743 768 1743 768 1664 c 0,0,1
128 1664 m 256,20,21
 128 1611 128 1611 148 1564.5 c 128,-1,22
 168 1518 168 1518 203 1483 c 128,-1,23
 238 1448 238 1448 284.5 1428 c 128,-1,24
 331 1408 331 1408 384 1408 c 256,25,26
 437 1408 437 1408 483.5 1428 c 128,-1,27
 530 1448 530 1448 565 1483 c 128,-1,28
 600 1518 600 1518 620 1564.5 c 128,-1,29
 640 1611 640 1611 640 1664 c 256,30,31
 640 1717 640 1717 620 1763.5 c 128,-1,32
 600 1810 600 1810 565 1845 c 128,-1,33
 530 1880 530 1880 483.5 1900 c 128,-1,34
 437 1920 437 1920 384 1920 c 256,35,36
 331 1920 331 1920 284.5 1900 c 128,-1,37
 238 1880 238 1880 203 1845 c 128,-1,38
 168 1810 168 1810 148 1763.5 c 128,-1,39
 128 1717 128 1717 128 1664 c 256,20,21
1536 896 m 0,40,41
 1615 896 1615 896 1685 866 c 128,-1,42
 1755 836 1755 836 1807.5 783.5 c 128,-1,43
 1860 731 1860 731 1890 661 c 128,-1,44
 1920 591 1920 591 1920 512 c 0,45,46
 1920 432 1920 432 1890 362.5 c 128,-1,47
 1860 293 1860 293 1807.5 240.5 c 128,-1,48
 1755 188 1755 188 1685 158 c 128,-1,49
 1615 128 1615 128 1536 128 c 0,50,51
 1456 128 1456 128 1386.5 158 c 128,-1,52
 1317 188 1317 188 1264.5 240.5 c 128,-1,53
 1212 293 1212 293 1182 362.5 c 128,-1,54
 1152 432 1152 432 1152 512 c 0,55,56
 1152 591 1152 591 1182 661 c 128,-1,57
 1212 731 1212 731 1264.5 783.5 c 128,-1,58
 1317 836 1317 836 1386.5 866 c 128,-1,59
 1456 896 1456 896 1536 896 c 0,40,41
1536 256 m 256,60,61
 1589 256 1589 256 1635.5 276 c 128,-1,62
 1682 296 1682 296 1717 331 c 128,-1,63
 1752 366 1752 366 1772 412.5 c 128,-1,64
 1792 459 1792 459 1792 512 c 256,65,66
 1792 565 1792 565 1772 611.5 c 128,-1,67
 1752 658 1752 658 1717 693 c 128,-1,68
 1682 728 1682 728 1635.5 748 c 128,-1,69
 1589 768 1589 768 1536 768 c 256,70,71
 1483 768 1483 768 1436.5 748 c 128,-1,72
 1390 728 1390 728 1355 693 c 128,-1,73
 1320 658 1320 658 1300 611.5 c 128,-1,74
 1280 565 1280 565 1280 512 c 256,75,76
 1280 459 1280 459 1300 412.5 c 128,-1,77
 1320 366 1320 366 1355 331 c 128,-1,78
 1390 296 1390 296 1436.5 276 c 128,-1,79
 1483 256 1483 256 1536 256 c 256,60,61
1536 2048 m 1,80,-1
 512 128 l 1,81,-1
 384 128 l 1,82,-1
 1408 2048 l 1,83,-1
 1536 2048 l 1,80,-1
EndSplineSet
EndChar

StartChar: uniE02B
Encoding: 57387 57387 13
Width: 2048
Flags: W
LayerCount: 2
Fore
SplineSet
1024 1280 m 1,0,-1
 1664 1280 l 1,1,-1
 1664 1152 l 1,2,-1
 1024 1152 l 1,3,-1
 1024 512 l 1,4,-1
 896 512 l 1,5,-1
 896 1152 l 1,6,-1
 256 1152 l 1,7,-1
 256 1280 l 1,8,-1
 896 1280 l 1,9,-1
 896 1920 l 1,10,-1
 1024 1920 l 1,11,-1
 1024 1280 l 1,0,-1
256 256 m 1,12,-1
 256 384 l 1,13,-1
 1664 384 l 1,14,-1
 1664 256 l 1,15,-1
 256 256 l 1,12,-1
EndSplineSet
EndChar

StartChar: uniE02C
Encoding: 57388 57388 14
Width: 2048
Flags: W
LayerCount: 2
Fore
SplineSet
0 640 m 1,0,-1
 0 768 l 1,1,-1
 1920 768 l 1,2,-1
 1920 640 l 1,3,-1
 0 640 l 1,0,-1
0 1536 m 1,4,-1
 1920 1536 l 1,5,-1
 1920 1408 l 1,6,-1
 0 1408 l 1,7,-1
 0 1536 l 1,4,-1
EndSplineSet
EndChar

StartChar: uniE121
Encoding: 57633 57633 15
Width: 2048
Flags: W
LayerCount: 2
Fore
SplineSet
256 1920 m 1,0,-1
 256 128 l 1,1,-1
 1536 128 l 1,2,-1
 1536 0 l 1,3,-1
 128 0 l 1,4,-1
 128 2048 l 1,5,-1
 1115 2048 l 1,6,-1
 1792 1371 l 1,7,-1
 1792 1024 l 1,8,-1
 1664 1024 l 1,9,-1
 1664 1280 l 1,10,-1
 1024 1280 l 1,11,-1
 1024 1920 l 1,12,-1
 256 1920 l 1,0,-1
1152 1829 m 1,13,-1
 1152 1408 l 1,14,-1
 1573 1408 l 1,15,-1
 1152 1829 l 1,13,-1
2045 605 m 1,16,-1
 1955 515 l 1,17,-1
 1792 677 l 1,18,-1
 1792 0 l 1,19,-1
 1664 0 l 1,20,-1
 1664 677 l 1,21,-1
 1501 515 l 1,22,-1
 1411 605 l 1,23,-1
 1728 922 l 1,24,-1
 2045 605 l 1,16,-1
EndSplineSet
EndChar

StartChar: uniE140
Encoding: 57664 57664 16
Width: 2048
Flags: W
LayerCount: 2
Fore
SplineSet
1395 1485 m 1,0,-1
 1485 1395 l 1,1,-1
 800 709 l 1,2,-1
 435 1075 l 1,3,-1
 525 1165 l 1,4,-1
 800 890 l 1,5,-1
 1395 1485 l 1,0,-1
960 2048 m 256,6,7
 1093 2048 1093 2048 1215.5 2014 c 128,-1,8
 1338 1980 1338 1980 1445 1917.5 c 128,-1,9
 1552 1855 1552 1855 1639.5 1767.5 c 128,-1,10
 1727 1680 1727 1680 1789.5 1573 c 128,-1,11
 1852 1466 1852 1466 1886 1343.5 c 128,-1,12
 1920 1221 1920 1221 1920 1088 c 256,13,14
 1920 955 1920 955 1886 832.5 c 128,-1,15
 1852 710 1852 710 1789.5 603 c 128,-1,16
 1727 496 1727 496 1639.5 408.5 c 128,-1,17
 1552 321 1552 321 1445 258.5 c 128,-1,18
 1338 196 1338 196 1215.5 162 c 128,-1,19
 1093 128 1093 128 960 128 c 256,20,21
 827 128 827 128 704.5 162 c 128,-1,22
 582 196 582 196 475 258.5 c 128,-1,23
 368 321 368 321 280.5 408.5 c 128,-1,24
 193 496 193 496 130.5 603 c 128,-1,25
 68 710 68 710 34 832.5 c 128,-1,26
 0 955 0 955 0 1088 c 256,27,28
 0 1221 0 1221 34 1343.5 c 128,-1,29
 68 1466 68 1466 130.5 1573 c 128,-1,30
 193 1680 193 1680 280.5 1767.5 c 128,-1,31
 368 1855 368 1855 475 1917.5 c 128,-1,32
 582 1980 582 1980 704.5 2014 c 128,-1,33
 827 2048 827 2048 960 2048 c 256,6,7
960 256 m 0,34,35
 1074 256 1074 256 1180.5 286 c 128,-1,36
 1287 316 1287 316 1379.5 370 c 128,-1,37
 1472 424 1472 424 1548 500 c 128,-1,38
 1624 576 1624 576 1678 668.5 c 128,-1,39
 1732 761 1732 761 1762 867 c 128,-1,40
 1792 973 1792 973 1792 1088 c 0,41,42
 1792 1202 1792 1202 1762 1308.5 c 128,-1,43
 1732 1415 1732 1415 1678 1507.5 c 128,-1,44
 1624 1600 1624 1600 1548 1676 c 128,-1,45
 1472 1752 1472 1752 1379.5 1806 c 128,-1,46
 1287 1860 1287 1860 1180.5 1890 c 128,-1,47
 1074 1920 1074 1920 960 1920 c 0,48,49
 845 1920 845 1920 739 1890 c 128,-1,50
 633 1860 633 1860 540.5 1806 c 128,-1,51
 448 1752 448 1752 372 1676 c 128,-1,52
 296 1600 296 1600 242 1507.5 c 128,-1,53
 188 1415 188 1415 158 1308.5 c 128,-1,54
 128 1202 128 1202 128 1088 c 256,55,56
 128 974 128 974 158 867.5 c 128,-1,57
 188 761 188 761 242 668.5 c 128,-1,58
 296 576 296 576 372 500 c 128,-1,59
 448 424 448 424 540.5 370 c 128,-1,60
 633 316 633 316 739 286 c 128,-1,61
 845 256 845 256 960 256 c 0,34,35
EndSplineSet
EndChar

StartChar: uniE153
Encoding: 57683 57683 17
Width: 2048
Flags: W
LayerCount: 2
Fore
SplineSet
1187 867 m 1,0,-1
 1024 1030 l 1,1,-1
 1024 384 l 1,2,-1
 896 384 l 1,3,-1
 896 1030 l 1,4,-1
 733 867 l 1,5,-1
 643 957 l 1,6,-1
 960 1274 l 1,7,-1
 1277 957 l 1,8,-1
 1187 867 l 1,0,-1
127 1665 m 1,9,-1
 1792 1665 l 1,10,-1
 1792 383 l 1,11,-1
 1151 383 l 1,12,-1
 1151 512 l 1,13,-1
 1663 512 l 1,14,-1
 1663 1536 l 1,15,-1
 256 1536 l 1,16,-1
 256 512 l 1,17,-1
 768 512 l 1,18,-1
 768 383 l 1,19,-1
 127 383 l 1,20,-1
 127 1665 l 1,9,-1
EndSplineSet
EndChar

StartChar: uniE177
Encoding: 57719 57719 18
Width: 2048
Flags: W
LayerCount: 2
Fore
SplineSet
2000 651 m 2,0,1
 2011 640 2011 640 2020 622.5 c 128,-1,2
 2029 605 2029 605 2035 585.5 c 128,-1,3
 2041 566 2041 566 2044.5 546.5 c 128,-1,4
 2048 527 2048 527 2048 512 c 0,5,6
 2048 487 2048 487 2037.5 464 c 128,-1,7
 2027 441 2027 441 2009 423 c 128,-1,8
 1991 405 1991 405 1968 394.5 c 128,-1,9
 1945 384 1945 384 1920 384 c 2,10,-1
 256 384 l 2,11,12
 231 384 231 384 208 394.5 c 128,-1,13
 185 405 185 405 167 423 c 128,-1,14
 149 441 149 441 138.5 464 c 128,-1,15
 128 487 128 487 128 512 c 0,16,17
 128 527 128 527 131.5 546.5 c 128,-1,18
 135 566 135 566 141 585.5 c 128,-1,19
 147 605 147 605 156 622.5 c 128,-1,20
 165 640 165 640 176 651 c 2,21,-1
 384 859 l 1,22,-1
 384 1664 l 1,23,-1
 1792 1664 l 1,24,-1
 1792 859 l 1,25,-1
 2000 651 l 2,0,1
512 896 m 1,26,-1
 1664 896 l 1,27,-1
 1664 1536 l 1,28,-1
 512 1536 l 1,29,-1
 512 896 l 1,26,-1
1920 515 m 2,30,31
 1920 519 1920 519 1918.5 526.5 c 128,-1,32
 1917 534 1917 534 1914.5 541.5 c 128,-1,33
 1912 549 1912 549 1909.5 556 c 128,-1,34
 1907 563 1907 563 1904 566 c 2,35,-1
 1701 768 l 1,36,-1
 475 768 l 1,37,-1
 272 566 l 2,38,39
 269 563 269 563 266.5 556 c 128,-1,40
 264 549 264 549 261.5 541.5 c 128,-1,41
 259 534 259 534 257.5 526.5 c 128,-1,42
 256 519 256 519 256 515 c 2,43,-1
 259 512 l 1,44,-1
 1917 512 l 1,45,-1
 1920 515 l 2,30,31
EndSplineSet
EndChar

StartChar: uniE18E
Encoding: 57742 57742 19
Width: 2048
Flags: W
LayerCount: 2
Fore
SplineSet
384 1280 m 1,0,-1
 256 1280 l 1,1,-1
 256 1408 l 1,2,-1
 384 1408 l 1,3,-1
 384 1280 l 1,0,-1
256 1152 m 1,4,-1
 512 1152 l 1,5,-1
 512 1024 l 1,6,-1
 256 1024 l 1,7,-1
 256 1152 l 1,4,-1
1408 1152 m 1,8,-1
 1664 1152 l 1,9,-1
 1664 1024 l 1,10,-1
 1408 1024 l 1,11,-1
 1408 1152 l 1,8,-1
1408 896 m 1,12,-1
 1664 896 l 1,13,-1
 1664 768 l 1,14,-1
 1408 768 l 1,15,-1
 1408 896 l 1,12,-1
256 896 m 1,16,-1
 512 896 l 1,17,-1
 512 768 l 1,18,-1
 256 768 l 1,19,-1
 256 896 l 1,16,-1
640 896 m 1,20,-1
 1280 896 l 1,21,-1
 1280 768 l 1,22,-1
 640 768 l 1,23,-1
 640 896 l 1,20,-1
640 1280 m 1,24,-1
 512 1280 l 1,25,-1
 512 1408 l 1,26,-1
 640 1408 l 1,27,-1
 640 1280 l 1,24,-1
640 1152 m 1,28,-1
 768 1152 l 1,29,-1
 768 1024 l 1,30,-1
 640 1024 l 1,31,-1
 640 1152 l 1,28,-1
896 1152 m 1,32,-1
 1024 1152 l 1,33,-1
 1024 1024 l 1,34,-1
 896 1024 l 1,35,-1
 896 1152 l 1,32,-1
1152 1152 m 1,36,-1
 1280 1152 l 1,37,-1
 1280 1024 l 1,38,-1
 1152 1024 l 1,39,-1
 1152 1152 l 1,36,-1
896 1280 m 1,40,-1
 768 1280 l 1,41,-1
 768 1408 l 1,42,-1
 896 1408 l 1,43,-1
 896 1280 l 1,40,-1
1152 1280 m 1,44,-1
 1024 1280 l 1,45,-1
 1024 1408 l 1,46,-1
 1152 1408 l 1,47,-1
 1152 1280 l 1,44,-1
1408 1280 m 1,48,-1
 1280 1280 l 1,49,-1
 1280 1408 l 1,50,-1
 1408 1408 l 1,51,-1
 1408 1280 l 1,48,-1
1832 2048 m 2,52,53
 1877 2048 1877 2048 1916 2031 c 128,-1,54
 1955 2014 1955 2014 1984.5 1984.5 c 128,-1,55
 2014 1955 2014 1955 2031 1916 c 128,-1,56
 2048 1877 2048 1877 2048 1832 c 2,57,-1
 2048 1472 l 2,58,59
 2048 1396 2048 1396 2014.5 1329 c 128,-1,60
 1981 1262 1981 1262 1920 1216 c 1,61,-1
 1920 640 l 2,62,63
 1920 613 1920 613 1910 590 c 128,-1,64
 1900 567 1900 567 1882.5 549.5 c 128,-1,65
 1865 532 1865 532 1842 522 c 128,-1,66
 1819 512 1819 512 1792 512 c 2,67,-1
 128 512 l 2,68,69
 101 512 101 512 78 522 c 128,-1,70
 55 532 55 532 37.5 549.5 c 128,-1,71
 20 567 20 567 10 590 c 128,-1,72
 0 613 0 613 0 640 c 2,73,-1
 0 1536 l 2,74,75
 0 1563 0 1563 10 1586 c 128,-1,76
 20 1609 20 1609 37.5 1626.5 c 128,-1,77
 55 1644 55 1644 78 1654 c 128,-1,78
 101 1664 101 1664 128 1664 c 2,79,-1
 1408 1664 l 1,80,-1
 1408 1832 l 2,81,82
 1408 1877 1408 1877 1425 1916 c 128,-1,83
 1442 1955 1442 1955 1471.5 1984.5 c 128,-1,84
 1501 2014 1501 2014 1540 2031 c 128,-1,85
 1579 2048 1579 2048 1624 2048 c 2,86,-1
 1832 2048 l 2,52,53
1792 1158 m 1,87,88
 1760 1152 1760 1152 1728 1152 c 0,89,90
 1662 1152 1662 1152 1603.5 1177 c 128,-1,91
 1545 1202 1545 1202 1501.5 1245.5 c 128,-1,92
 1458 1289 1458 1289 1433 1347.5 c 128,-1,93
 1408 1406 1408 1406 1408 1472 c 2,94,-1
 1408 1536 l 1,95,-1
 128 1536 l 1,96,-1
 128 640 l 1,97,-1
 1792 640 l 1,98,-1
 1792 1158 l 1,87,88
1920 1832 m 2,99,100
 1920 1869 1920 1869 1894.5 1894.5 c 128,-1,101
 1869 1920 1869 1920 1832 1920 c 2,102,-1
 1792 1920 l 1,103,-1
 1792 1664 l 1,104,-1
 1664 1664 l 1,105,-1
 1664 1920 l 1,106,-1
 1624 1920 l 2,107,108
 1587 1920 1587 1920 1561.5 1894.5 c 128,-1,109
 1536 1869 1536 1869 1536 1832 c 2,110,-1
 1536 1472 l 2,111,112
 1536 1432 1536 1432 1551 1397 c 128,-1,113
 1566 1362 1566 1362 1592 1336 c 128,-1,114
 1618 1310 1618 1310 1653 1295 c 128,-1,115
 1688 1280 1688 1280 1728 1280 c 256,116,117
 1768 1280 1768 1280 1803 1295 c 128,-1,118
 1838 1310 1838 1310 1864 1336 c 128,-1,119
 1890 1362 1890 1362 1905 1397 c 128,-1,120
 1920 1432 1920 1432 1920 1472 c 2,121,-1
 1920 1832 l 2,99,100
EndSplineSet
EndChar

StartChar: uniE18F
Encoding: 57743 57743 20
Width: 2048
Flags: W
LayerCount: 2
Fore
SplineSet
1783 1664 m 2,0,1
 1813 1664 1813 1664 1838 1652 c 128,-1,2
 1863 1640 1863 1640 1881 1620.5 c 128,-1,3
 1899 1601 1899 1601 1909.5 1574.5 c 128,-1,4
 1920 1548 1920 1548 1920 1520 c 2,5,-1
 1920 656 l 2,6,7
 1920 627 1920 627 1909.5 601 c 128,-1,8
 1899 575 1899 575 1881 555.5 c 128,-1,9
 1863 536 1863 536 1838 524 c 128,-1,10
 1813 512 1813 512 1783 512 c 2,11,-1
 137 512 l 2,12,13
 107 512 107 512 82 524 c 128,-1,14
 57 536 57 536 39 555.5 c 128,-1,15
 21 575 21 575 10.5 601 c 128,-1,16
 0 627 0 627 0 656 c 2,17,-1
 0 1520 l 2,18,19
 0 1548 0 1548 10.5 1574.5 c 128,-1,20
 21 1601 21 1601 39 1620.5 c 128,-1,21
 57 1640 57 1640 82 1652 c 128,-1,22
 107 1664 107 1664 137 1664 c 2,23,-1
 1783 1664 l 2,0,1
1792 1520 m 2,24,25
 1792 1531 1792 1531 1783 1536 c 1,26,-1
 137 1536 l 1,27,28
 128 1531 128 1531 128 1520 c 2,29,-1
 128 656 l 2,30,31
 128 645 128 645 137 640 c 1,32,-1
 1783 640 l 1,33,34
 1792 645 1792 645 1792 656 c 2,35,-1
 1792 1520 l 2,24,25
256 1152 m 1,36,-1
 512 1152 l 1,37,-1
 512 1024 l 1,38,-1
 256 1024 l 1,39,-1
 256 1152 l 1,36,-1
256 896 m 1,40,-1
 512 896 l 1,41,-1
 512 768 l 1,42,-1
 256 768 l 1,43,-1
 256 896 l 1,40,-1
640 896 m 1,44,-1
 1024 896 l 1,45,-1
 1024 768 l 1,46,-1
 640 768 l 1,47,-1
 640 896 l 1,44,-1
640 1152 m 1,48,-1
 768 1152 l 1,49,-1
 768 1024 l 1,50,-1
 640 1024 l 1,51,-1
 640 1152 l 1,48,-1
640 1280 m 1,52,-1
 512 1280 l 1,53,-1
 512 1408 l 1,54,-1
 640 1408 l 1,55,-1
 640 1280 l 1,52,-1
384 1280 m 1,56,-1
 256 1280 l 1,57,-1
 256 1408 l 1,58,-1
 384 1408 l 1,59,-1
 384 1280 l 1,56,-1
EndSplineSet
EndChar

StartChar: uniE191
Encoding: 57745 57745 21
Width: 2048
Flags: W
LayerCount: 2
Fore
SplineSet
1783 1664 m 2,0,1
 1813 1664 1813 1664 1838 1652.5 c 128,-1,2
 1863 1641 1863 1641 1881 1621 c 128,-1,3
 1899 1601 1899 1601 1909.5 1575 c 128,-1,4
 1920 1549 1920 1549 1920 1520 c 2,5,-1
 1920 656 l 2,6,7
 1920 627 1920 627 1909.5 601 c 128,-1,8
 1899 575 1899 575 1881 555 c 128,-1,9
 1863 535 1863 535 1838 523.5 c 128,-1,10
 1813 512 1813 512 1783 512 c 2,11,-1
 137 512 l 2,12,13
 107 512 107 512 82 523.5 c 128,-1,14
 57 535 57 535 39 555 c 128,-1,15
 21 575 21 575 10.5 601 c 128,-1,16
 0 627 0 627 0 656 c 2,17,-1
 0 1520 l 2,18,19
 0 1549 0 1549 10.5 1575 c 128,-1,20
 21 1601 21 1601 39 1621 c 128,-1,21
 57 1641 57 1641 82 1652.5 c 128,-1,22
 107 1664 107 1664 137 1664 c 2,23,-1
 1783 1664 l 2,0,1
1792 1520 m 2,24,25
 1792 1523 1792 1523 1790 1529.5 c 128,-1,26
 1788 1536 1788 1536 1783 1536 c 2,27,-1
 137 1536 l 2,28,29
 132 1536 132 1536 130 1529.5 c 128,-1,30
 128 1523 128 1523 128 1520 c 2,31,-1
 128 656 l 2,32,33
 128 653 128 653 130 646.5 c 128,-1,34
 132 640 132 640 137 640 c 2,35,-1
 1783 640 l 2,36,37
 1788 640 1788 640 1790 646.5 c 128,-1,38
 1792 653 1792 653 1792 656 c 2,39,-1
 1792 1520 l 2,24,25
256 1408 m 1,40,-1
 384 1408 l 1,41,-1
 384 1280 l 1,42,-1
 256 1280 l 1,43,-1
 256 1408 l 1,40,-1
1536 896 m 1,44,-1
 1664 896 l 1,45,-1
 1664 768 l 1,46,-1
 1536 768 l 1,47,-1
 1536 896 l 1,44,-1
256 896 m 1,48,-1
 384 896 l 1,49,-1
 384 768 l 1,50,-1
 256 768 l 1,51,-1
 256 896 l 1,48,-1
512 896 m 1,52,-1
 768 896 l 1,53,-1
 768 768 l 1,54,-1
 512 768 l 1,55,-1
 512 896 l 1,52,-1
1152 896 m 1,56,-1
 1408 896 l 1,57,-1
 1408 768 l 1,58,-1
 1152 768 l 1,59,-1
 1152 896 l 1,56,-1
640 1280 m 1,60,-1
 512 1280 l 1,61,-1
 512 1408 l 1,62,-1
 640 1408 l 1,63,-1
 640 1280 l 1,60,-1
256 1152 m 1,64,-1
 384 1152 l 1,65,-1
 384 1024 l 1,66,-1
 256 1024 l 1,67,-1
 256 1152 l 1,64,-1
640 1024 m 1,68,-1
 512 1024 l 1,69,-1
 512 1152 l 1,70,-1
 640 1152 l 1,71,-1
 640 1024 l 1,68,-1
1280 1152 m 1,72,-1
 1408 1152 l 1,73,-1
 1408 1024 l 1,74,-1
 1280 1024 l 1,75,-1
 1280 1152 l 1,72,-1
1536 1152 m 1,76,-1
 1664 1152 l 1,77,-1
 1664 1024 l 1,78,-1
 1536 1024 l 1,79,-1
 1536 1152 l 1,76,-1
1280 1408 m 1,80,-1
 1408 1408 l 1,81,-1
 1408 1280 l 1,82,-1
 1280 1280 l 1,83,-1
 1280 1408 l 1,80,-1
1536 1408 m 1,84,-1
 1664 1408 l 1,85,-1
 1664 1280 l 1,86,-1
 1536 1280 l 1,87,-1
 1536 1408 l 1,84,-1
EndSplineSet
EndChar

StartChar: uniE1B0
Encoding: 57776 57776 22
Width: 2048
Flags: W
LayerCount: 2
Fore
SplineSet
384 1152 m 1,0,-1
 1664 1152 l 1,1,-1
 1664 0 l 1,2,-1
 384 0 l 1,3,-1
 384 1152 l 1,0,-1
512 128 m 1,4,-1
 1536 128 l 1,5,-1
 1536 1024 l 1,6,-1
 512 1024 l 1,7,-1
 512 128 l 1,4,-1
896 384 m 1,8,-1
 1152 384 l 1,9,-1
 1152 256 l 1,10,-1
 896 256 l 1,11,-1
 896 384 l 1,8,-1
1658 1658 m 1,12,13
 1530 1785 1530 1785 1367 1852.5 c 128,-1,14
 1204 1920 1204 1920 1024 1920 c 256,15,16
 844 1920 844 1920 681 1852.5 c 128,-1,17
 518 1785 518 1785 390 1658 c 1,18,-1
 300 1748 l 1,19,20
 372 1820 372 1820 456 1876 c 128,-1,21
 540 1932 540 1932 632.5 1970.5 c 128,-1,22
 725 2009 725 2009 823.5 2028.5 c 128,-1,23
 922 2048 922 2048 1024 2048 c 256,24,25
 1126 2048 1126 2048 1224.5 2028.5 c 128,-1,26
 1323 2009 1323 2009 1415.5 1970.5 c 128,-1,27
 1508 1932 1508 1932 1592 1876 c 128,-1,28
 1676 1820 1676 1820 1748 1748 c 1,29,-1
 1658 1658 l 1,12,13
1477 1477 m 1,30,31
 1386 1568 1386 1568 1269 1616 c 128,-1,32
 1152 1664 1152 1664 1024 1664 c 256,33,34
 896 1664 896 1664 779 1616 c 128,-1,35
 662 1568 662 1568 571 1477 c 1,36,-1
 481 1567 l 1,37,38
 590 1676 590 1676 729.5 1734 c 128,-1,39
 869 1792 869 1792 1024 1792 c 256,40,41
 1179 1792 1179 1792 1318.5 1734 c 128,-1,42
 1458 1676 1458 1676 1567 1567 c 1,43,-1
 1477 1477 l 1,30,31
662 1386 m 1,44,45
 735 1459 735 1459 828 1497.5 c 128,-1,46
 921 1536 921 1536 1024 1536 c 256,47,48
 1127 1536 1127 1536 1220 1497.5 c 128,-1,49
 1313 1459 1313 1459 1386 1386 c 1,50,-1
 1296 1296 l 1,51,52
 1242 1350 1242 1350 1171.5 1379 c 128,-1,53
 1101 1408 1101 1408 1024 1408 c 256,54,55
 947 1408 947 1408 876.5 1379 c 128,-1,56
 806 1350 806 1350 752 1296 c 1,57,-1
 662 1386 l 1,44,45
EndSplineSet
EndChar

StartChar: uniE1B1
Encoding: 57777 57777 23
Width: 2048
Flags: W
LayerCount: 2
Fore
SplineSet
1920 1152 m 0,0,1
 1920 1004 1920 1004 1873.5 867 c 128,-1,2
 1827 730 1827 730 1742.5 616.5 c 128,-1,3
 1658 503 1658 503 1540 419 c 128,-1,4
 1422 335 1422 335 1280 293 c 1,5,-1
 1280 128 l 1,6,-1
 1664 128 l 1,7,-1
 1664 0 l 1,8,-1
 384 0 l 1,9,-1
 384 128 l 1,10,-1
 768 128 l 1,11,-1
 768 293 l 1,12,13
 625 335 625 335 507.5 419 c 128,-1,14
 390 503 390 503 305.5 616.5 c 128,-1,15
 221 730 221 730 174.5 867 c 128,-1,16
 128 1004 128 1004 128 1152 c 0,17,18
 128 1276 128 1276 160 1390.5 c 128,-1,19
 192 1505 192 1505 250.5 1604.5 c 128,-1,20
 309 1704 309 1704 390.5 1785.5 c 128,-1,21
 472 1867 472 1867 571.5 1925.5 c 128,-1,22
 671 1984 671 1984 785.5 2016 c 128,-1,23
 900 2048 900 2048 1024 2048 c 256,24,25
 1148 2048 1148 2048 1262.5 2016 c 128,-1,26
 1377 1984 1377 1984 1476.5 1925.5 c 128,-1,27
 1576 1867 1576 1867 1657.5 1785.5 c 128,-1,28
 1739 1704 1739 1704 1797.5 1604.5 c 128,-1,29
 1856 1505 1856 1505 1888 1390.5 c 128,-1,30
 1920 1276 1920 1276 1920 1152 c 0,0,1
1024 1920 m 256,31,32
 918 1920 918 1920 820 1892.5 c 128,-1,33
 722 1865 722 1865 636.5 1815 c 128,-1,34
 551 1765 551 1765 481 1695 c 128,-1,35
 411 1625 411 1625 361 1539.5 c 128,-1,36
 311 1454 311 1454 283.5 1356 c 128,-1,37
 256 1258 256 1258 256 1152 c 1,38,-1
 576 1152 l 1,39,40
 576 1245 576 1245 611 1326.5 c 128,-1,41
 646 1408 646 1408 707 1469 c 128,-1,42
 768 1530 768 1530 849.5 1565 c 128,-1,43
 931 1600 931 1600 1024 1600 c 256,44,45
 1117 1600 1117 1600 1198.5 1565 c 128,-1,46
 1280 1530 1280 1530 1341 1469 c 128,-1,47
 1402 1408 1402 1408 1437 1326.5 c 128,-1,48
 1472 1245 1472 1245 1472 1152 c 1,49,-1
 1792 1152 l 1,50,51
 1792 1258 1792 1258 1764.5 1356 c 128,-1,52
 1737 1454 1737 1454 1687 1539.5 c 128,-1,53
 1637 1625 1637 1625 1567 1695 c 128,-1,54
 1497 1765 1497 1765 1411.5 1815 c 128,-1,55
 1326 1865 1326 1865 1228 1892.5 c 128,-1,56
 1130 1920 1130 1920 1024 1920 c 256,31,32
1344 1152 m 256,57,58
 1344 1218 1344 1218 1319 1276.5 c 128,-1,59
 1294 1335 1294 1335 1250.5 1378.5 c 128,-1,60
 1207 1422 1207 1422 1148.5 1447 c 128,-1,61
 1090 1472 1090 1472 1024 1472 c 256,62,63
 958 1472 958 1472 899.5 1447 c 128,-1,64
 841 1422 841 1422 797.5 1378.5 c 128,-1,65
 754 1335 754 1335 729 1276.5 c 128,-1,66
 704 1218 704 1218 704 1152 c 256,67,68
 704 1086 704 1086 729 1027.5 c 128,-1,69
 754 969 754 969 797.5 925.5 c 128,-1,70
 841 882 841 882 899.5 857 c 128,-1,71
 958 832 958 832 1024 832 c 256,72,73
 1090 832 1090 832 1148.5 857 c 128,-1,74
 1207 882 1207 882 1250.5 925.5 c 128,-1,75
 1294 969 1294 969 1319 1027.5 c 128,-1,76
 1344 1086 1344 1086 1344 1152 c 256,57,58
267 1024 m 1,77,78
 282 932 282 932 318.5 848.5 c 128,-1,79
 355 765 355 765 408 694 c 128,-1,80
 461 623 461 623 528.5 565.5 c 128,-1,81
 596 508 596 508 675 468 c 128,-1,82
 754 428 754 428 842 406 c 128,-1,83
 930 384 930 384 1024 384 c 0,84,85
 1117 384 1117 384 1205.5 406 c 128,-1,86
 1294 428 1294 428 1373 468 c 128,-1,87
 1452 508 1452 508 1519.5 565.5 c 128,-1,88
 1587 623 1587 623 1640 694 c 128,-1,89
 1693 765 1693 765 1729 848.5 c 128,-1,90
 1765 932 1765 932 1781 1024 c 1,91,-1
 1453 1024 l 1,92,93
 1433 953 1433 953 1391 894 c 128,-1,94
 1349 835 1349 835 1292 793 c 128,-1,95
 1235 751 1235 751 1166 727.5 c 128,-1,96
 1097 704 1097 704 1024 704 c 0,97,98
 950 704 950 704 881.5 727.5 c 128,-1,99
 813 751 813 751 756 793 c 128,-1,100
 699 835 699 835 657 894 c 128,-1,101
 615 953 615 953 595 1024 c 1,102,-1
 267 1024 l 1,77,78
1152 128 m 1,103,-1
 1152 265 l 1,104,105
 1089 256 1089 256 1024 256 c 256,106,107
 959 256 959 256 896 265 c 1,108,-1
 896 128 l 1,109,-1
 1152 128 l 1,103,-1
EndSplineSet
EndChar

StartChar: uniE1B2
Encoding: 57778 57778 24
Width: 2048
Flags: W
LayerCount: 2
Fore
SplineSet
1728 1664 m 2,0,1
 1768 1664 1768 1664 1803 1649 c 128,-1,2
 1838 1634 1838 1634 1864 1608 c 128,-1,3
 1890 1582 1890 1582 1905 1547 c 128,-1,4
 1920 1512 1920 1512 1920 1472 c 2,5,-1
 1920 576 l 2,6,7
 1920 536 1920 536 1905 501 c 128,-1,8
 1890 466 1890 466 1864 440 c 128,-1,9
 1838 414 1838 414 1803 399 c 128,-1,10
 1768 384 1768 384 1728 384 c 2,11,-1
 1664 384 l 1,12,-1
 1664 128 l 1,13,-1
 1536 128 l 1,14,-1
 1536 384 l 1,15,-1
 1408 384 l 1,16,-1
 1408 128 l 1,17,-1
 1280 128 l 1,18,-1
 1280 384 l 1,19,-1
 1152 384 l 1,20,-1
 1152 128 l 1,21,-1
 1024 128 l 1,22,-1
 1024 384 l 1,23,-1
 896 384 l 1,24,-1
 896 128 l 1,25,-1
 768 128 l 1,26,-1
 768 384 l 1,27,-1
 640 384 l 1,28,-1
 640 128 l 1,29,-1
 512 128 l 1,30,-1
 512 384 l 1,31,-1
 384 384 l 1,32,-1
 384 128 l 1,33,-1
 256 128 l 1,34,-1
 256 384 l 1,35,-1
 192 384 l 2,36,37
 152 384 152 384 117 399 c 128,-1,38
 82 414 82 414 56 440 c 128,-1,39
 30 466 30 466 15 501 c 128,-1,40
 0 536 0 536 0 576 c 2,41,-1
 0 1472 l 2,42,43
 0 1512 0 1512 15 1547 c 128,-1,44
 30 1582 30 1582 56 1608 c 128,-1,45
 82 1634 82 1634 117 1649 c 128,-1,46
 152 1664 152 1664 192 1664 c 2,47,-1
 256 1664 l 1,48,-1
 256 1920 l 1,49,-1
 384 1920 l 1,50,-1
 384 1664 l 1,51,-1
 512 1664 l 1,52,-1
 512 1920 l 1,53,-1
 640 1920 l 1,54,-1
 640 1664 l 1,55,-1
 768 1664 l 1,56,-1
 768 1920 l 1,57,-1
 896 1920 l 1,58,-1
 896 1664 l 1,59,-1
 1024 1664 l 1,60,-1
 1024 1920 l 1,61,-1
 1152 1920 l 1,62,-1
 1152 1664 l 1,63,-1
 1280 1664 l 1,64,-1
 1280 1920 l 1,65,-1
 1408 1920 l 1,66,-1
 1408 1664 l 1,67,-1
 1536 1664 l 1,68,-1
 1536 1920 l 1,69,-1
 1664 1920 l 1,70,-1
 1664 1664 l 1,71,-1
 1728 1664 l 2,0,1
1792 1472 m 2,72,73
 1792 1498 1792 1498 1773 1517 c 128,-1,74
 1754 1536 1754 1536 1728 1536 c 2,75,-1
 192 1536 l 2,76,77
 166 1536 166 1536 147 1517 c 128,-1,78
 128 1498 128 1498 128 1472 c 2,79,-1
 128 576 l 2,80,81
 128 550 128 550 147 531 c 128,-1,82
 166 512 166 512 192 512 c 2,83,-1
 1728 512 l 2,84,85
 1754 512 1754 512 1773 531 c 128,-1,86
 1792 550 1792 550 1792 576 c 2,87,-1
 1792 1472 l 2,72,73
256 1408 m 1,88,-1
 1664 1408 l 1,89,-1
 1664 640 l 1,90,-1
 256 640 l 1,91,-1
 256 1408 l 1,88,-1
384 768 m 1,92,-1
 1536 768 l 1,93,-1
 1536 1280 l 1,94,-1
 384 1280 l 1,95,-1
 384 768 l 1,92,-1
EndSplineSet
EndChar

StartChar: uniE1B3
Encoding: 57779 57779 25
Width: 2048
Flags: W
LayerCount: 2
Fore
SplineSet
2048 1536 m 1,0,-1
 1792 1536 l 1,1,-1
 1792 1280 l 1,2,-1
 2048 1280 l 1,3,-1
 2048 1152 l 1,4,-1
 1792 1152 l 1,5,-1
 1792 896 l 1,6,-1
 2048 896 l 1,7,-1
 2048 768 l 1,8,-1
 1792 768 l 1,9,-1
 1792 512 l 1,10,-1
 2048 512 l 1,11,-1
 2048 384 l 1,12,-1
 1792 384 l 1,13,-1
 1792 256 l 1,14,-1
 1664 256 l 1,15,-1
 1664 0 l 1,16,-1
 1536 0 l 1,17,-1
 1536 256 l 1,18,-1
 1280 256 l 1,19,-1
 1280 0 l 1,20,-1
 1152 0 l 1,21,-1
 1152 256 l 1,22,-1
 896 256 l 1,23,-1
 896 0 l 1,24,-1
 768 0 l 1,25,-1
 768 256 l 1,26,-1
 512 256 l 1,27,-1
 512 0 l 1,28,-1
 384 0 l 1,29,-1
 384 256 l 1,30,-1
 256 256 l 1,31,-1
 256 384 l 1,32,-1
 0 384 l 1,33,-1
 0 512 l 1,34,-1
 256 512 l 1,35,-1
 256 768 l 1,36,-1
 0 768 l 1,37,-1
 0 896 l 1,38,-1
 256 896 l 1,39,-1
 256 1152 l 1,40,-1
 0 1152 l 1,41,-1
 0 1280 l 1,42,-1
 256 1280 l 1,43,-1
 256 1536 l 1,44,-1
 0 1536 l 1,45,-1
 0 1664 l 1,46,-1
 256 1664 l 1,47,-1
 256 1792 l 1,48,-1
 384 1792 l 1,49,-1
 384 2048 l 1,50,-1
 512 2048 l 1,51,-1
 512 1792 l 1,52,-1
 768 1792 l 1,53,-1
 768 2048 l 1,54,-1
 896 2048 l 1,55,-1
 896 1792 l 1,56,-1
 1152 1792 l 1,57,-1
 1152 2048 l 1,58,-1
 1280 2048 l 1,59,-1
 1280 1792 l 1,60,-1
 1536 1792 l 1,61,-1
 1536 2048 l 1,62,-1
 1664 2048 l 1,63,-1
 1664 1792 l 1,64,-1
 1792 1792 l 1,65,-1
 1792 1664 l 1,66,-1
 2048 1664 l 1,67,-1
 2048 1536 l 1,0,-1
1664 384 m 1,68,-1
 1664 1664 l 1,69,-1
 384 1664 l 1,70,-1
 384 384 l 1,71,-1
 1664 384 l 1,68,-1
EndSplineSet
EndChar

StartChar: uniE1B4
Encoding: 57780 57780 26
Width: 2048
Flags: W
LayerCount: 2
Fore
SplineSet
1856 1792 m 2,0,1
 1896 1792 1896 1792 1931 1777 c 128,-1,2
 1966 1762 1966 1762 1992 1736 c 128,-1,3
 2018 1710 2018 1710 2033 1675 c 128,-1,4
 2048 1640 2048 1640 2048 1600 c 2,5,-1
 2048 448 l 2,6,7
 2048 408 2048 408 2033 373 c 128,-1,8
 2018 338 2018 338 1992 312 c 128,-1,9
 1966 286 1966 286 1931 271 c 128,-1,10
 1896 256 1896 256 1856 256 c 2,11,-1
 192 256 l 2,12,13
 152 256 152 256 117 271 c 128,-1,14
 82 286 82 286 56 312 c 128,-1,15
 30 338 30 338 15 373 c 128,-1,16
 0 408 0 408 0 448 c 2,17,-1
 0 1600 l 2,18,19
 0 1640 0 1640 15 1675 c 128,-1,20
 30 1710 30 1710 56 1736 c 128,-1,21
 82 1762 82 1762 117 1777 c 128,-1,22
 152 1792 152 1792 192 1792 c 2,23,-1
 1856 1792 l 2,0,1
1920 1600 m 2,24,25
 1920 1626 1920 1626 1901 1645 c 128,-1,26
 1882 1664 1882 1664 1856 1664 c 2,27,-1
 192 1664 l 2,28,29
 166 1664 166 1664 147 1645 c 128,-1,30
 128 1626 128 1626 128 1600 c 2,31,-1
 128 448 l 2,32,33
 128 422 128 422 147 403 c 128,-1,34
 166 384 166 384 192 384 c 2,35,-1
 1856 384 l 2,36,37
 1882 384 1882 384 1901 403 c 128,-1,38
 1920 422 1920 422 1920 448 c 2,39,-1
 1920 1600 l 2,24,25
896 1536 m 1,40,-1
 1792 1536 l 1,41,-1
 1792 512 l 1,42,-1
 896 512 l 1,43,-1
 896 1536 l 1,40,-1
1024 640 m 1,44,-1
 1152 640 l 1,45,-1
 1152 1024 l 1,46,-1
 1024 1024 l 1,47,-1
 1024 640 l 1,44,-1
1408 1408 m 1,48,-1
 1280 1408 l 1,49,-1
 1280 640 l 1,50,-1
 1408 640 l 1,51,-1
 1408 1408 l 1,48,-1
1664 640 m 1,52,-1
 1664 896 l 1,53,-1
 1536 896 l 1,54,-1
 1536 640 l 1,55,-1
 1664 640 l 1,52,-1
1664 1408 m 1,56,-1
 1536 1408 l 1,57,-1
 1536 1024 l 1,58,-1
 1664 1024 l 1,59,-1
 1664 1408 l 1,56,-1
1024 1408 m 1,60,-1
 1024 1152 l 1,61,-1
 1152 1152 l 1,62,-1
 1152 1408 l 1,63,-1
 1024 1408 l 1,60,-1
EndSplineSet
EndChar

StartChar: uniE1B5
Encoding: 57781 57781 27
Width: 2048
Flags: W
LayerCount: 2
Fore
SplineSet
651 1152 m 1,0,-1
 992 128 l 1,1,-1
 853 128 l 1,2,-1
 768 384 l 1,3,-1
 384 384 l 1,4,-1
 299 128 l 1,5,-1
 160 128 l 1,6,-1
 501 1152 l 1,7,-1
 651 1152 l 1,0,-1
725 512 m 1,8,-1
 576 960 l 1,9,-1
 427 512 l 1,10,-1
 725 512 l 1,8,-1
806 1504 m 0,11,12
 807 1573 807 1573 807.5 1641 c 128,-1,13
 808 1709 808 1709 806 1778 c 0,14,15
 806 1783 806 1783 808 1789 c 1,16,17
 816 1791 816 1791 821 1791 c 0,18,19
 863 1790 863 1790 904.5 1789 c 128,-1,20
 946 1788 946 1788 988 1788 c 2,21,-1
 1263 1788 l 1,22,23
 1263 1820 1263 1820 1262.5 1854 c 128,-1,24
 1262 1888 1262 1888 1254 1920 c 1,25,26
 1323 1920 1323 1920 1391 1914 c 0,27,28
 1397 1913 1397 1913 1403.5 1911 c 128,-1,29
 1410 1909 1410 1909 1410 1901 c 0,30,31
 1410 1895 1410 1895 1407 1889 c 128,-1,32
 1404 1883 1404 1883 1402 1877 c 0,33,34
 1400 1872 1400 1872 1398.5 1861.5 c 128,-1,35
 1397 1851 1397 1851 1396.5 1839.5 c 128,-1,36
 1396 1828 1396 1828 1396 1817.5 c 128,-1,37
 1396 1807 1396 1807 1396 1801 c 2,38,-1
 1396 1788 l 1,39,-1
 1692 1788 l 2,40,41
 1734 1788 1734 1788 1775.5 1789 c 128,-1,42
 1817 1790 1817 1790 1859 1791 c 0,43,44
 1866 1791 1866 1791 1872 1788 c 0,45,46
 1875 1783 1875 1783 1875 1778 c 0,47,48
 1874 1761 1874 1761 1873 1742.5 c 128,-1,49
 1872 1724 1872 1724 1872 1707 c 2,50,-1
 1872 1649 l 2,51,52
 1872 1613 1872 1613 1873 1576.5 c 128,-1,53
 1874 1540 1874 1540 1875 1504 c 0,54,55
 1875 1501 1875 1501 1874.5 1497 c 128,-1,56
 1874 1493 1874 1493 1872 1491 c 0,57,58
 1864 1489 1864 1489 1859 1489 c 256,59,60
 1854 1489 1854 1489 1836 1488.5 c 128,-1,61
 1818 1488 1818 1488 1798 1488 c 128,-1,62
 1778 1488 1778 1488 1761.5 1488.5 c 128,-1,63
 1745 1489 1745 1489 1742 1492 c 0,64,65
 1740 1503 1740 1503 1739.5 1527.5 c 128,-1,66
 1739 1552 1739 1552 1739.5 1579.5 c 128,-1,67
 1740 1607 1740 1607 1740.5 1632.5 c 128,-1,68
 1741 1658 1741 1658 1741 1672 c 1,69,-1
 939 1672 l 1,70,71
 939 1667 939 1667 939.5 1652 c 128,-1,72
 940 1637 940 1637 940 1617.5 c 128,-1,73
 940 1598 940 1598 940 1576 c 128,-1,74
 940 1554 940 1554 940 1535.5 c 128,-1,75
 940 1517 940 1517 939 1504.5 c 128,-1,76
 938 1492 938 1492 936 1490 c 0,77,78
 928 1488 928 1488 923 1488 c 2,79,-1
 821 1488 l 2,80,81
 810 1488 810 1488 808 1491 c 128,-1,82
 806 1494 806 1494 806 1504 c 0,11,12
1902 1246 m 1,83,84
 1904 1238 1904 1238 1904 1233 c 2,85,-1
 1904 1137 l 2,86,87
 1904 1133 1904 1133 1902 1125 c 1,88,89
 1894 1123 1894 1123 1889 1123 c 0,90,91
 1849 1124 1849 1124 1810 1125 c 128,-1,92
 1771 1126 1771 1126 1731 1126 c 2,93,-1
 1410 1126 l 1,94,95
 1409 1066 1409 1066 1410.5 1005.5 c 128,-1,96
 1412 945 1412 945 1414 885 c 0,97,98
 1415 860 1415 860 1406 835 c 128,-1,99
 1397 810 1397 810 1376 795 c 0,100,101
 1362 785 1362 785 1336.5 779.5 c 128,-1,102
 1311 774 1311 774 1282 771.5 c 128,-1,103
 1253 769 1253 769 1225.5 768.5 c 128,-1,104
 1198 768 1198 768 1182 768 c 0,105,106
 1176 768 1176 768 1163 768.5 c 128,-1,107
 1150 769 1150 769 1145 774 c 0,108,109
 1142 777 1142 777 1138 790 c 128,-1,110
 1134 803 1134 803 1132 808 c 0,111,112
 1125 834 1125 834 1115.5 856.5 c 128,-1,113
 1106 879 1106 879 1092 902 c 1,114,115
 1126 898 1126 898 1160 896.5 c 128,-1,116
 1194 895 1194 895 1228 895 c 0,117,118
 1252 895 1252 895 1264.5 902.5 c 128,-1,119
 1277 910 1277 910 1277 936 c 2,120,-1
 1277 1126 l 1,121,-1
 958 1126 l 2,122,123
 918 1126 918 1126 878 1125 c 128,-1,124
 838 1124 838 1124 798 1123 c 0,125,126
 790 1123 790 1123 786 1126 c 0,127,128
 784 1132 784 1132 784 1137 c 2,129,-1
 784 1233 l 2,130,131
 784 1236 784 1236 784.5 1240.5 c 128,-1,132
 785 1245 785 1245 787 1247 c 0,133,134
 793 1249 793 1249 798 1249 c 0,135,136
 838 1248 838 1248 878 1247 c 128,-1,137
 918 1246 918 1246 958 1246 c 2,138,-1
 1277 1246 l 1,139,140
 1275 1272 1275 1272 1274.5 1298.5 c 128,-1,141
 1274 1325 1274 1325 1269 1351 c 1,142,143
 1291 1349 1291 1349 1312 1347 c 128,-1,144
 1333 1345 1333 1345 1355 1343 c 1,145,146
 1390 1368 1390 1368 1422 1396 c 128,-1,147
 1454 1424 1454 1424 1486 1453 c 1,148,-1
 1178 1453 l 2,149,150
 1136 1453 1136 1453 1094.5 1452 c 128,-1,151
 1053 1451 1053 1451 1011 1450 c 0,152,153
 1003 1450 1003 1450 999 1453 c 0,154,155
 997 1459 997 1459 997 1464 c 2,156,-1
 997 1559 l 2,157,158
 997 1563 997 1563 999 1571 c 1,159,160
 1007 1573 1007 1573 1011 1573 c 0,161,162
 1053 1572 1053 1572 1094.5 1571 c 128,-1,163
 1136 1570 1136 1570 1178 1570 c 2,164,-1
 1551 1570 l 2,165,166
 1567 1570 1567 1570 1581 1574.5 c 128,-1,167
 1595 1579 1595 1579 1606 1579 c 0,168,169
 1614 1579 1614 1579 1629 1567 c 128,-1,170
 1644 1555 1644 1555 1659 1539 c 128,-1,171
 1674 1523 1674 1523 1685.5 1506.5 c 128,-1,172
 1697 1490 1697 1490 1697 1482 c 0,173,174
 1697 1472 1697 1472 1690.5 1466.5 c 128,-1,175
 1684 1461 1684 1461 1676 1457 c 0,176,177
 1662 1450 1662 1450 1649 1439 c 128,-1,178
 1636 1428 1636 1428 1624 1418 c 0,179,180
 1572 1375 1572 1375 1519.5 1334.5 c 128,-1,181
 1467 1294 1467 1294 1410 1257 c 1,182,-1
 1410 1246 l 1,183,-1
 1731 1246 l 2,184,185
 1771 1246 1771 1246 1810 1247 c 128,-1,186
 1849 1248 1849 1248 1889 1249 c 0,187,188
 1896 1249 1896 1249 1902 1246 c 1,83,84
EndSplineSet
EndChar

StartChar: uniE1B6
Encoding: 57782 57782 28
Width: 2048
Flags: W
LayerCount: 2
Fore
SplineSet
601 896 m 1,0,-1
 899 0 l 1,1,-1
 765 0 l 1,2,-1
 679 256 l 1,3,-1
 345 256 l 1,4,-1
 259 0 l 1,5,-1
 125 0 l 1,6,-1
 423 896 l 1,7,-1
 601 896 l 1,0,-1
637 384 m 1,8,-1
 512 758 l 1,9,-1
 387 384 l 1,10,-1
 637 384 l 1,8,-1
640 1792 m 1,11,-1
 640 1408 l 1,12,-1
 896 1408 l 1,13,-1
 896 1280 l 1,14,-1
 512 1280 l 1,15,-1
 512 1792 l 1,16,-1
 640 1792 l 1,11,-1
257 899 m 1,17,18
 197 944 197 944 149 1001 c 128,-1,19
 101 1058 101 1058 68 1123 c 128,-1,20
 35 1188 35 1188 17.5 1260.5 c 128,-1,21
 0 1333 0 1333 0 1408 c 0,22,23
 0 1496 0 1496 23 1578 c 128,-1,24
 46 1660 46 1660 87.5 1731 c 128,-1,25
 129 1802 129 1802 187.5 1860.5 c 128,-1,26
 246 1919 246 1919 317 1960.5 c 128,-1,27
 388 2002 388 2002 470 2025 c 128,-1,28
 552 2048 552 2048 640 2048 c 256,29,30
 728 2048 728 2048 810 2025 c 128,-1,31
 892 2002 892 2002 963 1960.5 c 128,-1,32
 1034 1919 1034 1919 1092.5 1860.5 c 128,-1,33
 1151 1802 1151 1802 1192.5 1731 c 128,-1,34
 1234 1660 1234 1660 1257 1578 c 128,-1,35
 1280 1496 1280 1496 1280 1408 c 0,36,37
 1280 1376 1280 1376 1276.5 1344 c 128,-1,38
 1273 1312 1273 1312 1267 1280 c 1,39,-1
 1134 1280 l 1,40,41
 1142 1312 1142 1312 1147 1344 c 128,-1,42
 1152 1376 1152 1376 1152 1408 c 0,43,44
 1152 1514 1152 1514 1111.5 1607 c 128,-1,45
 1071 1700 1071 1700 1001.5 1769.5 c 128,-1,46
 932 1839 932 1839 839 1879.5 c 128,-1,47
 746 1920 746 1920 640 1920 c 256,48,49
 534 1920 534 1920 441 1879.5 c 128,-1,50
 348 1839 348 1839 278.5 1769.5 c 128,-1,51
 209 1700 209 1700 168.5 1607 c 128,-1,52
 128 1514 128 1514 128 1408 c 0,53,54
 128 1298 128 1298 173.5 1199.5 c 128,-1,55
 219 1101 219 1101 300 1028 c 1,56,-1
 257 899 l 1,17,18
2030 606 m 1,57,58
 2032 598 2032 598 2032 593 c 2,59,-1
 2032 497 l 2,60,61
 2032 493 2032 493 2030 485 c 1,62,63
 2022 483 2022 483 2017 483 c 0,64,65
 1977 484 1977 484 1938 485 c 128,-1,66
 1899 486 1899 486 1859 486 c 2,67,-1
 1538 486 l 1,68,69
 1537 426 1537 426 1538.5 365.5 c 128,-1,70
 1540 305 1540 305 1542 245 c 0,71,72
 1543 220 1543 220 1534 195 c 128,-1,73
 1525 170 1525 170 1504 155 c 0,74,75
 1490 145 1490 145 1464.5 139.5 c 128,-1,76
 1439 134 1439 134 1410 131.5 c 128,-1,77
 1381 129 1381 129 1353.5 128.5 c 128,-1,78
 1326 128 1326 128 1310 128 c 0,79,80
 1304 128 1304 128 1291 128.5 c 128,-1,81
 1278 129 1278 129 1273 134 c 0,82,83
 1270 137 1270 137 1266 150 c 128,-1,84
 1262 163 1262 163 1260 168 c 0,85,86
 1253 194 1253 194 1243.5 216.5 c 128,-1,87
 1234 239 1234 239 1220 262 c 1,88,89
 1254 258 1254 258 1288 256.5 c 128,-1,90
 1322 255 1322 255 1356 255 c 0,91,92
 1380 255 1380 255 1392.5 262.5 c 128,-1,93
 1405 270 1405 270 1405 296 c 2,94,-1
 1405 486 l 1,95,-1
 1086 486 l 2,96,97
 1046 486 1046 486 1006 485 c 128,-1,98
 966 484 966 484 926 483 c 0,99,100
 918 483 918 483 914 486 c 0,101,102
 912 492 912 492 912 497 c 2,103,-1
 912 593 l 2,104,105
 912 596 912 596 912.5 600.5 c 128,-1,106
 913 605 913 605 915 607 c 0,107,108
 921 609 921 609 926 609 c 0,109,110
 966 608 966 608 1006 607 c 128,-1,111
 1046 606 1046 606 1086 606 c 2,112,-1
 1405 606 l 1,113,114
 1403 632 1403 632 1402.5 658.5 c 128,-1,115
 1402 685 1402 685 1397 711 c 1,116,117
 1419 709 1419 709 1440 707 c 128,-1,118
 1461 705 1461 705 1483 703 c 1,119,120
 1518 728 1518 728 1550 756 c 128,-1,121
 1582 784 1582 784 1614 813 c 1,122,-1
 1306 813 l 2,123,124
 1264 813 1264 813 1222.5 812 c 128,-1,125
 1181 811 1181 811 1139 810 c 0,126,127
 1131 810 1131 810 1127 813 c 0,128,129
 1125 819 1125 819 1125 824 c 2,130,-1
 1125 919 l 2,131,132
 1125 923 1125 923 1127 931 c 1,133,134
 1135 933 1135 933 1139 933 c 0,135,136
 1181 932 1181 932 1222.5 931 c 128,-1,137
 1264 930 1264 930 1306 930 c 2,138,-1
 1679 930 l 2,139,140
 1695 930 1695 930 1709 934.5 c 128,-1,141
 1723 939 1723 939 1734 939 c 0,142,143
 1742 939 1742 939 1757 927 c 128,-1,144
 1772 915 1772 915 1787 899 c 128,-1,145
 1802 883 1802 883 1813.5 866.5 c 128,-1,146
 1825 850 1825 850 1825 842 c 0,147,148
 1825 832 1825 832 1818.5 826.5 c 128,-1,149
 1812 821 1812 821 1804 817 c 0,150,151
 1790 810 1790 810 1777 799 c 128,-1,152
 1764 788 1764 788 1752 778 c 0,153,154
 1700 735 1700 735 1647.5 694.5 c 128,-1,155
 1595 654 1595 654 1538 617 c 1,156,-1
 1538 606 l 1,157,-1
 1859 606 l 2,158,159
 1899 606 1899 606 1938 607 c 128,-1,160
 1977 608 1977 608 2017 609 c 0,161,162
 2024 609 2024 609 2030 606 c 1,57,58
1391 1148 m 1,163,164
 1391 1180 1391 1180 1390.5 1214 c 128,-1,165
 1390 1248 1390 1248 1382 1280 c 1,166,167
 1451 1280 1451 1280 1519 1274 c 0,168,169
 1525 1273 1525 1273 1531.5 1271 c 128,-1,170
 1538 1269 1538 1269 1538 1261 c 0,171,172
 1538 1256 1538 1256 1535 1249 c 128,-1,173
 1532 1242 1532 1242 1530 1237 c 0,174,175
 1528 1231 1528 1231 1526.5 1221 c 128,-1,176
 1525 1211 1525 1211 1524.5 1199.5 c 128,-1,177
 1524 1188 1524 1188 1524 1177.5 c 128,-1,178
 1524 1167 1524 1167 1524 1161 c 2,179,-1
 1524 1148 l 1,180,-1
 1820 1148 l 2,181,182
 1862 1148 1862 1148 1903.5 1149 c 128,-1,183
 1945 1150 1945 1150 1987 1151 c 0,184,185
 1994 1151 1994 1151 2000 1148 c 0,186,187
 2003 1143 2003 1143 2003 1138 c 0,188,189
 2002 1121 2002 1121 2001 1102.5 c 128,-1,190
 2000 1084 2000 1084 2000 1067 c 2,191,-1
 2000 1009 l 2,192,193
 2000 973 2000 973 2001 936.5 c 128,-1,194
 2002 900 2002 900 2003 864 c 0,195,196
 2003 861 2003 861 2002.5 857 c 128,-1,197
 2002 853 2002 853 2000 851 c 0,198,199
 1992 849 1992 849 1987 849 c 256,200,201
 1982 849 1982 849 1964 848.5 c 128,-1,202
 1946 848 1946 848 1926 848 c 128,-1,203
 1906 848 1906 848 1889.5 848.5 c 128,-1,204
 1873 849 1873 849 1870 852 c 0,205,206
 1868 863 1868 863 1867.5 887.5 c 128,-1,207
 1867 912 1867 912 1867.5 939.5 c 128,-1,208
 1868 967 1868 967 1868.5 992.5 c 128,-1,209
 1869 1018 1869 1018 1869 1032 c 1,210,-1
 1067 1032 l 1,211,212
 1067 1027 1067 1027 1067.5 1012 c 128,-1,213
 1068 997 1068 997 1068 977.5 c 128,-1,214
 1068 958 1068 958 1068 936 c 128,-1,215
 1068 914 1068 914 1068 895.5 c 128,-1,216
 1068 877 1068 877 1067 864.5 c 128,-1,217
 1066 852 1066 852 1064 850 c 0,218,219
 1056 848 1056 848 1051 848 c 2,220,-1
 949 848 l 2,221,222
 938 848 938 848 936 851 c 128,-1,223
 934 854 934 854 934 864 c 0,224,225
 935 933 935 933 935.5 1001 c 128,-1,226
 936 1069 936 1069 934 1138 c 0,227,228
 934 1143 934 1143 936 1149 c 1,229,230
 944 1151 944 1151 949 1151 c 0,231,232
 991 1150 991 1150 1032.5 1149 c 128,-1,233
 1074 1148 1074 1148 1116 1148 c 2,234,-1
 1391 1148 l 1,163,164
EndSplineSet
EndChar

StartChar: uniE1B7
Encoding: 57783 57783 29
Width: 2048
Flags: W
LayerCount: 2
Fore
SplineSet
0 2048 m 1,0,-1
 2048 2048 l 1,1,-1
 2048 0 l 1,2,-1
 0 0 l 1,3,-1
 0 2048 l 1,4,-1
 0 2048 l 1,0,-1
EndSplineSet
EndChar

StartChar: uniE1B8
Encoding: 57784 57784 30
Width: 2048
Flags: W
LayerCount: 2
Fore
SplineSet
0 2048 m 1,0,-1
 2048 2048 l 1,1,-1
 2048 0 l 1,2,-1
 0 0 l 1,3,-1
 0 2048 l 1,0,-1
1920 128 m 1,4,-1
 1920 1920 l 1,5,-1
 1024 1920 l 1,6,-1
 1024 128 l 1,7,-1
 1920 128 l 1,4,-1
EndSplineSet
EndChar

StartChar: uniE1B9
Encoding: 57785 57785 31
Width: 2048
Flags: W
LayerCount: 2
Fore
SplineSet
0 2048 m 1,0,-1
 2048 2048 l 1,1,-1
 2048 0 l 1,2,-1
 0 0 l 1,3,-1
 0 2048 l 1,0,-1
128 1024 m 1,4,-1
 1920 1024 l 1,5,-1
 1920 1920 l 1,6,-1
 128 1920 l 1,7,-1
 128 1024 l 1,4,-1
EndSplineSet
EndChar

StartChar: uniE1BA
Encoding: 57786 57786 32
Width: 2048
Flags: W
LayerCount: 2
Fore
SplineSet
0 2048 m 1,0,-1
 2048 2048 l 1,1,-1
 2048 0 l 1,2,-1
 0 0 l 1,3,-1
 0 2048 l 1,0,-1
1920 128 m 1,4,-1
 1920 1920 l 1,5,-1
 128 1920 l 1,6,-1
 128 1024 l 1,7,-1
 1024 1024 l 1,8,-1
 1024 128 l 1,9,-1
 1920 128 l 1,4,-1
EndSplineSet
EndChar

StartChar: uniE1BB
Encoding: 57787 57787 33
Width: 2048
Flags: W
LayerCount: 2
Fore
SplineSet
0 2048 m 1,0,-1
 2048 2048 l 1,1,-1
 2048 0 l 1,2,-1
 0 0 l 1,3,-1
 0 2048 l 1,0,-1
1920 128 m 1,4,-1
 1920 1920 l 1,5,-1
 128 1920 l 1,6,-1
 128 640 l 1,7,-1
 640 640 l 1,8,-1
 640 128 l 1,9,-1
 1920 128 l 1,4,-1
EndSplineSet
EndChar

StartChar: uniE1BC
Encoding: 57788 57788 34
Width: 2048
Flags: W
LayerCount: 2
Fore
SplineSet
640 768 m 256,0,1
 667 768 667 768 690 758 c 128,-1,2
 713 748 713 748 730.5 730.5 c 128,-1,3
 748 713 748 713 758 690 c 128,-1,4
 768 667 768 667 768 640 c 256,5,6
 768 613 768 613 758 590 c 128,-1,7
 748 567 748 567 730.5 549.5 c 128,-1,8
 713 532 713 532 690 522 c 128,-1,9
 667 512 667 512 640 512 c 256,10,11
 613 512 613 512 590 522 c 128,-1,12
 567 532 567 532 549.5 549.5 c 128,-1,13
 532 567 532 567 522 590 c 128,-1,14
 512 613 512 613 512 640 c 256,15,16
 512 667 512 667 522 690 c 128,-1,17
 532 713 532 713 549.5 730.5 c 128,-1,18
 567 748 567 748 590 758 c 128,-1,19
 613 768 613 768 640 768 c 256,0,1
768 448 m 256,20,21
 768 474 768 474 787 493 c 128,-1,22
 806 512 806 512 832 512 c 256,23,24
 858 512 858 512 877 493 c 128,-1,25
 896 474 896 474 896 448 c 256,26,27
 896 422 896 422 877 403 c 128,-1,28
 858 384 858 384 832 384 c 256,29,30
 806 384 806 384 787 403 c 128,-1,31
 768 422 768 422 768 448 c 256,20,21
1600 1280 m 256,32,33
 1626 1280 1626 1280 1645 1261 c 128,-1,34
 1664 1242 1664 1242 1664 1216 c 256,35,36
 1664 1190 1664 1190 1645 1171 c 128,-1,37
 1626 1152 1626 1152 1600 1152 c 256,38,39
 1574 1152 1574 1152 1555 1171 c 128,-1,40
 1536 1190 1536 1190 1536 1216 c 256,41,42
 1536 1242 1536 1242 1555 1261 c 128,-1,43
 1574 1280 1574 1280 1600 1280 c 256,32,33
1408 1536 m 256,44,45
 1435 1536 1435 1536 1458 1526 c 128,-1,46
 1481 1516 1481 1516 1498.5 1498.5 c 128,-1,47
 1516 1481 1516 1481 1526 1458 c 128,-1,48
 1536 1435 1536 1435 1536 1408 c 256,49,50
 1536 1381 1536 1381 1526 1358 c 128,-1,51
 1516 1335 1516 1335 1498.5 1317.5 c 128,-1,52
 1481 1300 1481 1300 1458 1290 c 128,-1,53
 1435 1280 1435 1280 1408 1280 c 256,54,55
 1381 1280 1381 1280 1358 1290 c 128,-1,56
 1335 1300 1335 1300 1317.5 1317.5 c 128,-1,57
 1300 1335 1300 1335 1290 1358 c 128,-1,58
 1280 1381 1280 1381 1280 1408 c 256,59,60
 1280 1435 1280 1435 1290 1458 c 128,-1,61
 1300 1481 1300 1481 1317.5 1498.5 c 128,-1,62
 1335 1516 1335 1516 1358 1526 c 128,-1,63
 1381 1536 1381 1536 1408 1536 c 256,44,45
2011 1280 m 1,64,65
 2009 1280 2009 1280 2011 1278 c 2,66,-1
 2013 1276 l 2,67,68
 2030 1259 2030 1259 2039 1237 c 128,-1,69
 2048 1215 2048 1215 2048 1191 c 0,70,71
 2048 1162 2048 1162 2027.5 1127.5 c 128,-1,72
 2007 1093 2007 1093 1977 1063 c 128,-1,73
 1947 1033 1947 1033 1912.5 1012.5 c 128,-1,74
 1878 992 1878 992 1849 992 c 0,75,76
 1797 992 1797 992 1761 1030 c 1,77,-1
 1018 287 l 1,78,79
 1027 282 1027 282 1034 271.5 c 128,-1,80
 1041 261 1041 261 1046 248 c 128,-1,81
 1051 235 1051 235 1053.5 222.5 c 128,-1,82
 1056 210 1056 210 1056 200 c 0,83,84
 1056 171 1056 171 1036 136 c 128,-1,85
 1016 101 1016 101 986 71 c 128,-1,86
 956 41 956 41 921 20.5 c 128,-1,87
 886 0 886 0 857 0 c 0,88,89
 833 0 833 0 811 9 c 128,-1,90
 789 18 789 18 772 35 c 2,91,-1
 769 38 l 1,92,-1
 768 37 l 1,93,94
 746 60 746 60 723 82.5 c 128,-1,95
 700 105 700 105 677 127 c 1,96,-1
 678 128 l 1,97,98
 635 171 635 171 589.5 214.5 c 128,-1,99
 544 258 544 258 498.5 302.5 c 128,-1,100
 453 347 453 347 409.5 392 c 128,-1,101
 366 437 366 437 327 483 c 0,102,103
 326 484 326 484 320 495 c 128,-1,104
 314 506 314 506 306 522.5 c 128,-1,105
 298 539 298 539 288.5 558 c 128,-1,106
 279 577 279 577 270.5 594 c 128,-1,107
 262 611 262 611 256 623.5 c 128,-1,108
 250 636 250 636 248 640 c 1,109,-1
 154 640 l 1,110,-1
 109 595 l 1,111,-1
 19 685 l 1,112,-1
 102 768 l 1,113,-1
 185 768 l 1,114,115
 163 811 163 811 131.5 866 c 128,-1,116
 100 921 100 921 70.5 980.5 c 128,-1,117
 41 1040 41 1040 20.5 1100.5 c 128,-1,118
 0 1161 0 1161 0 1216 c 0,119,120
 0 1243 0 1243 5 1275.5 c 128,-1,121
 10 1308 10 1308 20 1340 c 128,-1,122
 30 1372 30 1372 45 1400.5 c 128,-1,123
 60 1429 60 1429 80 1449 c 2,124,-1
 598 1964 l 2,125,126
 619 1984 619 1984 647.5 2000 c 128,-1,127
 676 2016 676 2016 707.5 2026.5 c 128,-1,128
 739 2037 739 2037 771.5 2042.5 c 128,-1,129
 804 2048 804 2048 832 2048 c 0,130,131
 887 2048 887 2048 947.5 2027 c 128,-1,132
 1008 2006 1008 2006 1067.5 1976.5 c 128,-1,133
 1127 1947 1127 1947 1182 1915.5 c 128,-1,134
 1237 1884 1237 1884 1280 1862 c 1,135,-1
 1280 1946 l 1,136,-1
 1363 2029 l 1,137,-1
 1453 1939 l 1,138,-1
 1408 1894 l 1,139,-1
 1408 1797 l 1,140,141
 1412 1795 1412 1795 1426 1788 c 128,-1,142
 1440 1781 1440 1781 1458.5 1771.5 c 128,-1,143
 1477 1762 1477 1762 1498 1751.5 c 128,-1,144
 1519 1741 1519 1741 1537 1732 c 128,-1,145
 1555 1723 1555 1723 1567.5 1716.5 c 128,-1,146
 1580 1710 1580 1710 1581 1709 c 0,147,148
 1625 1672 1625 1672 1668.5 1630 c 128,-1,149
 1712 1588 1712 1588 1754 1544 c 128,-1,150
 1796 1500 1796 1500 1837.5 1456 c 128,-1,151
 1879 1412 1879 1412 1920 1371 c 1,152,-1
 1921 1371 l 1,153,154
 1943 1348 1943 1348 1965.5 1325 c 128,-1,155
 1988 1302 1988 1302 2011 1280 c 1,64,65
128 1216 m 0,156,157
 128 1177 128 1177 144.5 1130.5 c 128,-1,158
 161 1084 161 1084 184.5 1038 c 128,-1,159
 208 992 208 992 232.5 949.5 c 128,-1,160
 257 907 257 907 273 876 c 1,161,-1
 1172 1774 l 1,162,163
 1140 1790 1140 1790 1098 1815 c 128,-1,164
 1056 1840 1056 1840 1010 1863 c 128,-1,165
 964 1886 964 1886 918 1903 c 128,-1,166
 872 1920 872 1920 832 1920 c 0,167,168
 814 1920 814 1920 794 1917 c 128,-1,169
 774 1914 774 1914 753.5 1907.5 c 128,-1,170
 733 1901 733 1901 715 1891.5 c 128,-1,171
 697 1882 697 1882 684 1869 c 2,172,-1
 175 1363 l 2,173,174
 163 1351 163 1351 154 1332.5 c 128,-1,175
 145 1314 145 1314 139.5 1293.5 c 128,-1,176
 134 1273 134 1273 131 1252.5 c 128,-1,177
 128 1232 128 1232 128 1216 c 0,156,157
1006 787 m 1,178,179
 1009 780 1009 780 1018 762.5 c 128,-1,180
 1027 745 1027 745 1038 721.5 c 128,-1,181
 1049 698 1049 698 1062 672.5 c 128,-1,182
 1075 647 1075 647 1086.5 625 c 128,-1,183
 1098 603 1098 603 1107 588 c 128,-1,184
 1116 573 1116 573 1120 571 c 1,185,-1
 1477 928 l 1,186,187
 1475 932 1475 932 1460 941 c 128,-1,188
 1445 950 1445 950 1423 961.5 c 128,-1,189
 1401 973 1401 973 1375.5 986 c 128,-1,190
 1350 999 1350 999 1326.5 1010 c 128,-1,191
 1303 1021 1303 1021 1285 1030 c 128,-1,192
 1267 1039 1267 1039 1261 1042 c 1,193,-1
 1006 787 l 1,178,179
1829 1280 m 1,194,195
 1790 1319 1790 1319 1749 1362.5 c 128,-1,196
 1708 1406 1708 1406 1666 1450 c 128,-1,197
 1624 1494 1624 1494 1582 1535.5 c 128,-1,198
 1540 1577 1540 1577 1498 1611 c 0,199,200
 1497 1612 1497 1612 1482.5 1619.5 c 128,-1,201
 1468 1627 1468 1627 1446.5 1637.5 c 128,-1,202
 1425 1648 1425 1648 1400 1660.5 c 128,-1,203
 1375 1673 1375 1673 1352.5 1684 c 128,-1,204
 1330 1695 1330 1695 1313.5 1703.5 c 128,-1,205
 1297 1712 1297 1712 1293 1714 c 1,206,-1
 334 755 l 1,207,208
 336 751 336 751 344.5 734.5 c 128,-1,209
 353 718 353 718 364 695.5 c 128,-1,210
 375 673 375 673 387.5 648 c 128,-1,211
 400 623 400 623 410.5 601.5 c 128,-1,212
 421 580 421 580 428.5 565.5 c 128,-1,213
 436 551 436 551 437 550 c 0,214,215
 471 508 471 508 512.5 465.5 c 128,-1,216
 554 423 554 423 598 381 c 128,-1,217
 642 339 642 339 685.5 298.5 c 128,-1,218
 729 258 729 258 768 219 c 1,219,-1
 1031 481 l 1,220,221
 1021 486 1021 486 1005.5 509.5 c 128,-1,222
 990 533 990 533 972.5 565.5 c 128,-1,223
 955 598 955 598 936 636 c 128,-1,224
 917 674 917 674 900 709 c 128,-1,225
 883 744 883 744 869.5 772 c 128,-1,226
 856 800 856 800 850 813 c 1,227,-1
 1235 1198 l 1,228,229
 1246 1193 1246 1193 1274 1179 c 128,-1,230
 1302 1165 1302 1165 1337.5 1147.5 c 128,-1,231
 1373 1130 1373 1130 1412.5 1109.5 c 128,-1,232
 1452 1089 1452 1089 1485.5 1071 c 128,-1,233
 1519 1053 1519 1053 1542 1038.5 c 128,-1,234
 1565 1024 1565 1024 1568 1018 c 1,235,-1
 1829 1280 l 1,194,195
EndSplineSet
EndChar

StartChar: uniE1BD
Encoding: 57789 57789 35
Width: 2048
Flags: W
LayerCount: 2
Fore
SplineSet
2013 1276 m 2,0,1
 2031 1258 2031 1258 2039.5 1236 c 128,-1,2
 2048 1214 2048 1214 2048 1191 c 128,-1,3
 2048 1168 2048 1168 2039.5 1146 c 128,-1,4
 2031 1124 2031 1124 2013 1107 c 2,5,-1
 1934 1027 l 2,6,7
 1917 1010 1917 1010 1895 1001 c 128,-1,8
 1873 992 1873 992 1849 992 c 0,9,10
 1799 992 1799 992 1764 1027 c 2,11,-1
 1761 1030 l 1,12,-1
 1018 287 l 1,13,-1
 1021 284 l 2,14,15
 1039 267 1039 267 1047.5 245 c 128,-1,16
 1056 223 1056 223 1056 199.5 c 128,-1,17
 1056 176 1056 176 1047.5 154 c 128,-1,18
 1039 132 1039 132 1021 114 c 2,19,-1
 941 35 l 2,20,21
 924 18 924 18 902.5 9 c 128,-1,22
 881 0 881 0 857 0 c 256,23,24
 833 0 833 0 811 9 c 128,-1,25
 789 18 789 18 772 35 c 2,26,-1
 769 38 l 1,27,-1
 768 37 l 1,28,-1
 735 71 l 1,29,-1
 677 127 l 1,30,-1
 678 128 l 1,31,-1
 327 483 l 1,32,-1
 248 640 l 1,33,-1
 154 640 l 1,34,-1
 109 595 l 1,35,-1
 19 685 l 1,36,-1
 102 768 l 1,37,-1
 185 768 l 1,38,-1
 39 1059 l 2,39,40
 21 1089 21 1089 10.5 1130 c 128,-1,41
 0 1171 0 1171 0 1216 c 0,42,43
 0 1282 0 1282 20.5 1341.5 c 128,-1,44
 41 1401 41 1401 80 1449 c 1,45,-1
 598 1964 l 1,46,47
 648 2006 648 2006 707.5 2027 c 128,-1,48
 767 2048 767 2048 832 2048 c 0,49,50
 880 2049 880 2049 920 2038 c 128,-1,51
 960 2027 960 2027 993 2007 c 2,52,-1
 1280 1862 l 1,53,-1
 1280 1946 l 1,54,-1
 1363 2029 l 1,55,-1
 1453 1939 l 1,56,-1
 1408 1893 l 1,57,-1
 1408 1797 l 1,58,-1
 1581 1709 l 1,59,-1
 1920 1371 l 1,60,-1
 1921 1371 l 1,61,-1
 1966 1324 l 1,62,-1
 2011 1280 l 1,63,-1
 2010 1279 l 1,64,-1
 2013 1276 l 2,0,1
640 512 m 256,65,66
 667 512 667 512 690 522 c 128,-1,67
 713 532 713 532 730.5 549.5 c 128,-1,68
 748 567 748 567 758 590 c 128,-1,69
 768 613 768 613 768 640 c 256,70,71
 768 667 768 667 758 690 c 128,-1,72
 748 713 748 713 730.5 730.5 c 128,-1,73
 713 748 713 748 690 758 c 128,-1,74
 667 768 667 768 640 768 c 256,75,76
 613 768 613 768 590 758 c 128,-1,77
 567 748 567 748 549.5 730.5 c 128,-1,78
 532 713 532 713 522 690 c 128,-1,79
 512 667 512 667 512 640 c 256,80,81
 512 613 512 613 522 590 c 128,-1,82
 532 567 532 567 549.5 549.5 c 128,-1,83
 567 532 567 532 590 522 c 128,-1,84
 613 512 613 512 640 512 c 256,65,66
832 384 m 256,85,86
 858 384 858 384 877 403 c 128,-1,87
 896 422 896 422 896 448 c 256,88,89
 896 474 896 474 877 493 c 128,-1,90
 858 512 858 512 832 512 c 256,91,92
 806 512 806 512 787 493 c 128,-1,93
 768 474 768 474 768 448 c 256,94,95
 768 422 768 422 787 403 c 128,-1,96
 806 384 806 384 832 384 c 256,85,86
1172 1774 m 1,97,-1
 931 1895 l 2,98,99
 910 1908 910 1908 884.5 1914 c 128,-1,100
 859 1920 859 1920 832 1920 c 0,101,102
 790 1920 790 1920 751.5 1907 c 128,-1,103
 713 1894 713 1894 684 1869 c 2,104,-1
 175 1363 l 2,105,106
 153 1336 153 1336 140.5 1298 c 128,-1,107
 128 1260 128 1260 128 1216 c 0,108,109
 128 1189 128 1189 134 1164 c 128,-1,110
 140 1139 140 1139 151 1121 c 2,111,-1
 273 876 l 1,112,-1
 1172 1774 l 1,97,-1
1477 928 m 1,113,-1
 1466 939 l 1,114,-1
 1261 1042 l 1,115,-1
 1006 787 l 1,116,-1
 1109 582 l 1,117,-1
 1120 571 l 1,118,-1
 1477 928 l 1,113,-1
1408 1280 m 256,119,120
 1435 1280 1435 1280 1458 1290 c 128,-1,121
 1481 1300 1481 1300 1498.5 1317.5 c 128,-1,122
 1516 1335 1516 1335 1526 1358 c 128,-1,123
 1536 1381 1536 1381 1536 1408 c 256,124,125
 1536 1435 1536 1435 1526 1458 c 128,-1,126
 1516 1481 1516 1481 1498.5 1498.5 c 128,-1,127
 1481 1516 1481 1516 1458 1526 c 128,-1,128
 1435 1536 1435 1536 1408 1536 c 256,129,130
 1381 1536 1381 1536 1358 1526 c 128,-1,131
 1335 1516 1335 1516 1317.5 1498.5 c 128,-1,132
 1300 1481 1300 1481 1290 1458 c 128,-1,133
 1280 1435 1280 1435 1280 1408 c 256,134,135
 1280 1381 1280 1381 1290 1358 c 128,-1,136
 1300 1335 1300 1335 1317.5 1317.5 c 128,-1,137
 1335 1300 1335 1300 1358 1290 c 128,-1,138
 1381 1280 1381 1280 1408 1280 c 256,119,120
1600 1152 m 256,139,140
 1626 1152 1626 1152 1645 1171 c 128,-1,141
 1664 1190 1664 1190 1664 1216 c 256,142,143
 1664 1242 1664 1242 1645 1261 c 128,-1,144
 1626 1280 1626 1280 1600 1280 c 256,145,146
 1574 1280 1574 1280 1555 1261 c 128,-1,147
 1536 1242 1536 1242 1536 1216 c 256,148,149
 1536 1190 1536 1190 1555 1171 c 128,-1,150
 1574 1152 1574 1152 1600 1152 c 256,139,140
EndSplineSet
EndChar

StartChar: uniE1BE
Encoding: 57790 57790 36
Width: 2048
Flags: W
LayerCount: 2
Fore
SplineSet
2019 589 m 2,0,1
 2048 525 2048 525 2048 456 c 2,2,-1
 2048 384 l 2,3,4
 2048 308 2048 308 2007 245 c 128,-1,5
 1966 182 1966 182 1897 151 c 1,6,7
 1866 82 1866 82 1803 41 c 128,-1,8
 1740 0 1740 0 1664 0 c 0,9,10
 1595 0 1595 0 1536 34 c 128,-1,11
 1477 68 1477 68 1442 128 c 1,12,-1
 734 128 l 1,13,14
 699 68 699 68 640 34 c 128,-1,15
 581 0 581 0 512 0 c 256,16,17
 443 0 443 0 384 34 c 128,-1,18
 325 68 325 68 290 128 c 1,19,-1
 128 128 l 2,20,21
 101 128 101 128 78 138 c 128,-1,22
 55 148 55 148 37.5 165.5 c 128,-1,23
 20 183 20 183 10 206 c 128,-1,24
 0 229 0 229 0 256 c 2,25,-1
 0 512 l 2,26,27
 0 592 0 592 30 662 c 128,-1,28
 60 732 60 732 112 784 c 128,-1,29
 164 836 164 836 234 866 c 128,-1,30
 304 896 304 896 384 896 c 2,31,-1
 421 896 l 1,32,-1
 749 1224 l 2,33,34
 776 1251 776 1251 811.5 1265.5 c 128,-1,35
 847 1280 847 1280 885 1280 c 2,36,-1
 1792 1280 l 1,37,-1
 1792 1152 l 1,38,-1
 1763 1152 l 1,39,-1
 2019 589 l 2,0,1
1280 1152 m 1,40,-1
 1280 896 l 1,41,-1
 1739 896 l 1,42,-1
 1640 1115 l 2,43,44
 1632 1132 1632 1132 1615.5 1142 c 128,-1,45
 1599 1152 1599 1152 1581 1152 c 2,46,-1
 1280 1152 l 1,40,-1
885 1152 m 2,47,48
 859 1152 859 1152 840 1133 c 2,49,-1
 603 896 l 1,50,-1
 1152 896 l 1,51,-1
 1152 1152 l 1,52,-1
 885 1152 l 2,47,48
512 128 m 256,53,54
 539 128 539 128 562 138 c 128,-1,55
 585 148 585 148 602.5 165.5 c 128,-1,56
 620 183 620 183 630 206 c 128,-1,57
 640 229 640 229 640 256 c 256,58,59
 640 283 640 283 630 306 c 128,-1,60
 620 329 620 329 602.5 346.5 c 128,-1,61
 585 364 585 364 562 374 c 128,-1,62
 539 384 539 384 512 384 c 256,63,64
 485 384 485 384 462 374 c 128,-1,65
 439 364 439 364 421.5 346.5 c 128,-1,66
 404 329 404 329 394 306 c 128,-1,67
 384 283 384 283 384 256 c 256,68,69
 384 229 384 229 394 206 c 128,-1,70
 404 183 404 183 421.5 165.5 c 128,-1,71
 439 148 439 148 462 138 c 128,-1,72
 485 128 485 128 512 128 c 256,53,54
512 512 m 256,73,74
 565 512 565 512 611.5 492 c 128,-1,75
 658 472 658 472 693 437 c 128,-1,76
 728 402 728 402 748 355.5 c 128,-1,77
 768 309 768 309 768 256 c 1,78,-1
 1152 256 l 1,79,-1
 1152 768 l 1,80,-1
 384 768 l 2,81,82
 331 768 331 768 284.5 748 c 128,-1,83
 238 728 238 728 203 693 c 128,-1,84
 168 658 168 658 148 611.5 c 128,-1,85
 128 565 128 565 128 512 c 2,86,-1
 128 256 l 1,87,-1
 256 256 l 1,88,89
 256 309 256 309 276 355.5 c 128,-1,90
 296 402 296 402 331 437 c 128,-1,91
 366 472 366 472 412.5 492 c 128,-1,92
 459 512 459 512 512 512 c 256,73,74
1664 128 m 256,93,94
 1691 128 1691 128 1714 138 c 128,-1,95
 1737 148 1737 148 1754.5 165.5 c 128,-1,96
 1772 183 1772 183 1782 206 c 128,-1,97
 1792 229 1792 229 1792 256 c 256,98,99
 1792 283 1792 283 1782 306 c 128,-1,100
 1772 329 1772 329 1754.5 346.5 c 128,-1,101
 1737 364 1737 364 1714 374 c 128,-1,102
 1691 384 1691 384 1664 384 c 256,103,104
 1637 384 1637 384 1614 374 c 128,-1,105
 1591 364 1591 364 1573.5 346.5 c 128,-1,106
 1556 329 1556 329 1546 306 c 128,-1,107
 1536 283 1536 283 1536 256 c 256,108,109
 1536 229 1536 229 1546 206 c 128,-1,110
 1556 183 1556 183 1573.5 165.5 c 128,-1,111
 1591 148 1591 148 1614 138 c 128,-1,112
 1637 128 1637 128 1664 128 c 256,93,94
1920 456 m 2,113,114
 1920 497 1920 497 1903 536 c 2,115,-1
 1797 768 l 1,116,-1
 1280 768 l 1,117,-1
 1280 256 l 1,118,-1
 1408 256 l 1,119,120
 1408 309 1408 309 1428 355.5 c 128,-1,121
 1448 402 1448 402 1483 437 c 128,-1,122
 1518 472 1518 472 1564.5 492 c 128,-1,123
 1611 512 1611 512 1664 512 c 0,124,125
 1706 512 1706 512 1745 499 c 128,-1,126
 1784 486 1784 486 1816 462 c 128,-1,127
 1848 438 1848 438 1872 404.5 c 128,-1,128
 1896 371 1896 371 1909 331 c 1,129,130
 1920 358 1920 358 1920 384 c 2,131,-1
 1920 456 l 2,113,114
EndSplineSet
EndChar

StartChar: uniE1EA
Encoding: 57834 57834 37
Width: 2048
Flags: W
LayerCount: 2
Fore
SplineSet
1920 768 m 1,0,-1
 2048 768 l 1,1,-1
 2048 384 l 1,2,-1
 1920 384 l 1,3,-1
 1920 0 l 1,4,-1
 128 0 l 1,5,-1
 128 1152 l 1,6,-1
 1920 1152 l 1,7,-1
 1920 768 l 1,0,-1
1792 128 m 1,8,-1
 1792 1024 l 1,9,-1
 256 1024 l 1,10,-1
 256 128 l 1,11,-1
 1792 128 l 1,8,-1
1024 896 m 1,12,-1
 1024 256 l 1,13,-1
 384 256 l 1,14,-1
 384 896 l 1,15,-1
 1024 896 l 1,12,-1
EndSplineSet
EndChar

StartChar: uniE206
Encoding: 57862 57862 38
Width: 2048
Flags: W
LayerCount: 2
Fore
SplineSet
384 0 m 1,0,-1
 128 0 l 1,1,-1
 128 256 l 1,2,-1
 384 256 l 1,3,-1
 384 0 l 1,4,-1
 384 0 l 1,0,-1
EndSplineSet
EndChar

StartChar: uniE209
Encoding: 57865 57865 39
Width: 2048
Flags: W
LayerCount: 2
Fore
SplineSet
384 0 m 1,0,-1
 128 0 l 1,1,-1
 128 256 l 1,2,-1
 384 256 l 1,3,-1
 384 0 l 1,4,-1
 384 0 l 1,0,-1
768 0 m 1,5,-1
 512 0 l 1,6,-1
 512 512 l 1,7,-1
 768 512 l 1,8,-1
 768 0 l 1,9,-1
 768 0 l 1,5,-1
1152 0 m 1,10,-1
 896 0 l 1,11,-1
 896 768 l 1,12,-1
 1152 768 l 1,13,-1
 1152 0 l 1,14,-1
 1152 0 l 1,10,-1
1536 0 m 1,15,-1
 1280 0 l 1,16,-1
 1280 1024 l 1,17,-1
 1536 1024 l 1,18,-1
 1536 0 l 1,19,-1
 1536 0 l 1,15,-1
EndSplineSet
EndChar

StartChar: uniE290
Encoding: 58000 58000 40
Width: 2048
Flags: W
LayerCount: 2
Fore
SplineSet
1408 768 m 1,0,-1
 1536 768 l 1,1,-1
 1536 384 l 1,2,-1
 1408 384 l 1,3,-1
 1408 768 l 1,0,-1
1408 128 m 1,4,-1
 1408 256 l 1,5,-1
 1536 256 l 1,6,-1
 1536 128 l 1,7,-1
 1408 128 l 1,4,-1
EndSplineSet
EndChar

StartChar: uniE291
Encoding: 58001 58001 41
Width: 606
Flags: W
LayerCount: 2
Fore
SplineSet
301 729 m 0,0,1
 368 729 368 729 424 704 c 128,-1,2
 480 679 480 679 520.5 636 c 128,-1,3
 561 593 561 593 583.5 535 c 128,-1,4
 606 477 606 477 606 412 c 256,5,6
 606 347 606 347 583 289.5 c 128,-1,7
 560 232 560 232 519.5 188 c 128,-1,8
 479 144 479 144 423 118.5 c 128,-1,9
 367 93 367 93 301 93 c 0,10,11
 236 93 236 93 180.5 119 c 128,-1,12
 125 145 125 145 85 189 c 128,-1,13
 45 233 45 233 22.5 291 c 128,-1,14
 0 349 0 349 0 412 c 0,15,16
 0 476 0 476 22.5 533.5 c 128,-1,17
 45 591 45 591 84.5 634.5 c 128,-1,18
 124 678 124 678 179.5 703.5 c 128,-1,19
 235 729 235 729 301 729 c 0,0,1
301 228 m 256,20,21
 340 228 340 228 372.5 242.5 c 128,-1,22
 405 257 405 257 428 282 c 128,-1,23
 451 307 451 307 463.5 340.5 c 128,-1,24
 476 374 476 374 476 412 c 256,25,26
 476 450 476 450 463.5 483.5 c 128,-1,27
 451 517 451 517 428 541.5 c 128,-1,28
 405 566 405 566 372.5 580.5 c 128,-1,29
 340 595 340 595 301 595 c 0,30,31
 261 595 261 595 229.5 580.5 c 128,-1,32
 198 566 198 566 176 541.5 c 128,-1,33
 154 517 154 517 142 483.5 c 128,-1,34
 130 450 130 450 130 412 c 0,35,36
 130 375 130 375 142 341.5 c 128,-1,37
 154 308 154 308 176.5 283 c 128,-1,38
 199 258 199 258 230.5 243 c 128,-1,39
 262 228 262 228 301 228 c 256,20,21
EndSplineSet
EndChar

StartChar: uniE297
Encoding: 58007 58007 42
Width: 2048
Flags: W
LayerCount: 2
Fore
SplineSet
0 0 m 1,0,-1
 640 1280 l 1,1,-1
 1280 0 l 1,2,-1
 0 0 l 1,0,-1
173 107 m 1,3,-1
 1107 107 l 1,4,-1
 640 1041 l 1,5,-1
 173 107 l 1,3,-1
1485 1293 m 1,6,-1
 1946 832 l 1,7,-1
 1485 371 l 1,8,-1
 1395 461 l 1,9,-1
 1701 768 l 1,10,-1
 1024 768 l 1,11,-1
 1024 896 l 1,12,-1
 1701 896 l 1,13,-1
 1395 1203 l 1,14,-1
 1485 1293 l 1,6,-1
EndSplineSet
EndChar

StartChar: uniE298
Encoding: 58008 58008 43
Width: 2048
Flags: W
LayerCount: 2
Fore
SplineSet
1061 0 m 1,0,-1
 2048 987 l 1,1,-1
 2048 0 l 1,2,-1
 1061 0 l 1,0,-1
1920 128 m 1,3,-1
 1920 677 l 1,4,-1
 1371 128 l 1,5,-1
 1920 128 l 1,3,-1
EndSplineSet
EndChar

StartChar: uniE2AC
Encoding: 58028 58028 44
Width: 1499
VWidth: 2249
Flags: W
LayerCount: 2
Fore
SplineSet
-28.341796875 1457.25390625 m 0,0,1
 35.658203125 1613.25390625 35.658203125 1613.25390625 164.658203125 1702.25390625 c 128,-1,2
 293.658203125 1791.25390625 293.658203125 1791.25390625 458.658203125 1799.25390625 c 128,-1,3
 623.658203125 1807.25390625 623.658203125 1807.25390625 776.658203125 1750.25390625 c 128,-1,4
 929.658203125 1693.25390625 929.658203125 1693.25390625 1017.65820312 1547.25390625 c 1,5,6
 1095.65820312 1397.25390625 1095.65820312 1397.25390625 1059.65820312 1242.25390625 c 128,-1,7
 1023.65820312 1087.25390625 1023.65820312 1087.25390625 897.658203125 979.25390625 c 1,8,-1
 769.658203125 885.25390625 l 2,9,10
 703.658203125 839.25390625 703.658203125 839.25390625 667.658203125 765.25390625 c 0,11,12
 651.658203125 727.25390625 651.658203125 727.25390625 649.658203125 686.25390625 c 128,-1,13
 647.658203125 645.25390625 647.658203125 645.25390625 647.658203125 603.25390625 c 1,14,-1
 335.658203125 603.25390625 l 1,15,-1
 335.658203125 709.25390625 l 2,16,17
 341.658203125 779.25390625 341.658203125 779.25390625 363.658203125 845.25390625 c 128,-1,18
 385.658203125 911.25390625 385.658203125 911.25390625 429.658203125 969.25390625 c 0,19,20
 481.658203125 1027.25390625 481.658203125 1027.25390625 542.658203125 1073.25390625 c 128,-1,21
 603.658203125 1119.25390625 603.658203125 1119.25390625 653.658203125 1175.25390625 c 0,22,23
 749.658203125 1307.25390625 749.658203125 1307.25390625 681.658203125 1427.25390625 c 128,-1,24
 613.658203125 1547.25390625 613.658203125 1547.25390625 449.658203125 1523.25390625 c 0,25,26
 385.658203125 1507.25390625 385.658203125 1507.25390625 341.658203125 1458.25390625 c 128,-1,27
 297.658203125 1409.25390625 297.658203125 1409.25390625 281.658203125 1345.25390625 c 2,28,-1
 273.658203125 1283.25390625 l 2,29,30
 267.658203125 1235.25390625 267.658203125 1235.25390625 269.658203125 1229.25390625 c 2,31,-1
 -70.341796875 1229.25390625 l 1,32,33
 -66.341796875 1347.25390625 -66.341796875 1347.25390625 -28.341796875 1457.25390625 c 0,0,1
681.658203125 281.25390625 m 0,34,35
 679.658203125 205.25390625 679.658203125 205.25390625 628.658203125 153.25390625 c 128,-1,36
 577.658203125 101.25390625 577.658203125 101.25390625 499.658203125 101.25390625 c 128,-1,37
 421.658203125 101.25390625 421.658203125 101.25390625 369.658203125 153.25390625 c 128,-1,38
 317.658203125 205.25390625 317.658203125 205.25390625 317.658203125 282.25390625 c 128,-1,39
 317.658203125 359.25390625 317.658203125 359.25390625 369.658203125 411.25390625 c 128,-1,40
 421.658203125 463.25390625 421.658203125 463.25390625 499.658203125 463.25390625 c 128,-1,41
 577.658203125 463.25390625 577.658203125 463.25390625 628.658203125 411.25390625 c 128,-1,42
 679.658203125 359.25390625 679.658203125 359.25390625 681.658203125 281.25390625 c 0,34,35
EndSplineSet
EndChar

StartChar: uniE2AE
Encoding: 58030 58030 45
Width: 1500
VWidth: 2250
Flags: W
LayerCount: 2
Fore
SplineSet
1136 946.5 m 1,0,1
 1136 1018.5 1136 1018.5 1120 1088.5 c 1,2,-1
 1312 1234.5 l 1,3,-1
 1168 1480.5 l 1,4,-1
 954 1398.5 l 1,5,6
 904 1450.5 904 1450.5 840 1490.5 c 1,7,-1
 872 1726.5 l 1,8,-1
 596 1798.5 l 1,9,-1
 504 1592.5 l 1,10,11
 430 1594.5 430 1594.5 354 1576.5 c 1,12,-1
 212 1760.5 l 1,13,-1
 -34 1616.5 l 1,14,-1
 46 1410.5 l 1,15,16
 -8 1358.5 -8 1358.5 -50 1290.5 c 1,17,-1
 -278 1320.5 l 1,18,-1
 -350 1044.5 l 1,19,-1
 -148 954.5 l 1,20,21
 -148 876.5 -148 876.5 -130 802.5 c 1,22,-1
 -312 660.5 l 1,23,-1
 -170 414.5 l 1,24,-1
 42 496.5 l 1,25,26
 88 450.5 88 450.5 144 414.5 c 1,27,-1
 106 182.5 l 1,28,-1
 378 100.5 l 1,29,-1
 478 310.5 l 1,30,31
 562 308.5 562 308.5 640 326.5 c 1,32,-1
 786 136.5 l 1,33,-1
 1032 278.5 l 1,34,-1
 948 498.5 l 1,35,36
 998 548.5 998 548.5 1036 608.5 c 1,37,-1
 1278 576.5 l 1,38,-1
 1350 852.5 l 1,39,-1
 1136 946.5 l 1,0,1
690 1298.5 m 1,40,41
 836 1212.5 836 1212.5 881 1061.5 c 128,-1,42
 926 910.5 926 910.5 848 758.5 c 1,43,44
 764 612.5 764 612.5 612 567.5 c 128,-1,45
 460 522.5 460 522.5 310 598.5 c 1,46,47
 164 684.5 164 684.5 119 835.5 c 128,-1,48
 74 986.5 74 986.5 150 1138.5 c 1,49,50
 236 1284.5 236 1284.5 387 1329.5 c 128,-1,51
 538 1374.5 538 1374.5 690 1298.5 c 1,40,41
628 880.5 m 0,52,53
 598 826.5 598 826.5 541 809.5 c 128,-1,54
 484 792.5 484 792.5 430 820.5 c 0,55,56
 376 852.5 376 852.5 360 908.5 c 128,-1,57
 344 964.5 344 964.5 373 1018.5 c 128,-1,58
 402 1072.5 402 1072.5 458 1089.5 c 128,-1,59
 514 1106.5 514 1106.5 570 1078.5 c 0,60,61
 624 1046.5 624 1046.5 640 990.5 c 128,-1,62
 656 934.5 656 934.5 628 880.5 c 0,52,53
EndSplineSet
EndChar

StartChar: uniE2B1
Encoding: 58033 58033 46
Width: 2036
VWidth: 2020
Flags: W
LayerCount: 2
Fore
SplineSet
1608 740.5 m 1,0,-1
 1608 912.5 l 1,1,-1
 1440 912.5 l 1,2,-1
 1440 740.5 l 1,3,-1
 1608 740.5 l 1,0,-1
1608 400.5 m 1,4,-1
 1608 568.5 l 1,5,-1
 1440 568.5 l 1,6,-1
 1440 400.5 l 1,7,-1
 1608 400.5 l 1,4,-1
1096 1424.5 m 1,8,-1
 1096 1592.5 l 1,9,-1
 928 1592.5 l 1,10,-1
 928 1424.5 l 1,11,-1
 1096 1424.5 l 1,8,-1
1096 1080.5 m 1,12,-1
 1096 1252.5 l 1,13,-1
 928 1252.5 l 1,14,-1
 928 1080.5 l 1,15,-1
 1096 1080.5 l 1,12,-1
1096 740.5 m 1,16,-1
 1096 912.5 l 1,17,-1
 928 912.5 l 1,18,-1
 928 740.5 l 1,19,-1
 1096 740.5 l 1,16,-1
1096 400.5 m 1,20,-1
 1096 568.5 l 1,21,-1
 928 568.5 l 1,22,-1
 928 400.5 l 1,23,-1
 1096 400.5 l 1,20,-1
584 1080.5 m 1,24,-1
 584 1252.5 l 1,25,-1
 416 1252.5 l 1,26,-1
 416 1080.5 l 1,27,-1
 584 1080.5 l 1,24,-1
584 740.5 m 1,28,-1
 584 912.5 l 1,29,-1
 416 912.5 l 1,30,-1
 416 740.5 l 1,31,-1
 584 740.5 l 1,28,-1
584 400.5 m 1,32,-1
 584 568.5 l 1,33,-1
 416 568.5 l 1,34,-1
 416 400.5 l 1,35,-1
 584 400.5 l 1,32,-1
1268 1080.5 m 1,36,-1
 1780 1080.5 l 1,37,-1
 1780 228.5 l 1,38,-1
 244 228.5 l 1,39,-1
 244 1424.5 l 1,40,-1
 756 1424.5 l 1,41,-1
 756 1592.5 l 1,42,-1
 1012 1848.5 l 1,43,-1
 1268 1592.5 l 1,44,-1
 1268 1080.5 l 1,36,-1
EndSplineSet
EndChar

StartChar: uniE2B2
Encoding: 58034 58034 47
Width: 2036
VWidth: 2052
Flags: W
LayerCount: 2
Fore
SplineSet
1524 772 m 1,0,-1
 1524 600 l 1,1,-1
 1352 600 l 1,2,-1
 1352 772 l 1,3,-1
 1524 772 l 1,0,-1
1524 1112 m 1,4,-1
 1524 944 l 1,5,-1
 1352 944 l 1,6,-1
 1352 1112 l 1,7,-1
 1524 1112 l 1,4,-1
1696 432 m 1,8,-1
 1696 1284 l 1,9,-1
 1012 1284 l 1,10,-1
 1012 1112 l 1,11,-1
 1184 1112 l 1,12,-1
 1184 944 l 1,13,-1
 1012 944 l 1,14,-1
 1012 772 l 1,15,-1
 1184 772 l 1,16,-1
 1184 600 l 1,17,-1
 1012 600 l 1,18,-1
 1012 432 l 1,19,-1
 1696 432 l 1,8,-1
840 1456 m 1,20,-1
 840 1624 l 1,21,-1
 672 1624 l 1,22,-1
 672 1456 l 1,23,-1
 840 1456 l 1,20,-1
840 1112 m 1,24,-1
 840 1284 l 1,25,-1
 672 1284 l 1,26,-1
 672 1112 l 1,27,-1
 840 1112 l 1,24,-1
840 772 m 1,28,-1
 840 944 l 1,29,-1
 672 944 l 1,30,-1
 672 772 l 1,31,-1
 840 772 l 1,28,-1
840 432 m 1,32,-1
 840 600 l 1,33,-1
 672 600 l 1,34,-1
 672 432 l 1,35,-1
 840 432 l 1,32,-1
500 1456 m 1,36,-1
 500 1624 l 1,37,-1
 328 1624 l 1,38,-1
 328 1456 l 1,39,-1
 500 1456 l 1,36,-1
500 1112 m 1,40,-1
 500 1284 l 1,41,-1
 328 1284 l 1,42,-1
 328 1112 l 1,43,-1
 500 1112 l 1,40,-1
500 772 m 1,44,-1
 500 944 l 1,45,-1
 328 944 l 1,46,-1
 328 772 l 1,47,-1
 500 772 l 1,44,-1
500 432 m 1,48,-1
 500 600 l 1,49,-1
 328 600 l 1,50,-1
 328 432 l 1,51,-1
 500 432 l 1,48,-1
1012 1456 m 1,52,-1
 1864 1456 l 1,53,-1
 1864 260 l 1,54,-1
 160 260 l 1,55,-1
 160 1796 l 1,56,-1
 1012 1796 l 1,57,-1
 1012 1456 l 1,52,-1
EndSplineSet
EndChar

StartChar: uniE030
Encoding: 57392 57392 48
Width: 2048
Flags: W
LayerCount: 2
Fore
SplineSet
1184 1088 m 1,0,1
 1283 1088 1283 1088 1370.5 1050.5 c 128,-1,2
 1458 1013 1458 1013 1523.5 947.5 c 128,-1,3
 1589 882 1589 882 1626.5 794.5 c 128,-1,4
 1664 707 1664 707 1664 608 c 256,5,6
 1664 509 1664 509 1626.5 421.5 c 128,-1,7
 1589 334 1589 334 1523.5 268.5 c 128,-1,8
 1458 203 1458 203 1370.5 165.5 c 128,-1,9
 1283 128 1283 128 1184 128 c 2,10,-1
 384 128 l 1,11,-1
 384 1920 l 1,12,-1
 1184 1920 l 2,13,14
 1270 1920 1270 1920 1346 1887.5 c 128,-1,15
 1422 1855 1422 1855 1478.5 1798.5 c 128,-1,16
 1535 1742 1535 1742 1567.5 1666 c 128,-1,17
 1600 1590 1600 1590 1600 1504 c 256,18,19
 1600 1418 1600 1418 1567.5 1342 c 128,-1,20
 1535 1266 1535 1266 1478.5 1209.5 c 128,-1,21
 1422 1153 1422 1153 1346 1120.5 c 128,-1,22
 1270 1088 1270 1088 1184 1088 c 1,0,1
768 1152 m 1,23,-1
 960 1152 l 2,24,25
 1012 1152 1012 1152 1059 1172.5 c 128,-1,26
 1106 1193 1106 1193 1140.5 1227.5 c 128,-1,27
 1175 1262 1175 1262 1195.5 1308.5 c 128,-1,28
 1216 1355 1216 1355 1216 1408 c 0,29,30
 1216 1460 1216 1460 1195.5 1507 c 128,-1,31
 1175 1554 1175 1554 1140.5 1588.5 c 128,-1,32
 1106 1623 1106 1623 1059 1643.5 c 128,-1,33
 1012 1664 1012 1664 960 1664 c 2,34,-1
 768 1664 l 1,35,-1
 768 1152 l 1,23,-1
1024 384 m 2,36,37
 1076 384 1076 384 1123 404.5 c 128,-1,38
 1170 425 1170 425 1204.5 459.5 c 128,-1,39
 1239 494 1239 494 1259.5 540.5 c 128,-1,40
 1280 587 1280 587 1280 640 c 0,41,42
 1280 692 1280 692 1259.5 739 c 128,-1,43
 1239 786 1239 786 1204.5 820.5 c 128,-1,44
 1170 855 1170 855 1123 875.5 c 128,-1,45
 1076 896 1076 896 1024 896 c 2,46,-1
 768 896 l 1,47,-1
 768 384 l 1,48,-1
 1024 384 l 2,36,37
EndSplineSet
EndChar

StartChar: uniE031
Encoding: 57393 57393 49
Width: 2048
Flags: W
LayerCount: 2
Fore
SplineSet
1408 1792 m 1,0,-1
 1024 1792 l 1,1,-1
 1024 256 l 1,2,-1
 1408 256 l 1,3,-1
 1408 128 l 1,4,-1
 512 128 l 1,5,-1
 512 256 l 1,6,-1
 896 256 l 1,7,-1
 896 1792 l 1,8,-1
 512 1792 l 1,9,-1
 512 1920 l 1,10,-1
 1408 1920 l 1,11,-1
 1408 1792 l 1,12,-1
 1408 1792 l 1,0,-1
EndSplineSet
EndChar

StartChar: uniE032
Encoding: 57394 57394 50
Width: 2048
Flags: W
LayerCount: 2
Fore
SplineSet
1536 1664 m 1,0,-1
 1152 1664 l 1,1,-1
 1152 384 l 1,2,-1
 1536 384 l 1,3,-1
 1536 0 l 1,4,-1
 384 0 l 1,5,-1
 384 384 l 1,6,-1
 768 384 l 1,7,-1
 768 1664 l 1,8,-1
 384 1664 l 1,9,-1
 384 2048 l 1,10,-1
 1536 2048 l 1,11,-1
 1536 1664 l 1,12,-1
 1536 1664 l 1,0,-1
EndSplineSet
EndChar

StartChar: uniE033
Encoding: 57395 57395 51
Width: 2048
Flags: W
LayerCount: 2
Fore
SplineSet
1408 2048 m 1,0,-1
 1920 2048 l 1,1,-1
 1663 1792 l 1,2,-1
 1408 2048 l 1,0,-1
637 1792 m 1,3,-1
 771 1792 l 1,4,-1
 1326 128 l 1,5,-1
 1191 128 l 1,6,-1
 1021 640 l 1,7,-1
 387 640 l 1,8,-1
 217 128 l 1,9,-1
 82 128 l 1,10,-1
 637 1792 l 1,3,-1
430 768 m 1,11,-1
 978 768 l 1,12,-1
 704 1590 l 1,13,-1
 430 768 l 1,11,-1
EndSplineSet
EndChar

StartChar: uniE034
Encoding: 57396 57396 52
Width: 2048
Flags: W
LayerCount: 2
Fore
SplineSet
637 1792 m 1,0,-1
 771 1792 l 1,1,-1
 1326 128 l 1,2,-1
 1191 128 l 1,3,-1
 1021 640 l 1,4,-1
 387 640 l 1,5,-1
 217 128 l 1,6,-1
 82 128 l 1,7,-1
 637 1792 l 1,0,-1
430 768 m 1,8,-1
 978 768 l 1,9,-1
 704 1590 l 1,10,-1
 430 768 l 1,8,-1
1665 2048 m 1,11,-1
 1920 1792 l 1,12,-1
 1408 1792 l 1,13,-1
 1665 2048 l 1,11,-1
EndSplineSet
EndChar

StartChar: uniE035
Encoding: 57397 57397 53
Width: 2048
Flags: W
LayerCount: 2
Fore
SplineSet
1411 1920 m 1,0,-1
 1966 256 l 1,1,-1
 1831 256 l 1,2,-1
 1661 768 l 1,3,-1
 1027 768 l 1,4,-1
 857 256 l 1,5,-1
 857 256 l 1,6,-1
 857 256 l 1,7,-1
 722 256 l 1,8,-1
 722 256 l 1,9,-1
 722 256 l 1,10,-1
 637 512 l 1,11,-1
 259 512 l 1,12,-1
 174 256 l 1,13,-1
 39 256 l 1,14,-1
 381 1280 l 1,15,-1
 515 1280 l 1,16,-1
 789 459 l 1,17,-1
 1277 1920 l 1,18,-1
 1411 1920 l 1,0,-1
302 640 m 1,19,-1
 594 640 l 1,20,-1
 448 1077 l 1,21,-1
 302 640 l 1,19,-1
1070 896 m 1,22,-1
 1618 896 l 1,23,-1
 1344 1717 l 1,24,-1
 1070 896 l 1,22,-1
EndSplineSet
EndChar

StartChar: uniE036
Encoding: 57398 57398 54
Width: 2048
Flags: W
LayerCount: 2
Fore
SplineSet
1664 256 m 1,0,-1
 1664 128 l 1,1,-1
 256 128 l 1,2,-1
 256 256 l 1,3,-1
 1664 256 l 1,0,-1
473 384 m 1,4,-1
 338 384 l 1,5,-1
 893 2048 l 1,6,-1
 1027 2048 l 1,7,-1
 1582 384 l 1,8,-1
 1447 384 l 1,9,-1
 1277 896 l 1,10,-1
 643 896 l 1,11,-1
 473 384 l 1,4,-1
686 1024 m 1,12,-1
 1234 1024 l 1,13,-1
 960 1845 l 1,14,-1
 686 1024 l 1,12,-1
EndSplineSet
EndChar

StartChar: uniE040
Encoding: 57408 57408 55
Width: 2048
Flags: W
LayerCount: 2
Fore
SplineSet
1101 1965 m 1,0,-1
 2042 1024 l 1,1,-1
 1101 83 l 1,2,-1
 1011 173 l 1,3,-1
 1798 960 l 1,4,-1
 0 960 l 1,5,-1
 0 1088 l 1,6,-1
 1798 1088 l 1,7,-1
 1011 1875 l 1,8,-1
 1101 1965 l 1,9,-1
 1101 1965 l 1,0,-1
EndSplineSet
EndChar

StartChar: uniE041
Encoding: 57409 57409 56
Width: 2048
Flags: W
LayerCount: 2
Fore
SplineSet
1965 1101 m 1,0,-1
 1875 1011 l 1,1,-1
 1088 1798 l 1,2,-1
 1088 0 l 1,3,-1
 960 0 l 1,4,-1
 960 1798 l 1,5,-1
 173 1011 l 1,6,-1
 83 1101 l 1,7,-1
 1024 2042 l 1,8,-1
 1965 1101 l 1,9,-1
 1965 1101 l 1,0,-1
EndSplineSet
EndChar

StartChar: uniE039
Encoding: 57401 57401 57
Width: 2048
Flags: W
LayerCount: 2
Fore
SplineSet
1760 1920 m 1,0,1
 1667 1920 1667 1920 1598 1884 c 128,-1,2
 1529 1848 1529 1848 1475.5 1788 c 128,-1,3
 1422 1728 1422 1728 1379.5 1651 c 128,-1,4
 1337 1574 1337 1574 1296 1493 c 128,-1,5
 1255 1412 1255 1412 1210.5 1332.5 c 128,-1,6
 1166 1253 1166 1253 1109.5 1188 c 128,-1,7
 1053 1123 1053 1123 980 1079.5 c 128,-1,8
 907 1036 907 1036 807 1026 c 1,9,-1
 1320 0 l 1,10,-1
 1176 0 l 1,11,-1
 664 1024 l 1,12,-1
 578 1024 l 1,13,-1
 322 0 l 1,14,-1
 190 0 l 1,15,-1
 702 2048 l 1,16,-1
 834 2048 l 1,17,-1
 610 1152 l 1,18,-1
 768 1152 l 2,19,20
 852 1152 852 1152 915 1190.5 c 128,-1,21
 978 1229 978 1229 1029 1292 c 128,-1,22
 1080 1355 1080 1355 1123 1435.5 c 128,-1,23
 1166 1516 1166 1516 1209.5 1600 c 128,-1,24
 1253 1684 1253 1684 1301 1764.5 c 128,-1,25
 1349 1845 1349 1845 1409.5 1908 c 128,-1,26
 1470 1971 1470 1971 1547.5 2009.5 c 128,-1,27
 1625 2048 1625 2048 1728 2048 c 2,28,-1
 1760 2048 l 1,29,-1
 1760 1920 l 1,0,1
EndSplineSet
EndChar

StartChar: uniE03A
Encoding: 57402 57402 58
Width: 2048
Flags: W
LayerCount: 2
Fore
SplineSet
128 1562 m 1,0,-1
 794 896 l 1,1,-1
 128 230 l 1,2,-1
 128 1562 l 1,0,-1
256 538 m 1,3,-1
 614 896 l 1,4,-1
 256 1254 l 1,5,-1
 256 538 l 1,3,-1
1792 1792 m 1,6,-1
 1792 256 l 1,7,-1
 1920 256 l 1,8,-1
 1920 128 l 1,9,-1
 1280 128 l 1,10,-1
 1280 256 l 1,11,-1
 1408 256 l 1,12,-1
 1408 1024 l 1,13,-1
 1216 1024 l 2,14,15
 1123 1024 1123 1024 1041.5 1059 c 128,-1,16
 960 1094 960 1094 899 1155 c 128,-1,17
 838 1216 838 1216 803 1297.5 c 128,-1,18
 768 1379 768 1379 768 1472 c 256,19,20
 768 1565 768 1565 803 1646.5 c 128,-1,21
 838 1728 838 1728 899 1789 c 128,-1,22
 960 1850 960 1850 1041.5 1885 c 128,-1,23
 1123 1920 1123 1920 1216 1920 c 2,24,-1
 1920 1920 l 1,25,-1
 1920 1792 l 1,26,-1
 1792 1792 l 1,6,-1
1408 1152 m 1,27,-1
 1408 1792 l 1,28,-1
 1216 1792 l 2,29,30
 1150 1792 1150 1792 1091.5 1766.5 c 128,-1,31
 1033 1741 1033 1741 989.5 1697.5 c 128,-1,32
 946 1654 946 1654 921 1596 c 128,-1,33
 896 1538 896 1538 896 1472 c 256,34,35
 896 1406 896 1406 921 1347.5 c 128,-1,36
 946 1289 946 1289 989.5 1245.5 c 128,-1,37
 1033 1202 1033 1202 1091.5 1177 c 128,-1,38
 1150 1152 1150 1152 1216 1152 c 2,39,-1
 1408 1152 l 1,27,-1
1664 256 m 1,40,-1
 1664 1792 l 1,41,-1
 1536 1792 l 1,42,-1
 1536 256 l 1,43,-1
 1664 256 l 1,40,-1
EndSplineSet
EndChar

StartChar: uniE03B
Encoding: 57403 57403 59
Width: 2048
Flags: W
LayerCount: 2
Fore
SplineSet
1152 1920 m 1,0,-1
 1152 1792 l 1,1,-1
 1024 1792 l 1,2,-1
 1024 256 l 1,3,-1
 1152 256 l 1,4,-1
 1152 128 l 1,5,-1
 512 128 l 1,6,-1
 512 256 l 1,7,-1
 640 256 l 1,8,-1
 640 1024 l 1,9,-1
 448 1024 l 2,10,11
 355 1024 355 1024 273.5 1059 c 128,-1,12
 192 1094 192 1094 131 1155 c 128,-1,13
 70 1216 70 1216 35 1297.5 c 128,-1,14
 0 1379 0 1379 0 1472 c 256,15,16
 0 1565 0 1565 35 1646.5 c 128,-1,17
 70 1728 70 1728 131 1789 c 128,-1,18
 192 1850 192 1850 273.5 1885 c 128,-1,19
 355 1920 355 1920 448 1920 c 2,20,-1
 1152 1920 l 1,0,-1
640 1152 m 1,21,-1
 640 1792 l 1,22,-1
 448 1792 l 2,23,24
 382 1792 382 1792 323.5 1766.5 c 128,-1,25
 265 1741 265 1741 221.5 1697.5 c 128,-1,26
 178 1654 178 1654 153 1596 c 128,-1,27
 128 1538 128 1538 128 1472 c 256,28,29
 128 1406 128 1406 153 1347.5 c 128,-1,30
 178 1289 178 1289 221.5 1245.5 c 128,-1,31
 265 1202 265 1202 323.5 1177 c 128,-1,32
 382 1152 382 1152 448 1152 c 2,33,-1
 640 1152 l 1,21,-1
896 256 m 1,34,-1
 896 1792 l 1,35,-1
 768 1792 l 1,36,-1
 768 256 l 1,37,-1
 896 256 l 1,34,-1
1920 1562 m 1,38,-1
 1920 230 l 1,39,-1
 1254 896 l 1,40,-1
 1920 1562 l 1,38,-1
1792 1254 m 1,41,-1
 1434 896 l 1,42,-1
 1792 538 l 1,43,-1
 1792 1254 l 1,41,-1
EndSplineSet
EndChar

StartChar: uniE03C
Encoding: 57404 57404 60
Width: 2048
Flags: W
LayerCount: 2
Fore
SplineSet
1024 2048 m 0,0,1
 1165 2048 1165 2048 1296 2011.5 c 128,-1,2
 1427 1975 1427 1975 1541 1908.5 c 128,-1,3
 1655 1842 1655 1842 1748.5 1748.5 c 128,-1,4
 1842 1655 1842 1655 1908.5 1541 c 128,-1,5
 1975 1427 1975 1427 2011.5 1296 c 128,-1,6
 2048 1165 2048 1165 2048 1024 c 0,7,8
 2048 969 2048 969 2037.5 909.5 c 128,-1,9
 2027 850 2027 850 2006 793 c 128,-1,10
 1985 736 1985 736 1953 685 c 128,-1,11
 1921 634 1921 634 1878.5 595.5 c 128,-1,12
 1836 557 1836 557 1782 534.5 c 128,-1,13
 1728 512 1728 512 1664 512 c 0,14,15
 1610 512 1610 512 1558.5 526.5 c 128,-1,16
 1507 541 1507 541 1463 568 c 128,-1,17
 1419 595 1419 595 1382.5 634 c 128,-1,18
 1346 673 1346 673 1322 722 c 1,19,20
 1292 675 1292 675 1253 636.5 c 128,-1,21
 1214 598 1214 598 1168 570 c 128,-1,22
 1122 542 1122 542 1069.5 527 c 128,-1,23
 1017 512 1017 512 960 512 c 0,24,25
 858 512 858 512 775 556.5 c 128,-1,26
 692 601 692 601 633.5 673 c 128,-1,27
 575 745 575 745 543.5 837 c 128,-1,28
 512 929 512 929 512 1024 c 256,29,30
 512 1119 512 1119 543.5 1211 c 128,-1,31
 575 1303 575 1303 633.5 1375 c 128,-1,32
 692 1447 692 1447 775 1491.5 c 128,-1,33
 858 1536 858 1536 960 1536 c 0,34,35
 1055 1536 1055 1536 1136.5 1495 c 128,-1,36
 1218 1454 1218 1454 1280 1383 c 1,37,-1
 1280 1536 l 1,38,-1
 1408 1536 l 1,39,-1
 1408 1024 l 1,40,-1
 1408 896 l 2,41,42
 1408 843 1408 843 1428 796.5 c 128,-1,43
 1448 750 1448 750 1483 715 c 128,-1,44
 1518 680 1518 680 1564.5 660 c 128,-1,45
 1611 640 1611 640 1664 640 c 0,46,47
 1708 640 1708 640 1744.5 658.5 c 128,-1,48
 1781 677 1781 677 1809.5 707.5 c 128,-1,49
 1838 738 1838 738 1859 777.5 c 128,-1,50
 1880 817 1880 817 1893.5 860 c 128,-1,51
 1907 903 1907 903 1913.5 945.5 c 128,-1,52
 1920 988 1920 988 1920 1024 c 0,53,54
 1920 1147 1920 1147 1888 1261.5 c 128,-1,55
 1856 1376 1856 1376 1797.5 1475.5 c 128,-1,56
 1739 1575 1739 1575 1657 1657 c 128,-1,57
 1575 1739 1575 1739 1475.5 1797.5 c 128,-1,58
 1376 1856 1376 1856 1261.5 1888 c 128,-1,59
 1147 1920 1147 1920 1024 1920 c 256,60,61
 901 1920 901 1920 786.5 1888 c 128,-1,62
 672 1856 672 1856 572.5 1797.5 c 128,-1,63
 473 1739 473 1739 391 1657 c 128,-1,64
 309 1575 309 1575 250.5 1475.5 c 128,-1,65
 192 1376 192 1376 160 1261.5 c 128,-1,66
 128 1147 128 1147 128 1024 c 256,67,68
 128 901 128 901 160 786.5 c 128,-1,69
 192 672 192 672 250.5 572.5 c 128,-1,70
 309 473 309 473 391 391 c 128,-1,71
 473 309 473 309 572.5 250.5 c 128,-1,72
 672 192 672 192 786 160 c 128,-1,73
 900 128 900 128 1024 128 c 0,74,75
 1202 128 1202 128 1367 196 c 1,76,-1
 1416 78 l 1,77,78
 1322 39 1322 39 1223.5 19.5 c 128,-1,79
 1125 0 1125 0 1024 0 c 0,80,81
 883 0 883 0 752 36.5 c 128,-1,82
 621 73 621 73 507 139.5 c 128,-1,83
 393 206 393 206 299.5 299.5 c 128,-1,84
 206 393 206 393 139.5 507 c 128,-1,85
 73 621 73 621 36.5 751.5 c 128,-1,86
 0 882 0 882 0 1024 c 0,87,88
 0 1165 0 1165 36.5 1296 c 128,-1,89
 73 1427 73 1427 139.5 1541 c 128,-1,90
 206 1655 206 1655 299.5 1748.5 c 128,-1,91
 393 1842 393 1842 507 1908.5 c 128,-1,92
 621 1975 621 1975 751.5 2011.5 c 128,-1,93
 882 2048 882 2048 1024 2048 c 0,0,1
960 640 m 256,94,95
 1035 640 1035 640 1094.5 674.5 c 128,-1,96
 1154 709 1154 709 1195 764 c 128,-1,97
 1236 819 1236 819 1258 887.5 c 128,-1,98
 1280 956 1280 956 1280 1024 c 256,99,100
 1280 1092 1280 1092 1258 1160.5 c 128,-1,101
 1236 1229 1236 1229 1195 1284 c 128,-1,102
 1154 1339 1154 1339 1094.5 1373.5 c 128,-1,103
 1035 1408 1035 1408 960 1408 c 256,104,105
 885 1408 885 1408 825.5 1373.5 c 128,-1,106
 766 1339 766 1339 725 1284 c 128,-1,107
 684 1229 684 1229 662 1160.5 c 128,-1,108
 640 1092 640 1092 640 1024 c 256,109,110
 640 956 640 956 662 887.5 c 128,-1,111
 684 819 684 819 725 764 c 128,-1,112
 766 709 766 709 825.5 674.5 c 128,-1,113
 885 640 885 640 960 640 c 256,94,95
EndSplineSet
EndChar

StartChar: uniE03D
Encoding: 57405 57405 61
Width: 2048
Flags: W
LayerCount: 2
Fore
SplineSet
768 0 m 1,0,-1
 768 2048 l 1,1,-1
 896 2048 l 1,2,-1
 896 0 l 1,3,-1
 768 0 l 1,0,-1
1152 2048 m 1,4,-1
 1280 2048 l 1,5,-1
 1280 0 l 1,6,-1
 1152 0 l 1,7,-1
 1152 2048 l 1,4,-1
EndSplineSet
EndChar

StartChar: uniE03E
Encoding: 57406 57406 62
Width: 2048
Flags: W
LayerCount: 2
Fore
SplineSet
128 1152 m 1,0,1
 180 1152 180 1152 227 1172.5 c 128,-1,2
 274 1193 274 1193 308.5 1227.5 c 128,-1,3
 343 1262 343 1262 363.5 1308.5 c 128,-1,4
 384 1355 384 1355 384 1408 c 0,5,6
 384 1479 384 1479 381 1550 c 128,-1,7
 378 1621 378 1621 385.5 1688.5 c 128,-1,8
 393 1756 393 1756 417.5 1819 c 128,-1,9
 442 1882 442 1882 496 1936 c 256,10,11
 550 1990 550 1990 621 2019 c 128,-1,12
 692 2048 692 2048 768 2048 c 1,13,-1
 768 1920 l 1,14,15
 715 1920 715 1920 668.5 1899.5 c 128,-1,16
 622 1879 622 1879 587.5 1844.5 c 128,-1,17
 553 1810 553 1810 532.5 1763 c 128,-1,18
 512 1716 512 1716 512 1664 c 0,19,20
 512 1608 512 1608 514 1553.5 c 128,-1,21
 516 1499 516 1499 514.5 1446.5 c 128,-1,22
 513 1394 513 1394 505 1344.5 c 128,-1,23
 497 1295 497 1295 478 1250 c 128,-1,24
 459 1205 459 1205 426 1164 c 128,-1,25
 393 1123 393 1123 341 1088 c 1,26,27
 393 1053 393 1053 426 1012 c 128,-1,28
 459 971 459 971 478 926 c 128,-1,29
 497 881 497 881 505 831.5 c 128,-1,30
 513 782 513 782 514.5 729.5 c 128,-1,31
 516 677 516 677 514 622.5 c 128,-1,32
 512 568 512 568 512 512 c 0,33,34
 512 459 512 459 532.5 412.5 c 128,-1,35
 553 366 553 366 587.5 331.5 c 128,-1,36
 622 297 622 297 668.5 276.5 c 128,-1,37
 715 256 715 256 768 256 c 1,38,-1
 768 128 l 1,39,40
 692 128 692 128 621 157 c 128,-1,41
 550 186 550 186 496 240 c 256,42,43
 442 294 442 294 417.5 357 c 128,-1,44
 393 420 393 420 385.5 487.5 c 128,-1,45
 378 555 378 555 381 626 c 128,-1,46
 384 697 384 697 384 768 c 0,47,48
 384 820 384 820 363.5 867 c 128,-1,49
 343 914 343 914 308.5 948.5 c 128,-1,50
 274 983 274 983 227 1003.5 c 128,-1,51
 180 1024 180 1024 128 1024 c 1,52,-1
 128 1152 l 1,0,1
1280 2048 m 1,53,54
 1356 2048 1356 2048 1427 2019 c 128,-1,55
 1498 1990 1498 1990 1552 1936 c 256,56,57
 1606 1882 1606 1882 1630.5 1819 c 128,-1,58
 1655 1756 1655 1756 1662.5 1688.5 c 128,-1,59
 1670 1621 1670 1621 1667 1550 c 128,-1,60
 1664 1479 1664 1479 1664 1408 c 0,61,62
 1664 1355 1664 1355 1684.5 1308.5 c 128,-1,63
 1705 1262 1705 1262 1739.5 1227.5 c 128,-1,64
 1774 1193 1774 1193 1820.5 1172.5 c 128,-1,65
 1867 1152 1867 1152 1920 1152 c 1,66,-1
 1920 1024 l 1,67,68
 1867 1024 1867 1024 1820.5 1003.5 c 128,-1,69
 1774 983 1774 983 1739.5 948.5 c 128,-1,70
 1705 914 1705 914 1684.5 867 c 128,-1,71
 1664 820 1664 820 1664 768 c 0,72,73
 1664 697 1664 697 1667 626 c 128,-1,74
 1670 555 1670 555 1662.5 487.5 c 128,-1,75
 1655 420 1655 420 1630.5 357 c 128,-1,76
 1606 294 1606 294 1552 240 c 256,77,78
 1498 186 1498 186 1427 157 c 128,-1,79
 1356 128 1356 128 1280 128 c 1,80,-1
 1280 256 l 1,81,82
 1332 256 1332 256 1379 276.5 c 128,-1,83
 1426 297 1426 297 1460.5 331.5 c 128,-1,84
 1495 366 1495 366 1515.5 412.5 c 128,-1,85
 1536 459 1536 459 1536 512 c 0,86,87
 1536 568 1536 568 1534 622.5 c 128,-1,88
 1532 677 1532 677 1533.5 729.5 c 128,-1,89
 1535 782 1535 782 1543 831.5 c 128,-1,90
 1551 881 1551 881 1570 926 c 128,-1,91
 1589 971 1589 971 1622 1012 c 128,-1,92
 1655 1053 1655 1053 1707 1088 c 1,93,94
 1655 1123 1655 1123 1622 1164 c 128,-1,95
 1589 1205 1589 1205 1570 1250 c 128,-1,96
 1551 1295 1551 1295 1543 1344.5 c 128,-1,97
 1535 1394 1535 1394 1533.5 1446.5 c 128,-1,98
 1532 1499 1532 1499 1534 1553.5 c 128,-1,99
 1536 1608 1536 1608 1536 1664 c 0,100,101
 1536 1716 1536 1716 1515.5 1763 c 128,-1,102
 1495 1810 1495 1810 1460.5 1844.5 c 128,-1,103
 1426 1879 1426 1879 1379 1899.5 c 128,-1,104
 1332 1920 1332 1920 1280 1920 c 1,105,-1
 1280 2048 l 1,53,54
EndSplineSet
EndChar

StartChar: uniE042
Encoding: 57410 57410 63
Width: 2048
Flags: W
LayerCount: 2
Fore
SplineSet
1875 1037 m 1,0,-1
 1965 947 l 1,1,-1
 1024 6 l 1,2,-1
 83 947 l 1,3,-1
 173 1037 l 1,4,-1
 960 250 l 1,5,-1
 960 2048 l 1,6,-1
 1088 2048 l 1,7,-1
 1088 250 l 1,8,-1
 1875 1037 l 1,9,-1
 1875 1037 l 1,0,-1
EndSplineSet
EndChar

StartChar: uniE043
Encoding: 57411 57411 64
Width: 2048
Flags: W
LayerCount: 2
Fore
SplineSet
1152 1536 m 2,0,1
 1307 1536 1307 1536 1446.5 1478 c 128,-1,2
 1586 1420 1586 1420 1695 1311 c 256,3,4
 1804 1202 1804 1202 1862 1062.5 c 128,-1,5
 1920 923 1920 923 1920 768 c 0,6,7
 1920 662 1920 662 1892.5 564 c 128,-1,8
 1865 466 1865 466 1815 380.5 c 128,-1,9
 1765 295 1765 295 1695 225 c 128,-1,10
 1625 155 1625 155 1539.5 105 c 128,-1,11
 1454 55 1454 55 1356 27.5 c 128,-1,12
 1258 0 1258 0 1152 0 c 2,13,-1
 256 0 l 1,14,-1
 256 128 l 1,15,-1
 1152 128 l 2,16,17
 1240 128 1240 128 1322 151 c 128,-1,18
 1404 174 1404 174 1475 215.5 c 128,-1,19
 1546 257 1546 257 1604.5 315.5 c 128,-1,20
 1663 374 1663 374 1704.5 445 c 128,-1,21
 1746 516 1746 516 1769 598 c 128,-1,22
 1792 680 1792 680 1792 768 c 256,23,24
 1792 856 1792 856 1769 938 c 128,-1,25
 1746 1020 1746 1020 1704.5 1091 c 128,-1,26
 1663 1162 1663 1162 1604.5 1220.5 c 128,-1,27
 1546 1279 1546 1279 1475 1320.5 c 128,-1,28
 1404 1362 1404 1362 1322 1385 c 128,-1,29
 1240 1408 1240 1408 1152 1408 c 2,30,-1
 331 1408 l 1,31,-1
 757 981 l 1,32,-1
 683 907 l 1,33,-1
 117 1472 l 1,34,-1
 683 2037 l 1,35,-1
 757 1963 l 1,36,-1
 331 1536 l 1,37,-1
 1152 1536 l 2,0,1
EndSplineSet
EndChar

StartChar: uniE044
Encoding: 57412 57412 65
Width: 2048
Flags: W
LayerCount: 2
Fore
SplineSet
128 128 m 1,0,-1
 128 256 l 1,1,-1
 512 256 l 1,2,-1
 512 128 l 1,3,-1
 128 128 l 1,0,-1
1197 1837 m 1,4,-1
 1946 1088 l 1,5,-1
 1197 339 l 1,6,-1
 1107 429 l 1,7,-1
 1701 1024 l 1,8,-1
 128 1024 l 1,9,-1
 128 1086 l 1,10,-1
 128 1152 l 1,11,-1
 1701 1152 l 1,12,-1
 1107 1747 l 1,13,-1
 1197 1837 l 1,4,-1
EndSplineSet
EndChar

StartChar: uniE045
Encoding: 57413 57413 66
Width: 2048
Flags: W
LayerCount: 2
Fore
SplineSet
128 128 m 1,0,-1
 128 256 l 1,1,-1
 896 256 l 1,2,-1
 896 128 l 1,3,-1
 128 128 l 1,0,-1
1197 1837 m 1,4,-1
 1946 1088 l 1,5,-1
 1197 339 l 1,6,-1
 1107 429 l 1,7,-1
 1701 1024 l 1,8,-1
 128 1024 l 1,9,-1
 128 1152 l 1,10,-1
 1701 1152 l 1,11,-1
 1107 1747 l 1,12,-1
 1197 1837 l 1,4,-1
EndSplineSet
EndChar

StartChar: uniE06A
Encoding: 57450 57450 67
Width: 2048
Flags: W
LayerCount: 2
Fore
SplineSet
0 1920 m 1,0,-1
 2048 1920 l 1,1,-1
 2048 1792 l 1,2,-1
 0 1792 l 1,3,-1
 0 1920 l 1,0,-1
256 1536 m 1,4,-1
 1792 1536 l 1,5,-1
 1792 1408 l 1,6,-1
 256 1408 l 1,7,-1
 256 1536 l 1,4,-1
256 768 m 1,8,-1
 1792 768 l 1,9,-1
 1792 640 l 1,10,-1
 256 640 l 1,11,-1
 256 768 l 1,8,-1
0 256 m 1,12,-1
 0 384 l 1,13,-1
 2048 384 l 1,14,-1
 2048 256 l 1,15,-1
 0 256 l 1,12,-1
0 1024 m 1,16,-1
 0 1152 l 1,17,-1
 2048 1152 l 1,18,-1
 2048 1024 l 1,19,-1
 0 1024 l 1,16,-1
EndSplineSet
EndChar

StartChar: uniE046
Encoding: 57414 57414 68
Width: 2048
Flags: W
LayerCount: 2
Fore
SplineSet
128 128 m 1,0,-1
 128 256 l 1,1,-1
 1408 256 l 1,2,-1
 1408 128 l 1,3,-1
 128 128 l 1,0,-1
1107 429 m 1,4,-1
 1701 1024 l 1,5,-1
 128 1024 l 1,6,-1
 128 1152 l 1,7,-1
 1701 1152 l 1,8,-1
 1107 1747 l 1,9,-1
 1197 1837 l 1,10,-1
 1946 1088 l 1,11,-1
 1197 339 l 1,12,-1
 1107 429 l 1,4,-1
EndSplineSet
EndChar

StartChar: uniE047
Encoding: 57415 57415 69
Width: 2048
Flags: W
LayerCount: 2
Fore
SplineSet
128 128 m 1,0,-1
 128 256 l 1,1,-1
 1792 256 l 1,2,-1
 1792 128 l 1,3,-1
 128 128 l 1,0,-1
1107 429 m 1,4,-1
 1701 1024 l 1,5,-1
 128 1024 l 1,6,-1
 128 1152 l 1,7,-1
 1701 1152 l 1,8,-1
 1107 1747 l 1,9,-1
 1197 1837 l 1,10,-1
 1946 1088 l 1,11,-1
 1197 339 l 1,12,-1
 1107 429 l 1,4,-1
EndSplineSet
EndChar

StartChar: uniE060
Encoding: 57440 57440 70
Width: 2048
Flags: W
LayerCount: 2
Fore
SplineSet
1294 1664 m 1,0,-1
 1294 1536 l 1,1,-1
 14 1536 l 1,2,-1
 14 1664 l 1,3,-1
 1294 1664 l 1,4,-1
 1294 1664 l 1,0,-1
1294 1152 m 1,5,-1
 14 1152 l 1,6,-1
 14 1280 l 1,7,-1
 1294 1280 l 1,8,-1
 1294 1152 l 1,9,-1
 1294 1152 l 1,5,-1
1294 768 m 1,10,-1
 14 768 l 1,11,-1
 14 896 l 1,12,-1
 1294 896 l 1,13,-1
 1294 768 l 1,14,-1
 1294 768 l 1,10,-1
1294 384 m 1,15,-1
 14 384 l 1,16,-1
 14 512 l 1,17,-1
 1294 512 l 1,18,-1
 1294 384 l 1,19,-1
 1294 384 l 1,15,-1
1694 772 m 1,20,-1
 1980 1058 l 1,21,-1
 2048 990 l 1,22,-1
 1694 636 l 1,23,-1
 1516 814 l 1,24,-1
 1584 882 l 1,25,-1
 1694 772 l 1,26,-1
 1694 772 l 1,20,-1
1694 1540 m 1,27,-1
 1980 1826 l 1,28,-1
 2048 1758 l 1,29,-1
 1694 1404 l 1,30,-1
 1516 1582 l 1,31,-1
 1584 1650 l 1,32,-1
 1694 1540 l 1,33,-1
 1694 1540 l 1,27,-1
EndSplineSet
EndChar

StartChar: uniE061
Encoding: 57441 57441 71
Width: 2048
Flags: W
LayerCount: 2
Fore
SplineSet
1024 1664 m 1,0,-1
 2048 1664 l 1,1,-1
 2048 1536 l 1,2,-1
 1024 1536 l 1,3,-1
 1024 1664 l 1,0,-1
1024 512 m 1,4,-1
 1024 640 l 1,5,-1
 2048 640 l 1,6,-1
 2048 512 l 1,7,-1
 1024 512 l 1,4,-1
1024 1024 m 1,8,-1
 1024 1152 l 1,9,-1
 2048 1152 l 1,10,-1
 2048 1024 l 1,11,-1
 1024 1024 l 1,8,-1
1792 1408 m 1,12,-1
 1792 1280 l 1,13,-1
 1024 1280 l 1,14,-1
 1024 1408 l 1,15,-1
 1792 1408 l 1,12,-1
1792 896 m 1,16,-1
 1792 768 l 1,17,-1
 1024 768 l 1,18,-1
 1024 896 l 1,19,-1
 1792 896 l 1,16,-1
413 1315 m 1,20,-1
 250 1152 l 1,21,-1
 896 1152 l 1,22,-1
 896 1024 l 1,23,-1
 250 1024 l 1,24,-1
 413 861 l 1,25,-1
 323 771 l 1,26,-1
 6 1088 l 1,27,-1
 323 1405 l 1,28,-1
 413 1315 l 1,20,-1
EndSplineSet
EndChar

StartChar: uniE062
Encoding: 57442 57442 72
Width: 2048
Flags: W
LayerCount: 2
Fore
SplineSet
1024 1664 m 1,0,-1
 2048 1664 l 1,1,-1
 2048 1536 l 1,2,-1
 1024 1536 l 1,3,-1
 1024 1664 l 1,0,-1
1024 512 m 1,4,-1
 1024 640 l 1,5,-1
 2048 640 l 1,6,-1
 2048 512 l 1,7,-1
 1024 512 l 1,4,-1
1024 1024 m 1,8,-1
 1024 1152 l 1,9,-1
 2048 1152 l 1,10,-1
 2048 1024 l 1,11,-1
 1024 1024 l 1,8,-1
1792 1408 m 1,12,-1
 1792 1280 l 1,13,-1
 1024 1280 l 1,14,-1
 1024 1408 l 1,15,-1
 1792 1408 l 1,12,-1
1792 896 m 1,16,-1
 1792 768 l 1,17,-1
 1024 768 l 1,18,-1
 1024 896 l 1,19,-1
 1792 896 l 1,16,-1
483 1315 m 1,20,-1
 573 1405 l 1,21,-1
 890 1088 l 1,22,-1
 573 771 l 1,23,-1
 483 861 l 1,24,-1
 646 1024 l 1,25,-1
 0 1024 l 1,26,-1
 0 1152 l 1,27,-1
 646 1152 l 1,28,-1
 483 1315 l 1,20,-1
EndSplineSet
EndChar

StartChar: uniE063
Encoding: 57443 57443 73
Width: 2048
Flags: W
LayerCount: 2
Fore
SplineSet
1024.0625 1664 m 1,0,-1
 0.125 1664 l 1,1,-1
 0.125 1536 l 1,2,-1
 1024.0625 1536 l 1,3,-1
 1024.0625 1664 l 1,0,-1
1024.0625 512 m 1,4,-1
 1024.0625 640 l 1,5,-1
 0.125 640 l 1,6,-1
 0.125 512 l 1,7,-1
 1024.0625 512 l 1,4,-1
1024.0625 1024 m 1,8,-1
 1024.0625 1152 l 1,9,-1
 0.125 1152 l 1,10,-1
 0.125 1024 l 1,11,-1
 1024.0625 1024 l 1,8,-1
256.109375 1408 m 1,12,-1
 256.109375 1280 l 1,13,-1
 1024.0625 1280 l 1,14,-1
 1024.0625 1408 l 1,15,-1
 256.109375 1408 l 1,12,-1
256.109375 896 m 1,16,-1
 256.109375 768 l 1,17,-1
 1024.0625 768 l 1,18,-1
 1024.0625 896 l 1,19,-1
 256.109375 896 l 1,16,-1
1565.02929688 1315 m 1,20,-1
 1475.03515625 1405 l 1,21,-1
 1158.0546875 1088 l 1,22,-1
 1475.03515625 771 l 1,23,-1
 1565.02929688 861 l 1,24,-1
 1402.0390625 1024 l 1,25,-1
 2048 1024 l 1,26,-1
 2048 1152 l 1,27,-1
 1402.0390625 1152 l 1,28,-1
 1565.02929688 1315 l 1,20,-1
EndSplineSet
EndChar

StartChar: uniE064
Encoding: 57444 57444 74
Width: 2048
Flags: W
LayerCount: 2
Fore
SplineSet
768 1536 m 1,0,-1
 2048 1536 l 1,1,-1
 2048 1408 l 1,2,-1
 768 1408 l 1,3,-1
 768 1536 l 1,0,-1
768 896 m 1,4,-1
 768 1024 l 1,5,-1
 2048 1024 l 1,6,-1
 2048 896 l 1,7,-1
 768 896 l 1,4,-1
768 384 m 1,8,-1
 768 512 l 1,9,-1
 2048 512 l 1,10,-1
 2048 384 l 1,11,-1
 768 384 l 1,8,-1
255 1280 m 1,12,-1
 0 1536 l 1,13,-1
 512 1536 l 1,14,-1
 255 1280 l 1,12,-1
EndSplineSet
EndChar

StartChar: uniE065
Encoding: 57445 57445 75
Width: 2048
Flags: W
LayerCount: 2
Fore
SplineSet
2048 1024 m 1,0,-1
 640 1024 l 1,1,-1
 640 1152 l 1,2,-1
 2048 1152 l 1,3,-1
 2048 1024 l 1,4,-1
 2048 1024 l 1,0,-1
257 1152 m 1,5,-1
 0 896 l 1,6,-1
 512 896 l 1,7,-1
 257 1152 l 1,8,-1
 257 1152 l 1,5,-1
EndSplineSet
EndChar

StartChar: uniE066
Encoding: 57446 57446 76
Width: 2048
Flags: W
LayerCount: 2
Fore
SplineSet
0 384 m 1,0,-1
 0 768 l 1,1,-1
 384 768 l 1,2,-1
 384 384 l 1,3,-1
 0 384 l 1,0,-1
128 640 m 1,4,-1
 128 512 l 1,5,-1
 256 512 l 1,6,-1
 256 640 l 1,7,-1
 128 640 l 1,4,-1
0 896 m 1,8,-1
 0 1280 l 1,9,-1
 384 1280 l 1,10,-1
 384 896 l 1,11,-1
 0 896 l 1,8,-1
128 1152 m 1,12,-1
 128 1024 l 1,13,-1
 256 1024 l 1,14,-1
 256 1152 l 1,15,-1
 128 1152 l 1,12,-1
0 1408 m 1,16,-1
 0 1792 l 1,17,-1
 384 1792 l 1,18,-1
 384 1408 l 1,19,-1
 0 1408 l 1,16,-1
128 1664 m 1,20,-1
 128 1536 l 1,21,-1
 256 1536 l 1,22,-1
 256 1664 l 1,23,-1
 128 1664 l 1,20,-1
640 1024 m 1,24,-1
 640 1152 l 1,25,-1
 2048 1152 l 1,26,-1
 2048 1024 l 1,27,-1
 640 1024 l 1,24,-1
640 1664 m 1,28,-1
 2048 1664 l 1,29,-1
 2048 1536 l 1,30,-1
 640 1536 l 1,31,-1
 640 1664 l 1,28,-1
640 512 m 1,32,-1
 640 640 l 1,33,-1
 2048 640 l 1,34,-1
 2048 512 l 1,35,-1
 640 512 l 1,32,-1
EndSplineSet
EndChar

StartChar: uniE067
Encoding: 57447 57447 77
Width: 2048
Flags: W
LayerCount: 2
Fore
SplineSet
2045 829 m 1,0,-1
 1728 1146 l 1,1,-1
 1411 829 l 1,2,-1
 1501 739 l 1,3,-1
 1663 902 l 1,4,-1
 1663 319 l 1,5,-1
 1792 319 l 1,6,-1
 1792 902 l 1,7,-1
 1955 739 l 1,8,-1
 2045 829 l 1,9,-1
 2045 829 l 1,0,-1
1792 1663 m 1,10,-1
 639 1663 l 1,11,-1
 639 1792 l 1,12,-1
 1792 1792 l 1,13,-1
 1792 1663 l 1,14,-1
 1792 1663 l 1,10,-1
1536 383 m 1,15,-1
 639 383 l 1,16,-1
 639 512 l 1,17,-1
 1536 512 l 1,18,-1
 1536 383 l 1,19,-1
 1536 383 l 1,15,-1
384 1536 m 1,20,-1
 0 1536 l 1,21,-1
 0 1920 l 1,22,-1
 384 1920 l 1,23,-1
 384 1536 l 1,24,-1
 384 1536 l 1,20,-1
128 1664 m 1,25,-1
 256 1664 l 1,26,-1
 256 1792 l 1,27,-1
 128 1792 l 1,28,-1
 128 1664 l 1,29,-1
 128 1664 l 1,25,-1
384 896 m 1,30,-1
 0 896 l 1,31,-1
 0 1280 l 1,32,-1
 384 1280 l 1,33,-1
 384 896 l 1,34,-1
 384 896 l 1,30,-1
128 1024 m 1,35,-1
 256 1024 l 1,36,-1
 256 1152 l 1,37,-1
 128 1152 l 1,38,-1
 128 1024 l 1,39,-1
 128 1024 l 1,35,-1
384 256 m 1,40,-1
 0 256 l 1,41,-1
 0 640 l 1,42,-1
 384 640 l 1,43,-1
 384 256 l 1,44,-1
 384 256 l 1,40,-1
128 384 m 1,45,-1
 256 384 l 1,46,-1
 256 512 l 1,47,-1
 128 512 l 1,48,-1
 128 384 l 1,49,-1
 128 384 l 1,45,-1
1408 1024 m 1,50,-1
 640 1024 l 1,51,-1
 640 1152 l 1,52,-1
 1536 1152 l 1,53,-1
 1408 1024 l 1,54,-1
 1408 1024 l 1,50,-1
EndSplineSet
EndChar

StartChar: uniE068
Encoding: 57448 57448 78
Width: 2048
Flags: W
LayerCount: 2
Fore
SplineSet
2048 1664 m 1,0,-1
 2048 1536 l 1,1,-1
 0 1536 l 1,2,-1
 0 1664 l 1,3,-1
 2048 1664 l 1,0,-1
0 1280 m 1,4,-1
 2048 1280 l 1,5,-1
 2048 1152 l 1,6,-1
 0 1152 l 1,7,-1
 0 1280 l 1,4,-1
1280 384 m 1,8,-1
 0 384 l 1,9,-1
 0 512 l 1,10,-1
 1280 512 l 1,11,-1
 1280 384 l 1,8,-1
1408 802 m 1,12,-1
 2048 962 l 1,13,-1
 2048 256 l 2,14,15
 2048 225 2048 225 2033.5 201.5 c 128,-1,16
 2019 178 2019 178 1995.5 161.5 c 128,-1,17
 1972 145 1972 145 1943.5 136.5 c 128,-1,18
 1915 128 1915 128 1888 128 c 256,19,20
 1861 128 1861 128 1832.5 136.5 c 128,-1,21
 1804 145 1804 145 1780.5 161.5 c 128,-1,22
 1757 178 1757 178 1742.5 201.5 c 128,-1,23
 1728 225 1728 225 1728 256 c 256,24,25
 1728 287 1728 287 1742.5 310.5 c 128,-1,26
 1757 334 1757 334 1780.5 350.5 c 128,-1,27
 1804 367 1804 367 1832.5 375.5 c 128,-1,28
 1861 384 1861 384 1888 384 c 0,29,30
 1903 384 1903 384 1920 381 c 1,31,-1
 1920 798 l 1,32,-1
 1536 702 l 1,33,-1
 1536 128 l 2,34,35
 1536 96 1536 96 1520 72 c 128,-1,36
 1504 48 1504 48 1479.5 32 c 128,-1,37
 1455 16 1455 16 1425 8 c 128,-1,38
 1395 0 1395 0 1368 0 c 256,39,40
 1341 0 1341 0 1311 8 c 128,-1,41
 1281 16 1281 16 1256.5 32 c 128,-1,42
 1232 48 1232 48 1216 72 c 128,-1,43
 1200 96 1200 96 1200 128 c 256,44,45
 1200 160 1200 160 1216 184 c 128,-1,46
 1232 208 1232 208 1256.5 224 c 128,-1,47
 1281 240 1281 240 1311 248 c 128,-1,48
 1341 256 1341 256 1368 256 c 0,49,50
 1378 256 1378 256 1388 255 c 128,-1,51
 1398 254 1398 254 1408 252 c 1,52,-1
 1408 802 l 1,12,-1
1280 768 m 1,53,-1
 0 768 l 1,54,-1
 0 896 l 1,55,-1
 1280 896 l 1,56,-1
 1280 768 l 1,53,-1
EndSplineSet
EndChar

StartChar: uniE069
Encoding: 57449 57449 79
Width: 2048
Flags: W
LayerCount: 2
Fore
SplineSet
0 1920 m 1,0,-1
 2048 1920 l 1,1,-1
 2048 1792 l 1,2,-1
 0 1792 l 1,3,-1
 0 1920 l 1,0,-1
0 256 m 1,4,-1
 0 384 l 1,5,-1
 2048 384 l 1,6,-1
 2048 256 l 1,7,-1
 0 256 l 1,4,-1
0 1024 m 1,8,-1
 0 1152 l 1,9,-1
 2048 1152 l 1,10,-1
 2048 1024 l 1,11,-1
 0 1024 l 1,8,-1
512 1408 m 1,12,-1
 512 1536 l 1,13,-1
 2048 1536 l 1,14,-1
 2048 1408 l 1,15,-1
 512 1408 l 1,12,-1
512 640 m 1,16,-1
 512 768 l 1,17,-1
 2048 768 l 1,18,-1
 2048 640 l 1,19,-1
 512 640 l 1,16,-1
EndSplineSet
EndChar

StartChar: uniE06B
Encoding: 57451 57451 80
Width: 2048
Flags: W
LayerCount: 2
Fore
SplineSet
2048 1920 m 1,0,-1
 2048 1792 l 1,1,-1
 0 1792 l 1,2,-1
 0 1920 l 1,3,-1
 2048 1920 l 1,0,-1
2048 256 m 1,4,-1
 0 256 l 1,5,-1
 0 384 l 1,6,-1
 2048 384 l 1,7,-1
 2048 256 l 1,4,-1
2048 1024 m 1,8,-1
 0 1024 l 1,9,-1
 0 1152 l 1,10,-1
 2048 1152 l 1,11,-1
 2048 1024 l 1,8,-1
1536 1408 m 1,12,-1
 0 1408 l 1,13,-1
 0 1536 l 1,14,-1
 1536 1536 l 1,15,-1
 1536 1408 l 1,12,-1
1536 640 m 1,16,-1
 0 640 l 1,17,-1
 0 768 l 1,18,-1
 1536 768 l 1,19,-1
 1536 640 l 1,16,-1
EndSplineSet
EndChar

StartChar: uniE070
Encoding: 57456 57456 81
Width: 2048
Flags: W
LayerCount: 2
Fore
SplineSet
0 2048 m 1,0,-1
 2048 2048 l 1,1,-1
 2048 0 l 1,2,-1
 0 0 l 1,3,-1
 0 2048 l 1,4,-1
 0 2048 l 1,0,-1
EndSplineSet
EndChar

StartChar: uniE071
Encoding: 57457 57457 82
Width: 2048
Flags: W
LayerCount: 2
Fore
SplineSet
0 2048 m 1,0,-1
 2048 2048 l 1,1,-1
 2048 0 l 1,2,-1
 0 0 l 1,3,-1
 0 2048 l 1,0,-1
1920 128 m 1,4,-1
 1920 1920 l 1,5,-1
 128 1920 l 1,6,-1
 128 128 l 1,7,-1
 1920 128 l 1,4,-1
EndSplineSet
EndChar

StartChar: uniE072
Encoding: 57458 57458 83
Width: 2048
Flags: W
LayerCount: 2
Fore
SplineSet
512 1536 m 1,0,-1
 1536 1536 l 1,1,-1
 1536 512 l 1,2,-1
 512 512 l 1,3,-1
 512 1536 l 1,4,-1
 512 1536 l 1,0,-1
EndSplineSet
EndChar

StartChar: uniE073
Encoding: 57459 57459 84
Width: 2048
Flags: W
LayerCount: 2
Fore
SplineSet
512 1536 m 1,0,-1
 1536 1536 l 1,1,-1
 1536 512 l 1,2,-1
 512 512 l 1,3,-1
 512 1536 l 1,0,-1
1408 640 m 1,4,-1
 1408 1408 l 1,5,-1
 640 1408 l 1,6,-1
 640 640 l 1,7,-1
 1408 640 l 1,4,-1
EndSplineSet
EndChar

StartChar: uniE06C
Encoding: 57452 57452 85
Width: 2048
Flags: W
LayerCount: 2
Fore
SplineSet
1747 1581 m 1,0,-1
 1837 1491 l 1,1,-1
 768 421 l 1,2,-1
 211 979 l 1,3,-1
 301 1069 l 1,4,-1
 768 603 l 1,5,-1
 1747 1581 l 1,6,-1
 1747 1581 l 1,0,-1
EndSplineSet
EndChar

StartChar: uniE06D
Encoding: 57453 57453 86
Width: 2048
Flags: W
LayerCount: 2
Fore
SplineSet
1805 1715 m 1,0,-1
 1115 1024 l 1,1,-1
 1805 333 l 1,2,-1
 1715 243 l 1,3,-1
 1024 933 l 1,4,-1
 333 243 l 1,5,-1
 243 333 l 1,6,-1
 933 1024 l 1,7,-1
 243 1715 l 1,8,-1
 333 1805 l 1,9,-1
 1024 1115 l 1,10,-1
 1715 1805 l 1,11,-1
 1805 1715 l 1,12,-1
 1805 1715 l 1,0,-1
EndSplineSet
EndChar

StartChar: uniE048
Encoding: 57416 57416 87
Width: 2048
Flags: W
LayerCount: 2
Fore
SplineSet
1536 0 m 1,0,-1
 384 0 l 1,1,-1
 384 128 l 1,2,-1
 1536 128 l 1,3,-1
 1536 0 l 1,0,-1
1581 851 m 1,4,-1
 960 225 l 1,5,-1
 339 851 l 1,6,-1
 429 941 l 1,7,-1
 896 471 l 1,8,-1
 896 2048 l 1,9,-1
 1024 2048 l 1,10,-1
 1024 471 l 1,11,-1
 1491 941 l 1,12,-1
 1581 851 l 1,4,-1
EndSplineSet
EndChar

StartChar: uniE06E
Encoding: 57454 57454 88
Width: 2048
Flags: W
LayerCount: 2
Fore
SplineSet
0 2048 m 1,0,-1
 2048 2048 l 1,1,-1
 2048 0 l 1,2,-1
 0 0 l 1,3,-1
 0 2048 l 1,0,-1
768 421 m 1,4,-1
 1709 1363 l 1,5,-1
 1619 1453 l 1,6,-1
 768 603 l 1,7,-1
 429 941 l 1,8,-1
 339 851 l 1,9,-1
 768 421 l 1,4,-1
EndSplineSet
EndChar

StartChar: uniE049
Encoding: 57417 57417 89
Width: 2048
Flags: W
LayerCount: 2
Fore
SplineSet
1536 2048 m 1,0,-1
 1536 1920 l 1,1,-1
 384 1920 l 1,2,-1
 384 2048 l 1,3,-1
 1536 2048 l 1,0,-1
1581 1197 m 1,4,-1
 1491 1107 l 1,5,-1
 1024 1577 l 1,6,-1
 1024 0 l 1,7,-1
 896 0 l 1,8,-1
 896 1577 l 1,9,-1
 429 1107 l 1,10,-1
 339 1197 l 1,11,-1
 960 1823 l 1,12,-1
 1581 1197 l 1,4,-1
EndSplineSet
EndChar

StartChar: uniE04A
Encoding: 57418 57418 90
Width: 2048
Flags: W
LayerCount: 2
Fore
SplineSet
1069 1549 m 1,0,-1
 979 1459 l 1,1,-1
 641 1796 l 1,2,-1
 640 0 l 1,3,-1
 512 0 l 1,4,-1
 513 1799 l 1,5,-1
 173 1459 l 1,6,-1
 83 1549 l 1,7,-1
 576 2042 l 1,8,-1
 1069 1549 l 1,0,-1
1876 589 m 1,9,-1
 1967 499 l 1,10,-1
 1474 6 l 1,11,-1
 980 499 l 1,12,-1
 1071 589 l 1,13,-1
 1409 251 l 1,14,-1
 1408 2048 l 1,15,-1
 1536 2048 l 1,16,-1
 1537 250 l 1,17,-1
 1876 589 l 1,9,-1
EndSplineSet
EndChar

StartChar: uniE04B
Encoding: 57419 57419 91
Width: 2048
Flags: W
LayerCount: 2
Fore
SplineSet
768 250 m 1,0,-1
 1075 557 l 1,1,-1
 1165 467 l 1,2,-1
 704 6 l 1,3,-1
 243 467 l 1,4,-1
 333 557 l 1,5,-1
 640 250 l 1,6,-1
 640 2048 l 1,7,-1
 768 2048 l 1,8,-1
 768 250 l 1,0,-1
1536 2048 m 1,9,-1
 1664 2048 l 1,10,-1
 1664 384 l 1,11,-1
 1536 384 l 1,12,-1
 1536 2048 l 1,9,-1
1536 0 m 1,13,-1
 1536 128 l 1,14,-1
 1664 128 l 1,15,-1
 1664 0 l 1,16,-1
 1536 0 l 1,13,-1
EndSplineSet
EndChar

StartChar: uniE1EB
Encoding: 57835 57835 92
Width: 2048
Flags: W
LayerCount: 2
Fore
SplineSet
1920 768 m 1,0,-1
 2048 768 l 1,1,-1
 2048 384 l 1,2,-1
 1920 384 l 1,3,-1
 1920 0 l 1,4,-1
 128 0 l 1,5,-1
 128 1152 l 1,6,-1
 1920 1152 l 1,7,-1
 1920 768 l 1,0,-1
1792 128 m 1,8,-1
 1792 1024 l 1,9,-1
 256 1024 l 1,10,-1
 256 128 l 1,11,-1
 1792 128 l 1,8,-1
1152 896 m 1,12,-1
 1152 256 l 1,13,-1
 384 256 l 1,14,-1
 384 896 l 1,15,-1
 1152 896 l 1,12,-1
EndSplineSet
EndChar

StartChar: uniE051
Encoding: 57425 57425 93
Width: 2048
Flags: W
LayerCount: 2
Fore
SplineSet
1581 1485 m 1,0,-1
 1491 1395 l 1,1,-1
 1089 1796 l 1,2,-1
 1088 0 l 1,3,-1
 960 0 l 1,4,-1
 961 1799 l 1,5,-1
 557 1395 l 1,6,-1
 467 1485 l 1,7,-1
 1024 2042 l 1,8,-1
 1581 1485 l 1,9,-1
 1581 1485 l 1,0,-1
EndSplineSet
EndChar

StartChar: uniE300
Encoding: 58112 58112 94
Width: 4096
Flags: W
LayerCount: 2
Fore
SplineSet
3789 1126 m 1,0,-1
 3789 819 l 1,1,-1
 3686 819 l 1,2,-1
 3686 205 l 1,3,-1
 614 205 l 1,4,-1
 614 307 l 1,5,-1
 3584 307 l 1,6,-1
 3584 1638 l 1,7,-1
 925 1638 l 1,8,9
 904 1667 904 1667 881 1691 c 128,-1,10
 858 1715 858 1715 833 1741 c 1,11,-1
 3686 1741 l 1,12,-1
 3686 1126 l 1,13,-1
 3789 1126 l 1,0,-1
1024 410 m 1,14,-1
 614 410 l 1,15,-1
 614 714 l 1,16,17
 690 734 690 734 755.5 771.5 c 128,-1,18
 821 809 821 809 873.5 860.5 c 128,-1,19
 926 912 926 912 964 977 c 128,-1,20
 1002 1042 1002 1042 1024 1117 c 1,21,-1
 1024 410 l 1,14,-1
915 1280 m 0,22,23
 915 1193 915 1193 884.5 1115.5 c 128,-1,24
 854 1038 854 1038 800 978 c 128,-1,25
 746 918 746 918 672.5 879 c 128,-1,26
 599 840 599 840 512 831 c 1,27,-1
 512 205 l 1,28,-1
 410 205 l 1,29,-1
 410 831 l 1,30,31
 323 840 323 840 249 878.5 c 128,-1,32
 175 917 175 917 121 977 c 128,-1,33
 67 1037 67 1037 36.5 1115 c 128,-1,34
 6 1193 6 1193 6 1280 c 0,35,36
 6 1371 6 1371 40.5 1454 c 128,-1,37
 75 1537 75 1537 139 1601 c 2,38,-1
 461 1923 l 1,39,-1
 782 1601 l 2,40,41
 847 1536 847 1536 881 1454 c 128,-1,42
 915 1372 915 1372 915 1280 c 0,22,23
512 923 m 1,43,44
 580 933 580 933 637.5 964 c 128,-1,45
 695 995 695 995 737 1042 c 128,-1,46
 779 1089 779 1089 802.5 1150 c 128,-1,47
 826 1211 826 1211 826 1280 c 0,48,49
 826 1353 826 1353 798 1419.5 c 128,-1,50
 770 1486 770 1486 719 1538 c 2,51,-1
 461 1796 l 1,52,-1
 203 1538 l 2,53,54
 152 1486 152 1486 124 1419.5 c 128,-1,55
 96 1353 96 1353 96 1280 c 0,56,57
 96 1210 96 1210 119.5 1149.5 c 128,-1,58
 143 1089 143 1089 185 1041.5 c 128,-1,59
 227 994 227 994 284.5 963.5 c 128,-1,60
 342 933 342 933 410 923 c 1,61,-1
 410 1536 l 1,62,-1
 512 1536 l 1,63,-1
 512 923 l 1,43,44
EndSplineSet
EndChar

StartChar: uniE301
Encoding: 58113 58113 95
Width: 4096
Flags: W
LayerCount: 2
Fore
SplineSet
1331 1536 m 1,0,-1
 1331 410 l 1,1,-1
 614 410 l 1,2,-1
 614 714 l 1,3,4
 711 739 711 739 791 793.5 c 128,-1,5
 871 848 871 848 928.5 922.5 c 128,-1,6
 986 997 986 997 1018 1088.5 c 128,-1,7
 1050 1180 1050 1180 1050 1280 c 0,8,9
 1050 1347 1050 1347 1034 1411.5 c 128,-1,10
 1018 1476 1018 1476 989 1536 c 1,11,-1
 1331 1536 l 1,0,-1
3789 1126 m 1,12,-1
 3789 819 l 1,13,-1
 3686 819 l 1,14,-1
 3686 205 l 1,15,-1
 614 205 l 1,16,-1
 614 307 l 1,17,-1
 3584 307 l 1,18,-1
 3584 1638 l 1,19,-1
 925 1638 l 1,20,21
 904 1667 904 1667 881 1691 c 128,-1,22
 858 1715 858 1715 833 1741 c 1,23,-1
 3686 1741 l 1,24,-1
 3686 1126 l 1,25,-1
 3789 1126 l 1,12,-1
915 1280 m 0,26,27
 915 1193 915 1193 884.5 1115.5 c 128,-1,28
 854 1038 854 1038 800 978 c 128,-1,29
 746 918 746 918 672.5 879 c 128,-1,30
 599 840 599 840 512 831 c 1,31,-1
 512 205 l 1,32,-1
 410 205 l 1,33,-1
 410 831 l 1,34,35
 323 840 323 840 249 878.5 c 128,-1,36
 175 917 175 917 121 977 c 128,-1,37
 67 1037 67 1037 36.5 1115 c 128,-1,38
 6 1193 6 1193 6 1280 c 0,39,40
 6 1371 6 1371 40.5 1454 c 128,-1,41
 75 1537 75 1537 139 1601 c 2,42,-1
 461 1923 l 1,43,-1
 782 1601 l 2,44,45
 847 1536 847 1536 881 1454 c 128,-1,46
 915 1372 915 1372 915 1280 c 0,26,27
512 923 m 1,47,48
 580 933 580 933 637.5 964 c 128,-1,49
 695 995 695 995 737 1042 c 128,-1,50
 779 1089 779 1089 802.5 1150 c 128,-1,51
 826 1211 826 1211 826 1280 c 0,52,53
 826 1353 826 1353 798 1419.5 c 128,-1,54
 770 1486 770 1486 719 1538 c 2,55,-1
 461 1796 l 1,56,-1
 203 1538 l 2,57,58
 152 1486 152 1486 124 1419.5 c 128,-1,59
 96 1353 96 1353 96 1280 c 0,60,61
 96 1210 96 1210 119.5 1149.5 c 128,-1,62
 143 1089 143 1089 185 1041.5 c 128,-1,63
 227 994 227 994 284.5 963.5 c 128,-1,64
 342 933 342 933 410 923 c 1,65,-1
 410 1536 l 1,66,-1
 512 1536 l 1,67,-1
 512 923 l 1,47,48
EndSplineSet
EndChar

StartChar: uniE302
Encoding: 58114 58114 96
Width: 4096
Flags: W
LayerCount: 2
Fore
SplineSet
1638 1536 m 1,0,-1
 1638 410 l 1,1,-1
 614 410 l 1,2,-1
 614 714 l 1,3,4
 711 739 711 739 791 793.5 c 128,-1,5
 871 848 871 848 928.5 922.5 c 128,-1,6
 986 997 986 997 1018 1088.5 c 128,-1,7
 1050 1180 1050 1180 1050 1280 c 0,8,9
 1050 1347 1050 1347 1034 1411.5 c 128,-1,10
 1018 1476 1018 1476 989 1536 c 1,11,-1
 1638 1536 l 1,0,-1
3789 1126 m 1,12,-1
 3789 819 l 1,13,-1
 3686 819 l 1,14,-1
 3686 205 l 1,15,-1
 614 205 l 1,16,-1
 614 307 l 1,17,-1
 3584 307 l 1,18,-1
 3584 1638 l 1,19,-1
 925 1638 l 1,20,21
 904 1667 904 1667 881 1691 c 128,-1,22
 858 1715 858 1715 833 1741 c 1,23,-1
 3686 1741 l 1,24,-1
 3686 1126 l 1,25,-1
 3789 1126 l 1,12,-1
915 1280 m 0,26,27
 915 1193 915 1193 884.5 1115.5 c 128,-1,28
 854 1038 854 1038 800 978 c 128,-1,29
 746 918 746 918 672.5 879 c 128,-1,30
 599 840 599 840 512 831 c 1,31,-1
 512 205 l 1,32,-1
 410 205 l 1,33,-1
 410 831 l 1,34,35
 323 840 323 840 249 878.5 c 128,-1,36
 175 917 175 917 121 977 c 128,-1,37
 67 1037 67 1037 36.5 1115 c 128,-1,38
 6 1193 6 1193 6 1280 c 0,39,40
 6 1371 6 1371 40.5 1454 c 128,-1,41
 75 1537 75 1537 139 1601 c 2,42,-1
 461 1923 l 1,43,-1
 782 1601 l 2,44,45
 847 1536 847 1536 881 1454 c 128,-1,46
 915 1372 915 1372 915 1280 c 0,26,27
512 923 m 1,47,48
 580 933 580 933 637.5 964 c 128,-1,49
 695 995 695 995 737 1042 c 128,-1,50
 779 1089 779 1089 802.5 1150 c 128,-1,51
 826 1211 826 1211 826 1280 c 0,52,53
 826 1353 826 1353 798 1419.5 c 128,-1,54
 770 1486 770 1486 719 1538 c 2,55,-1
 461 1796 l 1,56,-1
 203 1538 l 2,57,58
 152 1486 152 1486 124 1419.5 c 128,-1,59
 96 1353 96 1353 96 1280 c 0,60,61
 96 1210 96 1210 119.5 1149.5 c 128,-1,62
 143 1089 143 1089 185 1041.5 c 128,-1,63
 227 994 227 994 284.5 963.5 c 128,-1,64
 342 933 342 933 410 923 c 1,65,-1
 410 1536 l 1,66,-1
 512 1536 l 1,67,-1
 512 923 l 1,47,48
EndSplineSet
EndChar

StartChar: uniE303
Encoding: 58115 58115 97
Width: 4096
Flags: W
LayerCount: 2
Fore
SplineSet
1946 1536 m 1,0,-1
 1946 410 l 1,1,-1
 614 410 l 1,2,-1
 614 714 l 1,3,4
 711 739 711 739 791 793.5 c 128,-1,5
 871 848 871 848 928.5 922.5 c 128,-1,6
 986 997 986 997 1018 1088.5 c 128,-1,7
 1050 1180 1050 1180 1050 1280 c 0,8,9
 1050 1347 1050 1347 1034 1411.5 c 128,-1,10
 1018 1476 1018 1476 989 1536 c 1,11,-1
 1946 1536 l 1,0,-1
3789 1126 m 1,12,-1
 3789 819 l 1,13,-1
 3686 819 l 1,14,-1
 3686 205 l 1,15,-1
 614 205 l 1,16,-1
 614 307 l 1,17,-1
 3584 307 l 1,18,-1
 3584 1638 l 1,19,-1
 925 1638 l 1,20,21
 904 1667 904 1667 881 1691 c 128,-1,22
 858 1715 858 1715 833 1741 c 1,23,-1
 3686 1741 l 1,24,-1
 3686 1126 l 1,25,-1
 3789 1126 l 1,12,-1
915 1280 m 0,26,27
 915 1193 915 1193 884.5 1115.5 c 128,-1,28
 854 1038 854 1038 800 978 c 128,-1,29
 746 918 746 918 672.5 879 c 128,-1,30
 599 840 599 840 512 831 c 1,31,-1
 512 205 l 1,32,-1
 410 205 l 1,33,-1
 410 831 l 1,34,35
 323 840 323 840 249 878.5 c 128,-1,36
 175 917 175 917 121 977 c 128,-1,37
 67 1037 67 1037 36.5 1115 c 128,-1,38
 6 1193 6 1193 6 1280 c 0,39,40
 6 1371 6 1371 40.5 1454 c 128,-1,41
 75 1537 75 1537 139 1601 c 2,42,-1
 461 1923 l 1,43,-1
 782 1601 l 2,44,45
 847 1536 847 1536 881 1454 c 128,-1,46
 915 1372 915 1372 915 1280 c 0,26,27
512 923 m 1,47,48
 580 933 580 933 637.5 964 c 128,-1,49
 695 995 695 995 737 1042 c 128,-1,50
 779 1089 779 1089 802.5 1150 c 128,-1,51
 826 1211 826 1211 826 1280 c 0,52,53
 826 1353 826 1353 798 1419.5 c 128,-1,54
 770 1486 770 1486 719 1538 c 2,55,-1
 461 1796 l 1,56,-1
 203 1538 l 2,57,58
 152 1486 152 1486 124 1419.5 c 128,-1,59
 96 1353 96 1353 96 1280 c 0,60,61
 96 1210 96 1210 119.5 1149.5 c 128,-1,62
 143 1089 143 1089 185 1041.5 c 128,-1,63
 227 994 227 994 284.5 963.5 c 128,-1,64
 342 933 342 933 410 923 c 1,65,-1
 410 1536 l 1,66,-1
 512 1536 l 1,67,-1
 512 923 l 1,47,48
EndSplineSet
EndChar

StartChar: uniE304
Encoding: 58116 58116 98
Width: 4096
Flags: W
LayerCount: 2
Fore
SplineSet
2253 1536 m 1,0,-1
 2253 410 l 1,1,-1
 614 410 l 1,2,-1
 614 714 l 1,3,4
 711 739 711 739 791 793.5 c 128,-1,5
 871 848 871 848 928.5 922.5 c 128,-1,6
 986 997 986 997 1018 1088.5 c 128,-1,7
 1050 1180 1050 1180 1050 1280 c 0,8,9
 1050 1347 1050 1347 1034 1411.5 c 128,-1,10
 1018 1476 1018 1476 989 1536 c 1,11,-1
 2253 1536 l 1,0,-1
3789 1126 m 1,12,-1
 3789 819 l 1,13,-1
 3686 819 l 1,14,-1
 3686 205 l 1,15,-1
 614 205 l 1,16,-1
 614 307 l 1,17,-1
 3584 307 l 1,18,-1
 3584 1638 l 1,19,-1
 925 1638 l 1,20,21
 904 1667 904 1667 881 1691 c 128,-1,22
 858 1715 858 1715 833 1741 c 1,23,-1
 3686 1741 l 1,24,-1
 3686 1126 l 1,25,-1
 3789 1126 l 1,12,-1
915 1280 m 0,26,27
 915 1193 915 1193 884.5 1115.5 c 128,-1,28
 854 1038 854 1038 800 978 c 128,-1,29
 746 918 746 918 672.5 879 c 128,-1,30
 599 840 599 840 512 831 c 1,31,-1
 512 205 l 1,32,-1
 410 205 l 1,33,-1
 410 831 l 1,34,35
 323 840 323 840 249 878.5 c 128,-1,36
 175 917 175 917 121 977 c 128,-1,37
 67 1037 67 1037 36.5 1115 c 128,-1,38
 6 1193 6 1193 6 1280 c 0,39,40
 6 1371 6 1371 40.5 1454 c 128,-1,41
 75 1537 75 1537 139 1601 c 2,42,-1
 461 1923 l 1,43,-1
 782 1601 l 2,44,45
 847 1536 847 1536 881 1454 c 128,-1,46
 915 1372 915 1372 915 1280 c 0,26,27
512 923 m 1,47,48
 580 933 580 933 637.5 964 c 128,-1,49
 695 995 695 995 737 1042 c 128,-1,50
 779 1089 779 1089 802.5 1150 c 128,-1,51
 826 1211 826 1211 826 1280 c 0,52,53
 826 1353 826 1353 798 1419.5 c 128,-1,54
 770 1486 770 1486 719 1538 c 2,55,-1
 461 1796 l 1,56,-1
 203 1538 l 2,57,58
 152 1486 152 1486 124 1419.5 c 128,-1,59
 96 1353 96 1353 96 1280 c 0,60,61
 96 1210 96 1210 119.5 1149.5 c 128,-1,62
 143 1089 143 1089 185 1041.5 c 128,-1,63
 227 994 227 994 284.5 963.5 c 128,-1,64
 342 933 342 933 410 923 c 1,65,-1
 410 1536 l 1,66,-1
 512 1536 l 1,67,-1
 512 923 l 1,47,48
EndSplineSet
EndChar

StartChar: uniE305
Encoding: 58117 58117 99
Width: 4096
Flags: W
LayerCount: 2
Fore
SplineSet
2560 1536 m 1,0,-1
 2560 410 l 1,1,-1
 614 410 l 1,2,-1
 614 714 l 1,3,4
 711 739 711 739 791 793.5 c 128,-1,5
 871 848 871 848 928.5 922.5 c 128,-1,6
 986 997 986 997 1018 1088.5 c 128,-1,7
 1050 1180 1050 1180 1050 1280 c 0,8,9
 1050 1347 1050 1347 1034 1411.5 c 128,-1,10
 1018 1476 1018 1476 989 1536 c 1,11,-1
 2560 1536 l 1,0,-1
3789 1126 m 1,12,-1
 3789 819 l 1,13,-1
 3686 819 l 1,14,-1
 3686 205 l 1,15,-1
 614 205 l 1,16,-1
 614 307 l 1,17,-1
 3584 307 l 1,18,-1
 3584 1638 l 1,19,-1
 925 1638 l 1,20,21
 904 1667 904 1667 881 1691 c 128,-1,22
 858 1715 858 1715 833 1741 c 1,23,-1
 3686 1741 l 1,24,-1
 3686 1126 l 1,25,-1
 3789 1126 l 1,12,-1
915 1280 m 0,26,27
 915 1193 915 1193 884.5 1115.5 c 128,-1,28
 854 1038 854 1038 800 978 c 128,-1,29
 746 918 746 918 672.5 879 c 128,-1,30
 599 840 599 840 512 831 c 1,31,-1
 512 205 l 1,32,-1
 410 205 l 1,33,-1
 410 831 l 1,34,35
 323 840 323 840 249 878.5 c 128,-1,36
 175 917 175 917 121 977 c 128,-1,37
 67 1037 67 1037 36.5 1115 c 128,-1,38
 6 1193 6 1193 6 1280 c 0,39,40
 6 1371 6 1371 40.5 1454 c 128,-1,41
 75 1537 75 1537 139 1601 c 2,42,-1
 461 1923 l 1,43,-1
 782 1601 l 2,44,45
 847 1536 847 1536 881 1454 c 128,-1,46
 915 1372 915 1372 915 1280 c 0,26,27
512 923 m 1,47,48
 580 933 580 933 637.5 964 c 128,-1,49
 695 995 695 995 737 1042 c 128,-1,50
 779 1089 779 1089 802.5 1150 c 128,-1,51
 826 1211 826 1211 826 1280 c 0,52,53
 826 1353 826 1353 798 1419.5 c 128,-1,54
 770 1486 770 1486 719 1538 c 2,55,-1
 461 1796 l 1,56,-1
 203 1538 l 2,57,58
 152 1486 152 1486 124 1419.5 c 128,-1,59
 96 1353 96 1353 96 1280 c 0,60,61
 96 1210 96 1210 119.5 1149.5 c 128,-1,62
 143 1089 143 1089 185 1041.5 c 128,-1,63
 227 994 227 994 284.5 963.5 c 128,-1,64
 342 933 342 933 410 923 c 1,65,-1
 410 1536 l 1,66,-1
 512 1536 l 1,67,-1
 512 923 l 1,47,48
EndSplineSet
EndChar

StartChar: uniE306
Encoding: 58118 58118 100
Width: 4096
Flags: W
LayerCount: 2
Fore
SplineSet
2867 1536 m 1,0,-1
 2867 410 l 1,1,-1
 614 410 l 1,2,-1
 614 714 l 1,3,4
 711 739 711 739 791 793.5 c 128,-1,5
 871 848 871 848 928.5 922.5 c 128,-1,6
 986 997 986 997 1018 1088.5 c 128,-1,7
 1050 1180 1050 1180 1050 1280 c 0,8,9
 1050 1347 1050 1347 1034 1411.5 c 128,-1,10
 1018 1476 1018 1476 989 1536 c 1,11,-1
 2867 1536 l 1,0,-1
3789 1126 m 1,12,-1
 3789 819 l 1,13,-1
 3686 819 l 1,14,-1
 3686 205 l 1,15,-1
 614 205 l 1,16,-1
 614 307 l 1,17,-1
 3584 307 l 1,18,-1
 3584 1638 l 1,19,-1
 925 1638 l 1,20,21
 904 1667 904 1667 881 1691 c 128,-1,22
 858 1715 858 1715 833 1741 c 1,23,-1
 3686 1741 l 1,24,-1
 3686 1126 l 1,25,-1
 3789 1126 l 1,12,-1
915 1280 m 0,26,27
 915 1193 915 1193 884.5 1115.5 c 128,-1,28
 854 1038 854 1038 800 978 c 128,-1,29
 746 918 746 918 672.5 879 c 128,-1,30
 599 840 599 840 512 831 c 1,31,-1
 512 205 l 1,32,-1
 410 205 l 1,33,-1
 410 831 l 1,34,35
 323 840 323 840 249 878.5 c 128,-1,36
 175 917 175 917 121 977 c 128,-1,37
 67 1037 67 1037 36.5 1115 c 128,-1,38
 6 1193 6 1193 6 1280 c 0,39,40
 6 1371 6 1371 40.5 1454 c 128,-1,41
 75 1537 75 1537 139 1601 c 2,42,-1
 461 1923 l 1,43,-1
 782 1601 l 2,44,45
 847 1536 847 1536 881 1454 c 128,-1,46
 915 1372 915 1372 915 1280 c 0,26,27
512 923 m 1,47,48
 580 933 580 933 637.5 964 c 128,-1,49
 695 995 695 995 737 1042 c 128,-1,50
 779 1089 779 1089 802.5 1150 c 128,-1,51
 826 1211 826 1211 826 1280 c 0,52,53
 826 1353 826 1353 798 1419.5 c 128,-1,54
 770 1486 770 1486 719 1538 c 2,55,-1
 461 1796 l 1,56,-1
 203 1538 l 2,57,58
 152 1486 152 1486 124 1419.5 c 128,-1,59
 96 1353 96 1353 96 1280 c 0,60,61
 96 1210 96 1210 119.5 1149.5 c 128,-1,62
 143 1089 143 1089 185 1041.5 c 128,-1,63
 227 994 227 994 284.5 963.5 c 128,-1,64
 342 933 342 933 410 923 c 1,65,-1
 410 1536 l 1,66,-1
 512 1536 l 1,67,-1
 512 923 l 1,47,48
EndSplineSet
EndChar

StartChar: uniE307
Encoding: 58119 58119 101
Width: 4096
Flags: W
LayerCount: 2
Fore
SplineSet
3174 1536 m 1,0,-1
 3174 410 l 1,1,-1
 614 410 l 1,2,-1
 614 714 l 1,3,4
 711 739 711 739 791 793.5 c 128,-1,5
 871 848 871 848 928.5 922.5 c 128,-1,6
 986 997 986 997 1018 1088.5 c 128,-1,7
 1050 1180 1050 1180 1050 1280 c 0,8,9
 1050 1347 1050 1347 1034 1411.5 c 128,-1,10
 1018 1476 1018 1476 989 1536 c 1,11,-1
 3174 1536 l 1,0,-1
3789 1126 m 1,12,-1
 3789 819 l 1,13,-1
 3686 819 l 1,14,-1
 3686 205 l 1,15,-1
 614 205 l 1,16,-1
 614 307 l 1,17,-1
 3584 307 l 1,18,-1
 3584 1638 l 1,19,-1
 925 1638 l 1,20,21
 904 1667 904 1667 881 1691 c 128,-1,22
 858 1715 858 1715 833 1741 c 1,23,-1
 3686 1741 l 1,24,-1
 3686 1126 l 1,25,-1
 3789 1126 l 1,12,-1
915 1280 m 0,26,27
 915 1193 915 1193 884.5 1115.5 c 128,-1,28
 854 1038 854 1038 800 978 c 128,-1,29
 746 918 746 918 672.5 879 c 128,-1,30
 599 840 599 840 512 831 c 1,31,-1
 512 205 l 1,32,-1
 410 205 l 1,33,-1
 410 831 l 1,34,35
 323 840 323 840 249 878.5 c 128,-1,36
 175 917 175 917 121 977 c 128,-1,37
 67 1037 67 1037 36.5 1115 c 128,-1,38
 6 1193 6 1193 6 1280 c 0,39,40
 6 1371 6 1371 40.5 1454 c 128,-1,41
 75 1537 75 1537 139 1601 c 2,42,-1
 461 1923 l 1,43,-1
 782 1601 l 2,44,45
 847 1536 847 1536 881 1454 c 128,-1,46
 915 1372 915 1372 915 1280 c 0,26,27
512 923 m 1,47,48
 580 933 580 933 637.5 964 c 128,-1,49
 695 995 695 995 737 1042 c 128,-1,50
 779 1089 779 1089 802.5 1150 c 128,-1,51
 826 1211 826 1211 826 1280 c 0,52,53
 826 1353 826 1353 798 1419.5 c 128,-1,54
 770 1486 770 1486 719 1538 c 2,55,-1
 461 1796 l 1,56,-1
 203 1538 l 2,57,58
 152 1486 152 1486 124 1419.5 c 128,-1,59
 96 1353 96 1353 96 1280 c 0,60,61
 96 1210 96 1210 119.5 1149.5 c 128,-1,62
 143 1089 143 1089 185 1041.5 c 128,-1,63
 227 994 227 994 284.5 963.5 c 128,-1,64
 342 933 342 933 410 923 c 1,65,-1
 410 1536 l 1,66,-1
 512 1536 l 1,67,-1
 512 923 l 1,47,48
EndSplineSet
EndChar

StartChar: uniE308
Encoding: 58120 58120 102
Width: 4096
Flags: W
LayerCount: 2
Fore
SplineSet
3482 1536 m 1,0,-1
 3482 410 l 1,1,-1
 614 410 l 1,2,-1
 614 714 l 1,3,4
 711 739 711 739 791 793.5 c 128,-1,5
 871 848 871 848 928.5 922.5 c 128,-1,6
 986 997 986 997 1018 1088.5 c 128,-1,7
 1050 1180 1050 1180 1050 1280 c 0,8,9
 1050 1347 1050 1347 1034 1411.5 c 128,-1,10
 1018 1476 1018 1476 989 1536 c 1,11,-1
 3482 1536 l 1,0,-1
3789 1126 m 1,12,-1
 3789 819 l 1,13,-1
 3686 819 l 1,14,-1
 3686 205 l 1,15,-1
 614 205 l 1,16,-1
 614 307 l 1,17,-1
 3584 307 l 1,18,-1
 3584 1638 l 1,19,-1
 925 1638 l 1,20,21
 904 1667 904 1667 881 1691 c 128,-1,22
 858 1715 858 1715 833 1741 c 1,23,-1
 3686 1741 l 1,24,-1
 3686 1126 l 1,25,-1
 3789 1126 l 1,12,-1
915 1280 m 0,26,27
 915 1193 915 1193 884.5 1115.5 c 128,-1,28
 854 1038 854 1038 800 978 c 128,-1,29
 746 918 746 918 672.5 879 c 128,-1,30
 599 840 599 840 512 831 c 1,31,-1
 512 205 l 1,32,-1
 410 205 l 1,33,-1
 410 831 l 1,34,35
 323 840 323 840 249 878.5 c 128,-1,36
 175 917 175 917 121 977 c 128,-1,37
 67 1037 67 1037 36.5 1115 c 128,-1,38
 6 1193 6 1193 6 1280 c 0,39,40
 6 1371 6 1371 40.5 1454 c 128,-1,41
 75 1537 75 1537 139 1601 c 2,42,-1
 461 1923 l 1,43,-1
 782 1601 l 2,44,45
 847 1536 847 1536 881 1454 c 128,-1,46
 915 1372 915 1372 915 1280 c 0,26,27
512 923 m 1,47,48
 580 933 580 933 637.5 964 c 128,-1,49
 695 995 695 995 737 1042 c 128,-1,50
 779 1089 779 1089 802.5 1150 c 128,-1,51
 826 1211 826 1211 826 1280 c 0,52,53
 826 1353 826 1353 798 1419.5 c 128,-1,54
 770 1486 770 1486 719 1538 c 2,55,-1
 461 1796 l 1,56,-1
 203 1538 l 2,57,58
 152 1486 152 1486 124 1419.5 c 128,-1,59
 96 1353 96 1353 96 1280 c 0,60,61
 96 1210 96 1210 119.5 1149.5 c 128,-1,62
 143 1089 143 1089 185 1041.5 c 128,-1,63
 227 994 227 994 284.5 963.5 c 128,-1,64
 342 933 342 933 410 923 c 1,65,-1
 410 1536 l 1,66,-1
 512 1536 l 1,67,-1
 512 923 l 1,47,48
EndSplineSet
EndChar

StartChar: uniE309
Encoding: 58121 58121 103
Width: 2048
Flags: W
LayerCount: 2
Fore
SplineSet
1536 1792 m 1,0,-1
 1920 1792 l 1,1,-1
 1920 256 l 1,2,-1
 1536 256 l 1,3,-1
 1536 1792 l 1,0,-1
1792 384 m 1,4,-1
 1792 1664 l 1,5,-1
 1664 1664 l 1,6,-1
 1664 384 l 1,7,-1
 1792 384 l 1,4,-1
1024 256 m 1,8,-1
 1024 1408 l 1,9,-1
 1408 1408 l 1,10,-1
 1408 256 l 1,11,-1
 1024 256 l 1,8,-1
1152 1280 m 1,12,-1
 1152 384 l 1,13,-1
 1280 384 l 1,14,-1
 1280 1280 l 1,15,-1
 1152 1280 l 1,12,-1
512 256 m 1,16,-1
 512 1024 l 1,17,-1
 896 1024 l 1,18,-1
 896 256 l 1,19,-1
 512 256 l 1,16,-1
640 896 m 1,20,-1
 640 384 l 1,21,-1
 768 384 l 1,22,-1
 768 896 l 1,23,-1
 640 896 l 1,20,-1
0 256 m 1,24,-1
 0 640 l 1,25,-1
 384 640 l 1,26,-1
 384 256 l 1,27,-1
 0 256 l 1,24,-1
128 512 m 1,28,-1
 128 384 l 1,29,-1
 256 384 l 1,30,-1
 256 512 l 1,31,-1
 128 512 l 1,28,-1
EndSplineSet
EndChar

StartChar: uniE30A
Encoding: 58122 58122 104
Width: 2048
Flags: W
LayerCount: 2
Fore
SplineSet
1536 1792 m 1,0,-1
 1920 1792 l 1,1,-1
 1920 256 l 1,2,-1
 1536 256 l 1,3,-1
 1536 1792 l 1,0,-1
1792 384 m 1,4,-1
 1792 1664 l 1,5,-1
 1664 1664 l 1,6,-1
 1664 384 l 1,7,-1
 1792 384 l 1,4,-1
1024 256 m 1,8,-1
 1024 1408 l 1,9,-1
 1408 1408 l 1,10,-1
 1408 256 l 1,11,-1
 1024 256 l 1,8,-1
1152 1280 m 1,12,-1
 1152 384 l 1,13,-1
 1280 384 l 1,14,-1
 1280 1280 l 1,15,-1
 1152 1280 l 1,12,-1
512 256 m 1,16,-1
 512 1024 l 1,17,-1
 896 1024 l 1,18,-1
 896 256 l 1,19,-1
 512 256 l 1,16,-1
640 896 m 1,20,-1
 640 384 l 1,21,-1
 768 384 l 1,22,-1
 768 896 l 1,23,-1
 640 896 l 1,20,-1
0 256 m 1,24,-1
 0 640 l 1,25,-1
 384 640 l 1,26,-1
 384 256 l 1,27,-1
 0 256 l 1,24,-1
EndSplineSet
EndChar

StartChar: uniE30B
Encoding: 58123 58123 105
Width: 2048
Flags: W
LayerCount: 2
Fore
SplineSet
1536 1792 m 1,0,-1
 1920 1792 l 1,1,-1
 1920 256 l 1,2,-1
 1536 256 l 1,3,-1
 1536 1792 l 1,0,-1
1792 384 m 1,4,-1
 1792 1664 l 1,5,-1
 1664 1664 l 1,6,-1
 1664 384 l 1,7,-1
 1792 384 l 1,4,-1
1024 256 m 1,8,-1
 1024 1408 l 1,9,-1
 1408 1408 l 1,10,-1
 1408 256 l 1,11,-1
 1024 256 l 1,8,-1
1152 1280 m 1,12,-1
 1152 384 l 1,13,-1
 1280 384 l 1,14,-1
 1280 1280 l 1,15,-1
 1152 1280 l 1,12,-1
512 256 m 1,16,-1
 512 1024 l 1,17,-1
 896 1024 l 1,18,-1
 896 256 l 1,19,-1
 512 256 l 1,16,-1
0 256 m 1,20,-1
 0 640 l 1,21,-1
 384 640 l 1,22,-1
 384 256 l 1,23,-1
 0 256 l 1,20,-1
EndSplineSet
EndChar

StartChar: uniE470
Encoding: 58480 58480 146
Width: 2048
Flags: W
LayerCount: 2
Fore
SplineSet
89 1867 m 1,0,-1
 1047 1867 l 1,1,2
 1041 1628 1041 1628 971.5 1425 c 128,-1,3
 902 1222 902 1222 781 1051 c 128,-1,4
 660 880 660 880 493 739.5 c 128,-1,5
 326 599 326 599 125 485 c 1,6,-1
 2 614 l 1,7,8
 173 684 173 684 316.5 794 c 128,-1,9
 460 904 460 904 579 1044 c 0,10,11
 834 1341 834 1341 877 1726 c 1,12,-1
 89 1726 l 1,13,-1
 89 1867 l 1,0,-1
1919 1205 m 1,14,-1
 1919 1064 l 1,15,-1
 1552 1064 l 1,16,-1
 1552 1 l 1,17,-1
 1393 1 l 1,18,-1
 1394 2048 l 1,19,-1
 1552 2048 l 1,20,-1
 1552 1205 l 1,21,-1
 1919 1205 l 1,14,-1
EndSplineSet
EndChar

StartChar: uniE471
Encoding: 58481 58481 147
Width: 2048
Flags: W
LayerCount: 2
Fore
SplineSet
65 93 m 1,0,1
 189 221 189 221 271 376 c 128,-1,2
 353 531 353 531 377 710 c 0,3,4
 379 729 379 729 381.5 748 c 128,-1,5
 384 767 384 767 384 786 c 2,6,-1
 384 1408 l 1,7,-1
 1664 1408 l 1,8,-1
 1664 768 l 1,9,-1
 511 768 l 1,10,11
 494 544 494 544 403.5 354.5 c 128,-1,12
 313 165 313 165 157 4 c 1,13,-1
 65 93 l 1,0,1
1536 896 m 1,14,-1
 1536 1024 l 1,15,-1
 512 1024 l 1,16,-1
 512 896 l 1,17,-1
 1536 896 l 1,14,-1
512 1280 m 1,18,-1
 512 1152 l 1,19,-1
 1536 1152 l 1,20,-1
 1536 1280 l 1,21,-1
 512 1280 l 1,18,-1
512 640 m 1,22,-1
 1664 640 l 1,23,-1
 1664 0 l 1,24,-1
 1536 0 l 1,25,-1
 1536 128 l 1,26,-1
 640 128 l 1,27,-1
 640 0 l 1,28,-1
 512 0 l 1,29,-1
 512 640 l 1,22,-1
640 512 m 1,30,-1
 640 256 l 1,31,-1
 1536 256 l 1,32,-1
 1536 512 l 1,33,-1
 640 512 l 1,30,-1
1024 2040 m 1,34,35
 1211 1857 1211 1857 1433.5 1760.5 c 128,-1,36
 1656 1664 1656 1664 1920 1664 c 1,37,-1
 1920 1536 l 1,38,39
 1788 1536 1788 1536 1659 1560.5 c 128,-1,40
 1530 1585 1530 1585 1408 1634 c 1,41,-1
 1408 1536 l 1,42,-1
 640 1536 l 1,43,-1
 640 1634 l 1,44,45
 518 1585 518 1585 389 1560.5 c 128,-1,46
 260 1536 260 1536 128 1536 c 1,47,-1
 128 1664 l 1,48,49
 392 1664 392 1664 614 1760.5 c 128,-1,50
 836 1857 836 1857 1024 2040 c 1,34,35
1336 1664 m 1,51,52
 1251 1703 1251 1703 1173 1754 c 128,-1,53
 1095 1805 1095 1805 1024 1866 c 1,54,55
 953 1805 953 1805 875 1754 c 128,-1,56
 797 1703 797 1703 712 1664 c 1,57,-1
 1336 1664 l 1,51,52
EndSplineSet
EndChar

StartChar: uniE472
Encoding: 58482 58482 148
Width: 2048
Flags: W
LayerCount: 2
Fore
SplineSet
1792 1664 m 1,0,-1
 1792 768 l 1,1,-1
 1024 768 l 1,2,-1
 1024 0 l 1,3,-1
 896 0 l 1,4,-1
 896 768 l 1,5,-1
 128 768 l 1,6,-1
 128 1664 l 1,7,-1
 896 1664 l 1,8,-1
 896 2048 l 1,9,-1
 1024 2048 l 1,10,-1
 1024 1664 l 1,11,-1
 1792 1664 l 1,0,-1
256 896 m 1,12,-1
 896 896 l 1,13,-1
 896 1536 l 1,14,-1
 256 1536 l 1,15,-1
 256 896 l 1,12,-1
1664 896 m 1,16,-1
 1664 1536 l 1,17,-1
 1024 1536 l 1,18,-1
 1024 896 l 1,19,-1
 1664 896 l 1,16,-1
EndSplineSet
EndChar

StartChar: uniE473
Encoding: 58483 58483 149
Width: 2048
Flags: W
LayerCount: 2
Fore
SplineSet
1379 1684 m 1,0,-1
 1086 1684 l 1,1,-1
 1086 1796 l 1,2,-1
 1379 1796 l 1,3,-1
 1379 2048 l 1,4,-1
 1499 2048 l 1,5,-1
 1499 1796 l 1,6,-1
 2036 1796 l 1,7,-1
 2036 1684 l 1,8,-1
 1499 1684 l 1,9,-1
 1499 1452 l 1,10,-1
 1379 1452 l 1,11,-1
 1379 1684 l 1,0,-1
570 1684 m 1,12,-1
 31 1684 l 1,13,-1
 31 1796 l 1,14,-1
 570 1796 l 1,15,-1
 570 2048 l 1,16,-1
 690 2048 l 1,17,-1
 690 1796 l 1,18,-1
 983 1796 l 1,19,-1
 983 1684 l 1,20,-1
 690 1684 l 1,21,-1
 690 1452 l 1,22,-1
 570 1452 l 1,23,-1
 570 1684 l 1,12,-1
2010 714 m 1,24,-1
 1033 714 l 1,25,26
 999 608 999 608 943 522 c 128,-1,27
 887 436 887 436 814.5 367 c 128,-1,28
 742 298 742 298 656 245 c 128,-1,29
 570 192 570 192 475 152 c 128,-1,30
 380 112 380 112 279 84 c 128,-1,31
 178 56 178 56 77 37 c 1,32,-1
 13 145 l 1,33,34
 101 160 101 160 192 183 c 128,-1,35
 283 206 283 206 370.5 239 c 128,-1,36
 458 272 458 272 539.5 316 c 128,-1,37
 621 360 621 360 691 418.5 c 128,-1,38
 761 477 761 477 816 550 c 128,-1,39
 871 623 871 623 906 714 c 1,40,-1
 50 714 l 1,41,-1
 50 828 l 1,42,-1
 268 828 l 1,43,-1
 268 1332 l 1,44,-1
 980 1332 l 1,45,-1
 980 1550 l 1,46,-1
 1100 1550 l 1,47,-1
 1100 1332 l 1,48,-1
 1787 1332 l 1,49,-1
 1787 828 l 1,50,-1
 2010 828 l 1,51,-1
 2010 714 l 1,24,-1
937 828 m 1,52,53
 956 925 956 925 964 1022 c 128,-1,54
 972 1119 972 1119 974 1217 c 1,55,-1
 391 1217 l 1,56,-1
 391 828 l 1,57,-1
 937 828 l 1,52,53
1667 1217 m 1,58,-1
 1100 1217 l 1,59,60
 1096 1119 1096 1119 1088 1022 c 128,-1,61
 1080 925 1080 925 1066 828 c 1,62,-1
 1667 828 l 1,63,-1
 1667 1217 l 1,58,-1
1176 594 m 1,64,65
 1405 500 1405 500 1620.5 383.5 c 128,-1,66
 1836 267 1836 267 2042 130 c 1,67,-1
 1974 23 l 1,68,69
 1772 165 1772 165 1556 278.5 c 128,-1,70
 1340 392 1340 392 1112 486 c 1,71,-1
 1176 594 l 1,64,65
EndSplineSet
EndChar

StartChar: uniE474
Encoding: 58484 58484 150
Width: 2048
Flags: W
LayerCount: 2
Fore
SplineSet
444 1622 m 1,0,1
 378 1718 378 1718 292.5 1799 c 128,-1,2
 207 1880 207 1880 118 1954 c 1,3,-1
 200 2046 l 1,4,5
 290 1970 290 1970 374.5 1887.5 c 128,-1,6
 459 1805 459 1805 528 1709 c 1,7,-1
 444 1622 l 1,0,1
686 499 m 1,8,9
 766 545 766 545 844.5 598 c 128,-1,10
 923 651 923 651 995.5 710 c 128,-1,11
 1068 769 1068 769 1134 836 c 128,-1,12
 1200 903 1200 903 1256 978 c 1,13,-1
 815 978 l 1,14,-1
 815 1495 l 1,15,-1
 1319 1495 l 1,16,-1
 1319 1702 l 1,17,-1
 743 1702 l 1,18,-1
 743 1819 l 1,19,-1
 1319 1819 l 1,20,-1
 1319 2048 l 1,21,-1
 1438 2048 l 1,22,-1
 1438 1819 l 1,23,-1
 2015 1819 l 1,24,-1
 2015 1702 l 1,25,-1
 1438 1702 l 1,26,-1
 1438 1495 l 1,27,-1
 1932 1495 l 1,28,-1
 1932 978 l 1,29,-1
 1438 978 l 1,30,-1
 1438 934 l 1,31,32
 1600 847 1600 847 1746 737.5 c 128,-1,33
 1892 628 1892 628 2023 499 c 1,34,-1
 1950 403 l 1,35,36
 1896 456 1896 456 1834.5 513 c 128,-1,37
 1773 570 1773 570 1707.5 623.5 c 128,-1,38
 1642 677 1642 677 1574 725 c 128,-1,39
 1506 773 1506 773 1438 808 c 1,40,-1
 1438 301 l 1,41,-1
 1319 301 l 1,42,-1
 1319 875 l 1,43,44
 1204 730 1204 730 1062.5 613.5 c 128,-1,45
 921 497 921 497 763 403 c 1,46,-1
 686 499 l 1,8,9
1438 1093 m 1,47,-1
 1813 1093 l 1,48,-1
 1813 1378 l 1,49,-1
 1438 1378 l 1,50,-1
 1438 1093 l 1,47,-1
1319 1093 m 1,51,-1
 1319 1378 l 1,52,-1
 934 1378 l 1,53,-1
 934 1093 l 1,54,-1
 1319 1093 l 1,51,-1
456 451 m 1,55,56
 523 382 523 382 605 337.5 c 128,-1,57
 687 293 687 293 777 266.5 c 128,-1,58
 867 240 867 240 961.5 229.5 c 128,-1,59
 1056 219 1056 219 1148 219 c 2,60,-1
 2048 219 l 1,61,-1
 2017 105 l 1,62,-1
 1208 105 l 2,63,64
 1105 105 1105 105 994.5 115 c 128,-1,65
 884 125 884 125 777 152 c 128,-1,66
 670 179 670 179 572.5 227.5 c 128,-1,67
 475 276 475 276 399 353 c 1,68,69
 339 268 339 268 271.5 190.5 c 128,-1,70
 204 113 204 113 127 43 c 1,71,-1
 34 123 l 1,72,73
 206 270 206 270 323 452 c 128,-1,74
 440 634 440 634 485 858 c 1,75,-1
 104 858 l 1,76,-1
 104 971 l 1,77,78
 161 1041 161 1041 216 1110.5 c 128,-1,79
 271 1180 271 1180 327 1250 c 0,80,81
 363 1296 363 1296 400 1342.5 c 128,-1,82
 437 1389 437 1389 469 1438 c 1,83,-1
 59 1438 l 1,84,-1
 59 1550 l 1,85,-1
 606 1550 l 1,86,-1
 606 1438 l 1,87,-1
 247 971 l 1,88,-1
 604 971 l 1,89,90
 604 943 604 943 605 914.5 c 128,-1,91
 606 886 606 886 604 858 c 0,92,93
 603 844 603 844 600 835 c 128,-1,94
 597 826 597 826 593 812 c 0,95,96
 570 717 570 717 537 626.5 c 128,-1,97
 504 536 504 536 456 451 c 1,55,56
EndSplineSet
EndChar

StartChar: uniE475
Encoding: 58485 58485 151
Width: 2048
Flags: W
LayerCount: 2
Fore
SplineSet
256 2048 m 1,0,-1
 1792 2048 l 1,1,-1
 1792 0 l 1,2,-1
 1664 0 l 1,3,-1
 1664 128 l 1,4,-1
 384 128 l 1,5,-1
 384 0 l 1,6,-1
 256 0 l 1,7,-1
 256 2048 l 1,0,-1
1664 256 m 1,8,-1
 1664 1024 l 1,9,-1
 384 1024 l 1,10,-1
 384 256 l 1,11,-1
 1664 256 l 1,8,-1
1664 1152 m 1,12,-1
 1664 1920 l 1,13,-1
 384 1920 l 1,14,-1
 384 1152 l 1,15,-1
 1664 1152 l 1,12,-1
EndSplineSet
EndChar

StartChar: uniE477
Encoding: 58487 58487 152
Width: 2048
Flags: W
LayerCount: 2
Fore
SplineSet
1920 1276 m 1,0,-1
 1918 1276 l 1,1,2
 1906 1079 1906 1079 1882 886 c 128,-1,3
 1858 693 1858 693 1820 500 c 0,4,5
 1810 449 1810 449 1797 393 c 128,-1,6
 1784 337 1784 337 1765 282.5 c 128,-1,7
 1746 228 1746 228 1719.5 178.5 c 128,-1,8
 1693 129 1693 129 1656 90 c 0,9,10
 1615 47 1615 47 1561 23.5 c 128,-1,11
 1507 0 1507 0 1447 0 c 2,12,-1
 1152 0 l 1,13,-1
 1152 128 l 1,14,-1
 1447 128 l 2,15,16
 1515 128 1515 128 1563 178 c 0,17,18
 1601 218 1601 218 1632 299 c 128,-1,19
 1663 380 1663 380 1687 483 c 128,-1,20
 1711 586 1711 586 1728.5 701.5 c 128,-1,21
 1746 817 1746 817 1758.5 926 c 128,-1,22
 1771 1035 1771 1035 1778.5 1127 c 128,-1,23
 1786 1219 1786 1219 1790 1276 c 1,24,-1
 1012 1276 l 1,25,26
 989 1115 989 1115 939 961.5 c 128,-1,27
 889 808 889 808 813.5 667.5 c 128,-1,28
 738 527 738 527 637.5 401.5 c 128,-1,29
 537 276 537 276 413 170 c 1,30,-1
 413 171 l 1,31,32
 350 123 350 123 285 79.5 c 128,-1,33
 220 36 220 36 151 -2 c 1,34,-1
 91 111 l 1,35,36
 157 147 157 147 223 190 c 128,-1,37
 289 233 289 233 347 282 c 0,38,39
 432 354 432 354 506 441.5 c 128,-1,40
 580 529 580 529 641.5 626.5 c 128,-1,41
 703 724 703 724 750.5 829 c 128,-1,42
 798 934 798 934 829 1040 c 1,43,-1
 830 1041 l 1,44,45
 847 1099 847 1099 860.5 1157.5 c 128,-1,46
 874 1216 874 1216 882 1276 c 1,47,-1
 128 1276 l 1,48,-1
 128 1404 l 1,49,-1
 898 1404 l 1,50,51
 904 1465 904 1465 906.5 1530 c 128,-1,52
 909 1595 909 1595 910.5 1660.5 c 128,-1,53
 912 1726 912 1726 912 1791 c 128,-1,54
 912 1856 912 1856 912 1917 c 0,55,56
 912 1950 912 1950 912 1982.5 c 128,-1,57
 912 2015 912 2015 910 2048 c 1,58,-1
 1042 2048 l 1,59,60
 1043 2022 1043 2022 1043 1995.5 c 128,-1,61
 1043 1969 1043 1969 1043 1943 c 0,62,63
 1043 1837 1043 1837 1041.5 1732.5 c 128,-1,64
 1040 1628 1040 1628 1034 1522 c 1,65,-1
 1035 1522 l 1,66,67
 1033 1493 1033 1493 1031 1463 c 128,-1,68
 1029 1433 1029 1433 1026 1404 c 1,69,-1
 1920 1404 l 1,70,-1
 1920 1322 l 1,71,-1
 1920 1276 l 1,0,-1
EndSplineSet
EndChar

StartChar: uniE478
Encoding: 58488 58488 153
Width: 2048
Flags: W
LayerCount: 2
Fore
SplineSet
896 384 m 1,0,-1
 1024 384 l 1,1,-1
 1024 0 l 1,2,-1
 0 0 l 1,3,-1
 0 384 l 1,4,-1
 128 384 l 1,5,-1
 128 128 l 1,6,-1
 896 128 l 1,7,-1
 896 384 l 1,0,-1
2036 1408 m 1,8,9
 2036 1222 2036 1222 2037 1038.5 c 128,-1,10
 2038 855 2038 855 2038 669 c 0,11,12
 2038 637 2038 637 2037 604.5 c 128,-1,13
 2036 572 2036 572 2034 540 c 0,14,15
 2032 501 2032 501 2030 454.5 c 128,-1,16
 2028 408 2028 408 2021 362 c 128,-1,17
 2014 316 2014 316 1999 273.5 c 128,-1,18
 1984 231 1984 231 1956 200 c 0,19,20
 1925 165 1925 165 1882 146.5 c 128,-1,21
 1839 128 1839 128 1793 128 c 2,22,-1
 1664 128 l 1,23,-1
 1664 256 l 1,24,-1
 1793 256 l 2,25,26
 1833 256 1833 256 1861 286 c 0,27,28
 1876 302 1876 302 1886.5 343.5 c 128,-1,29
 1897 385 1897 385 1903.5 440 c 128,-1,30
 1910 495 1910 495 1914 557.5 c 128,-1,31
 1918 620 1918 620 1919.5 678 c 128,-1,32
 1921 736 1921 736 1921.5 783 c 128,-1,33
 1922 830 1922 830 1922 854 c 2,34,-1
 1922 1280 l 1,35,-1
 1663 1280 l 1,36,-1
 1663 1197 l 2,37,38
 1663 1060 1663 1060 1646.5 920 c 128,-1,39
 1630 780 1630 780 1595.5 643.5 c 128,-1,40
 1561 507 1561 507 1507 377.5 c 128,-1,41
 1453 248 1453 248 1378 131 c 1,42,-1
 1270 201 l 1,43,44
 1340 310 1340 310 1390 431 c 128,-1,45
 1440 552 1440 552 1472.5 679.5 c 128,-1,46
 1505 807 1505 807 1520 938 c 128,-1,47
 1535 1069 1535 1069 1535 1197 c 2,48,-1
 1535 1280 l 1,49,-1
 1280 1280 l 1,50,-1
 1280 1408 l 1,51,-1
 1536 1408 l 1,52,-1
 1544 1776 l 1,53,-1
 1663 1776 l 1,54,-1
 1657 1408 l 1,55,-1
 2036 1408 l 1,8,9
EndSplineSet
EndChar

StartChar: uniE479
Encoding: 58489 58489 154
Width: 2048
Flags: W
LayerCount: 2
Fore
SplineSet
1784 1408 m 1,0,-1
 1784 1320 l 2,1,2
 1784 1126 1784 1126 1782 934 c 128,-1,3
 1780 742 1780 742 1764 549 c 0,4,5
 1757 461 1757 461 1747.5 373 c 128,-1,6
 1738 285 1738 285 1718 200 c 0,7,8
 1707 156 1707 156 1684 119.5 c 128,-1,9
 1661 83 1661 83 1628 56.5 c 128,-1,10
 1595 30 1595 30 1554 15 c 128,-1,11
 1513 0 1513 0 1468 0 c 2,12,-1
 1024 0 l 1,13,-1
 1024 128 l 1,14,-1
 1468 128 l 2,15,16
 1514 128 1514 128 1548 156.5 c 128,-1,17
 1582 185 1582 185 1593 228 c 0,18,19
 1602 264 1602 264 1609 306 c 128,-1,20
 1616 348 1616 348 1621.5 391.5 c 128,-1,21
 1627 435 1627 435 1630.5 478 c 128,-1,22
 1634 521 1634 521 1637 559 c 0,23,24
 1652 740 1652 740 1657.5 919.5 c 128,-1,25
 1663 1099 1663 1099 1665 1280 c 1,26,-1
 258 1280 l 1,27,-1
 258 1418 l 1,28,-1
 494 1904 l 1,29,-1
 609 1848 l 1,30,-1
 395 1408 l 1,31,-1
 1784 1408 l 1,0,-1
EndSplineSet
EndChar

StartChar: uniE47A
Encoding: 58490 58490 155
Width: 2048
Flags: W
LayerCount: 2
Fore
SplineSet
364 1664 m 1,0,1
 302 1588 302 1588 225.5 1526.5 c 128,-1,2
 149 1465 149 1465 64 1417 c 1,3,-1
 0 1527 l 1,4,5
 71 1568 71 1568 140 1621.5 c 128,-1,6
 209 1675 209 1675 263 1740.5 c 128,-1,7
 317 1806 317 1806 350.5 1883 c 128,-1,8
 384 1960 384 1960 384 2048 c 1,9,-1
 512 2048 l 1,10,11
 512 1981 512 1981 495.5 1916.5 c 128,-1,12
 479 1852 479 1852 449 1792 c 1,13,-1
 1024 1792 l 1,14,-1
 1024 1664 l 1,15,-1
 731 1664 l 1,16,-1
 909 1485 l 1,17,-1
 819 1395 l 1,18,-1
 549 1664 l 1,19,-1
 364 1664 l 1,0,1
2048 1664 m 1,20,-1
 1755 1664 l 1,21,-1
 1933 1485 l 1,22,-1
 1843 1395 l 1,23,-1
 1573 1664 l 1,24,-1
 1388 1664 l 1,25,26
 1326 1588 1326 1588 1249.5 1526.5 c 128,-1,27
 1173 1465 1173 1465 1088 1417 c 1,28,-1
 1024 1527 l 1,29,30
 1095 1568 1095 1568 1164 1621.5 c 128,-1,31
 1233 1675 1233 1675 1287 1740.5 c 128,-1,32
 1341 1806 1341 1806 1374.5 1883 c 128,-1,33
 1408 1960 1408 1960 1408 2048 c 1,34,-1
 1536 2048 l 1,35,36
 1536 1981 1536 1981 1519.5 1916.5 c 128,-1,37
 1503 1852 1503 1852 1473 1792 c 1,38,-1
 2048 1792 l 1,39,-1
 2048 1664 l 1,20,-1
128 1152 m 1,40,-1
 256 1152 l 1,41,-1
 256 0 l 1,42,-1
 128 0 l 1,43,-1
 128 1152 l 1,40,-1
1536 1024 m 1,44,-1
 1536 128 l 1,45,-1
 512 128 l 1,46,-1
 512 1024 l 1,47,-1
 1536 1024 l 1,44,-1
640 896 m 1,48,-1
 640 640 l 1,49,-1
 1408 640 l 1,50,-1
 1408 896 l 1,51,-1
 640 896 l 1,48,-1
1408 256 m 1,52,-1
 1408 512 l 1,53,-1
 640 512 l 1,54,-1
 640 256 l 1,55,-1
 1408 256 l 1,52,-1
640 1280 m 1,56,-1
 1920 1280 l 1,57,-1
 1920 192 l 2,58,59
 1920 152 1920 152 1905 117 c 128,-1,60
 1890 82 1890 82 1864 56 c 128,-1,61
 1838 30 1838 30 1803 15 c 128,-1,62
 1768 0 1768 0 1728 0 c 2,63,-1
 1536 0 l 1,64,-1
 1536 128 l 1,65,-1
 1728 128 l 2,66,67
 1754 128 1754 128 1773 147 c 128,-1,68
 1792 166 1792 166 1792 192 c 2,69,-1
 1792 1152 l 1,70,-1
 640 1152 l 1,71,-1
 640 1280 l 1,56,-1
525 1229 m 1,72,-1
 435 1139 l 1,73,-1
 211 1363 l 1,74,-1
 301 1453 l 1,75,-1
 525 1229 l 1,72,-1
EndSplineSet
EndChar

StartChar: uniE47C
Encoding: 58492 58492 156
Width: 2048
Flags: W
LayerCount: 2
Fore
SplineSet
1076 1678 m 1,0,1
 1076 1524 1076 1524 1033.5 1383.5 c 128,-1,2
 991 1243 991 1243 903 1119 c 0,3,4
 862 1058 862 1058 808 1005.5 c 128,-1,5
 754 953 754 953 692 906.5 c 128,-1,6
 630 860 630 860 560.5 820.5 c 128,-1,7
 491 781 491 781 417 746 c 1,8,-1
 331 828 l 1,9,10
 589 921 589 921 749 1103 c 0,11,12
 793 1154 793 1154 827 1203 c 128,-1,13
 861 1252 861 1252 885.5 1304.5 c 128,-1,14
 910 1357 910 1357 925 1416.5 c 128,-1,15
 940 1476 940 1476 947 1548 c 1,16,-1
 424 1548 l 1,17,-1
 424 1678 l 1,18,-1
 1076 1678 l 1,0,1
1568 1874 m 1,19,-1
 1469 1776 l 1,20,-1
 1469 1286 l 1,21,-1
 1731 1286 l 1,22,-1
 1731 1155 l 1,23,-1
 1469 1155 l 1,24,-1
 1469 566 l 1,25,-1
 1339 566 l 1,26,-1
 1339 1874 l 1,27,-1
 1568 1874 l 1,19,-1
1731 305 m 1,28,-1
 364 305 l 1,29,-1
 364 436 l 1,30,-1
 1731 436 l 1,31,-1
 1731 305 l 1,28,-1
EndSplineSet
EndChar

StartChar: uniE47D
Encoding: 58493 58493 157
Width: 2048
Flags: W
LayerCount: 2
Fore
SplineSet
1347 1547 m 1,0,1
 1325 1464 1325 1464 1283 1379 c 128,-1,2
 1241 1294 1241 1294 1187 1211.5 c 128,-1,3
 1133 1129 1133 1129 1070.5 1052 c 128,-1,4
 1008 975 1008 975 944 909 c 0,5,6
 697 646 697 646 341 502 c 1,7,-1
 236 589 l 1,8,9
 542 691 542 691 764 889 c 0,10,11
 826 943 826 943 884 1003.5 c 128,-1,12
 942 1064 942 1064 993 1130 c 128,-1,13
 1044 1196 1044 1196 1084.5 1267 c 128,-1,14
 1125 1338 1125 1338 1151 1416 c 1,15,-1
 563 1416 l 1,16,-1
 627 1547 l 1,17,-1
 1347 1547 l 1,0,1
1151 305 m 1,18,-1
 1020 305 l 1,19,-1
 1674 1612 l 1,20,-1
 1870 1612 l 1,21,-1
 1740 1482 l 1,22,-1
 1511 1024 l 1,23,-1
 1788 1024 l 1,24,-1
 1723 894 l 1,25,-1
 1445 894 l 1,26,-1
 1151 305 l 1,18,-1
EndSplineSet
EndChar

StartChar: uniE47E
Encoding: 58494 58494 158
Width: 2048
Flags: W
LayerCount: 2
Fore
SplineSet
374 1612 m 1,0,-1
 1094 1612 l 1,1,2
 1094 1468 1094 1468 1078 1347 c 128,-1,3
 1062 1226 1062 1226 1028.5 1122.5 c 128,-1,4
 995 1019 995 1019 945.5 932 c 128,-1,5
 896 845 896 845 827.5 769.5 c 128,-1,6
 759 694 759 694 673 628.5 c 128,-1,7
 587 563 587 563 480 501 c 1,8,9
 445 546 445 546 400 593.5 c 128,-1,10
 355 641 355 641 309 678 c 1,11,12
 389 700 389 700 460 741 c 128,-1,13
 531 782 531 782 591 837 c 128,-1,14
 651 892 651 892 699 959 c 128,-1,15
 747 1026 747 1026 780.5 1101 c 128,-1,16
 814 1176 814 1176 831.5 1255.5 c 128,-1,17
 849 1335 849 1335 849 1417 c 1,18,-1
 374 1417 l 1,19,-1
 374 1612 l 1,0,-1
1682 1743 m 1,20,-1
 1552 1617 l 1,21,-1
 1552 1089 l 1,22,-1
 1746 1089 l 1,23,-1
 1746 894 l 1,24,-1
 1552 894 l 1,25,-1
 1552 305 l 1,26,-1
 1355 305 l 1,27,-1
 1355 1743 l 1,28,-1
 1682 1743 l 1,20,-1
EndSplineSet
EndChar

StartChar: uniE47F
Encoding: 58495 58495 159
Width: 2048
Flags: W
LayerCount: 2
Fore
SplineSet
1314 1279 m 1,0,-1
 1314 762 l 1,1,-1
 1198 762 l 1,2,-1
 1198 1743 l 1,3,-1
 1314 1743 l 1,4,-1
 1314 1351 l 1,5,-1
 1482 1351 l 1,6,-1
 1482 1279 l 1,7,-1
 1314 1279 l 1,0,-1
1063 1613 m 1,8,9
 1051 1167 1051 1167 592 907 c 1,10,-1
 530 973 l 1,11,12
 694 1040 694 1040 825 1193 c 0,13,14
 857 1230 857 1230 883 1267 c 128,-1,15
 909 1304 909 1304 928 1342.5 c 128,-1,16
 947 1381 947 1381 959.5 1423 c 128,-1,17
 972 1465 972 1465 977 1514 c 1,18,-1
 575 1514 l 1,19,-1
 575 1613 l 1,20,-1
 1063 1613 l 1,8,9
1576 371 m 1,21,-1
 466 371 l 1,22,-1
 466 566 l 1,23,-1
 1576 566 l 1,24,-1
 1576 371 l 1,21,-1
EndSplineSet
EndChar

StartChar: uniE480
Encoding: 58496 58496 160
Width: 2048
Flags: W
LayerCount: 2
Fore
SplineSet
1946 813 m 0,0,1
 1963 813 1963 813 1963 795 c 2,2,-1
 1963 720 l 2,3,4
 1963 705 1963 705 1946 705 c 0,5,6
 1868 706 1868 706 1791.5 707.5 c 128,-1,7
 1715 709 1715 709 1637 709 c 2,8,-1
 1033 709 l 1,9,-1
 1033 526 l 2,10,11
 1033 436 1033 436 1033.5 347 c 128,-1,12
 1034 258 1034 258 1035 168 c 0,13,14
 1035 134 1035 134 1026.5 99 c 128,-1,15
 1018 64 1018 64 991 41 c 0,16,17
 974 27 974 27 944.5 18.5 c 128,-1,18
 915 10 915 10 882.5 6 c 128,-1,19
 850 2 850 2 819 1 c 128,-1,20
 788 0 788 0 767 0 c 0,21,22
 716 0 716 0 689 0 c 128,-1,23
 662 0 662 0 649 3 c 128,-1,24
 636 6 636 6 632 13 c 128,-1,25
 628 20 628 20 624.5 33.5 c 128,-1,26
 621 47 621 47 613 68.5 c 128,-1,27
 605 90 605 90 583 122 c 1,28,29
 643 115 643 115 702 111.5 c 128,-1,30
 761 108 761 108 821 108 c 0,31,32
 848 108 848 108 867.5 111.5 c 128,-1,33
 887 115 887 115 900 125 c 128,-1,34
 913 135 913 135 919 153 c 128,-1,35
 925 171 925 171 925 200 c 2,36,-1
 925 709 l 1,37,-1
 326 709 l 2,38,39
 248 709 248 709 171 707.5 c 128,-1,40
 94 706 94 706 16 705 c 0,41,42
 0 705 0 705 0 720 c 2,43,-1
 0 795 l 2,44,45
 0 813 0 813 16 813 c 0,46,47
 94 811 94 811 171 809.5 c 128,-1,48
 248 808 248 808 326 808 c 2,49,-1
 925 808 l 1,50,51
 925 867 925 867 923.5 929 c 128,-1,52
 922 991 922 991 909 1049 c 1,53,54
 937 1044 937 1044 964.5 1037.5 c 128,-1,55
 992 1031 992 1031 1019 1023 c 1,56,57
 1122 1083 1122 1083 1218.5 1152.5 c 128,-1,58
 1315 1222 1315 1222 1401 1305 c 1,59,-1
 682 1305 l 2,60,61
 605 1305 605 1305 528.5 1303.5 c 128,-1,62
 452 1302 452 1302 375 1301 c 0,63,64
 358 1301 358 1301 358 1316 c 2,65,-1
 358 1389 l 2,66,67
 358 1405 358 1405 375 1405 c 0,68,69
 452 1403 452 1403 528.5 1401.5 c 128,-1,70
 605 1400 605 1400 682 1400 c 2,71,-1
 1390 1400 l 2,72,73
 1406 1400 1406 1400 1422.5 1401 c 128,-1,74
 1439 1402 1439 1402 1454 1409 c 0,75,76
 1460 1411 1460 1411 1465.5 1413.5 c 128,-1,77
 1471 1416 1471 1416 1478 1416 c 0,78,79
 1487 1416 1487 1416 1504 1403 c 128,-1,80
 1521 1390 1521 1390 1537.5 1372.5 c 128,-1,81
 1554 1355 1554 1355 1566.5 1337 c 128,-1,82
 1579 1319 1579 1319 1579 1310 c 0,83,84
 1579 1297 1579 1297 1571.5 1290.5 c 128,-1,85
 1564 1284 1564 1284 1553 1279 c 0,86,87
 1530 1269 1530 1269 1508.5 1254.5 c 128,-1,88
 1487 1240 1487 1240 1467 1224 c 0,89,90
 1364 1143 1364 1143 1257 1071.5 c 128,-1,91
 1150 1000 1150 1000 1035 934 c 1,92,93
 1033 914 1033 914 1033 893 c 128,-1,94
 1033 872 1033 872 1033 852 c 2,95,-1
 1033 808 l 1,96,-1
 1637 808 l 2,97,98
 1715 808 1715 808 1791.5 809.5 c 128,-1,99
 1868 811 1868 811 1946 813 c 0,0,1
49 1317 m 0,100,101
 50 1379 50 1379 51.5 1440 c 128,-1,102
 53 1501 53 1501 53 1563 c 0,103,104
 53 1612 53 1612 52 1661 c 128,-1,105
 51 1710 51 1710 49 1759 c 0,106,107
 49 1775 49 1775 64 1775 c 0,108,109
 146 1773 146 1773 227.5 1771.5 c 128,-1,110
 309 1770 309 1770 391 1770 c 2,111,-1
 896 1770 l 1,112,113
 896 1838 896 1838 896 1909.5 c 128,-1,114
 896 1981 896 1981 881 2048 c 1,115,116
 911 2046 911 2046 942.5 2043.5 c 128,-1,117
 974 2041 974 2041 1004 2036 c 0,118,119
 1012 2034 1012 2034 1020.5 2030.5 c 128,-1,120
 1029 2027 1029 2027 1029 2017 c 0,121,122
 1029 2011 1029 2011 1023 1996.5 c 128,-1,123
 1017 1982 1017 1982 1015 1976 c 0,124,125
 1010 1965 1010 1965 1008 1941.5 c 128,-1,126
 1006 1918 1006 1918 1005 1891.5 c 128,-1,127
 1004 1865 1004 1865 1004 1841 c 128,-1,128
 1004 1817 1004 1817 1004 1805 c 2,129,-1
 1004 1770 l 1,130,-1
 1547 1770 l 2,131,132
 1628 1770 1628 1770 1709 1771.5 c 128,-1,133
 1790 1773 1790 1773 1871 1775 c 0,134,135
 1887 1775 1887 1775 1887 1759 c 0,136,137
 1885 1732 1885 1732 1883.5 1704 c 128,-1,138
 1882 1676 1882 1676 1882 1649 c 2,139,-1
 1882 1563 l 2,140,141
 1882 1501 1882 1501 1883.5 1440 c 128,-1,142
 1885 1379 1885 1379 1887 1317 c 0,143,144
 1887 1301 1887 1301 1871 1301 c 2,145,-1
 1792 1301 l 2,146,147
 1776 1301 1776 1301 1776 1317 c 2,148,-1
 1776 1675 l 1,149,-1
 159 1675 l 1,150,-1
 159 1317 l 2,151,152
 159 1301 159 1301 143 1301 c 2,153,-1
 64 1301 l 2,154,155
 49 1301 49 1301 49 1317 c 0,100,101
EndSplineSet
EndChar

StartChar: uniE481
Encoding: 58497 58497 161
Width: 2048
Flags: W
LayerCount: 2
Fore
SplineSet
1064 1448 m 0,0,1
 1059 1446 1059 1446 1054.5 1444.5 c 128,-1,2
 1050 1443 1050 1443 1045 1443 c 0,3,4
 1035 1443 1035 1443 1035 1453 c 0,5,6
 1035 1457 1035 1457 1036.5 1463 c 128,-1,7
 1038 1469 1038 1469 1040 1472 c 0,8,9
 1046 1481 1046 1481 1053.5 1490.5 c 128,-1,10
 1061 1500 1061 1500 1067 1509 c 0,11,12
 1094 1546 1094 1546 1118 1587 c 0,13,14
 1166 1669 1166 1669 1199.5 1757 c 128,-1,15
 1233 1845 1233 1845 1256 1936 c 1,16,17
 1264 1934 1264 1934 1287.5 1927.5 c 128,-1,18
 1311 1921 1311 1921 1336 1912 c 128,-1,19
 1361 1903 1361 1903 1380.5 1892.5 c 128,-1,20
 1400 1882 1400 1882 1400 1872 c 0,21,22
 1400 1866 1400 1866 1392.5 1862 c 128,-1,23
 1385 1858 1385 1858 1375.5 1855 c 128,-1,24
 1366 1852 1366 1852 1357 1850.5 c 128,-1,25
 1348 1849 1348 1849 1344 1848 c 2,26,-1
 1240 1664 l 1,27,-1
 1720 1664 l 1,28,-1
 1808 1752 l 1,29,30
 1817 1746 1817 1746 1839 1731 c 128,-1,31
 1861 1716 1861 1716 1884.5 1699 c 128,-1,32
 1908 1682 1908 1682 1926 1665 c 128,-1,33
 1944 1648 1944 1648 1944 1638 c 0,34,35
 1944 1630 1944 1630 1935.5 1623 c 128,-1,36
 1927 1616 1927 1616 1920 1616 c 2,37,-1
 1680 1616 l 1,38,39
 1654 1516 1654 1516 1612 1418.5 c 128,-1,40
 1570 1321 1570 1321 1504 1240 c 1,41,42
 1611 1162 1611 1162 1733 1114 c 128,-1,43
 1855 1066 1855 1066 1984 1040 c 1,44,45
 1946 1022 1946 1022 1906 996.5 c 128,-1,46
 1866 971 1866 971 1840 936 c 1,47,48
 1733 981 1733 981 1638 1044.5 c 128,-1,49
 1543 1108 1543 1108 1456 1184 c 1,50,51
 1378 1106 1378 1106 1283.5 1047.5 c 128,-1,52
 1189 989 1189 989 1088 944 c 1,53,54
 1091 939 1091 939 1094.5 933.5 c 128,-1,55
 1098 928 1098 928 1098 922 c 0,56,57
 1098 915 1098 915 1091.5 913 c 128,-1,58
 1085 911 1085 911 1080 911 c 0,59,60
 1063 911 1063 911 1043 917 c 128,-1,61
 1023 923 1023 923 1008 928 c 1,62,-1
 792 768 l 1,63,64
 819 753 819 753 841.5 729.5 c 128,-1,65
 864 706 864 706 864 672 c 0,66,67
 864 632 864 632 824 632 c 0,68,69
 805 632 805 632 792 646 c 128,-1,70
 779 660 779 660 768 672 c 0,71,72
 751 689 751 689 727.5 707.5 c 128,-1,73
 704 726 704 726 678.5 743 c 128,-1,74
 653 760 653 760 627.5 775.5 c 128,-1,75
 602 791 602 791 581 802 c 0,76,77
 566 810 566 810 550.5 817 c 128,-1,78
 535 824 535 824 520 832 c 0,79,80
 517 834 517 834 509.5 839 c 128,-1,81
 502 844 502 844 502 849 c 0,82,83
 502 852 502 852 506 853.5 c 128,-1,84
 510 855 510 855 514.5 855.5 c 128,-1,85
 519 856 519 856 523 856 c 128,-1,86
 527 856 527 856 528 856 c 0,87,88
 547 856 547 856 580.5 848.5 c 128,-1,89
 614 841 614 841 649.5 830 c 128,-1,90
 685 819 685 819 717.5 806.5 c 128,-1,91
 750 794 750 794 768 784 c 1,92,-1
 984 1024 l 1,93,-1
 1064 976 l 1,94,95
 1156 1025 1156 1025 1244.5 1088 c 128,-1,96
 1333 1151 1333 1151 1400 1232 c 1,97,98
 1330 1310 1330 1310 1276 1398.5 c 128,-1,99
 1222 1487 1222 1487 1184 1584 c 1,100,101
 1157 1547 1157 1547 1126.5 1513.5 c 128,-1,102
 1096 1480 1096 1480 1064 1448 c 0,0,1
1216 1616 m 1,103,104
 1258 1525 1258 1525 1312.5 1441 c 128,-1,105
 1367 1357 1367 1357 1440 1288 c 1,106,107
 1487 1363 1487 1363 1519.5 1447 c 128,-1,108
 1552 1531 1552 1531 1576 1616 c 1,109,-1
 1216 1616 l 1,103,104
144 1472 m 0,110,111
 141 1471 141 1471 133 1471 c 0,112,113
 119 1471 119 1471 119 1485 c 0,114,115
 119 1493 119 1493 120 1496 c 0,116,117
 202 1596 202 1596 262.5 1709.5 c 128,-1,118
 323 1823 323 1823 368 1944 c 1,119,120
 375 1941 375 1941 398.5 1932 c 128,-1,121
 422 1923 422 1923 447.5 1911.5 c 128,-1,122
 473 1900 473 1900 493 1888 c 128,-1,123
 513 1876 513 1876 513 1867 c 0,124,125
 513 1860 513 1860 504.5 1855.5 c 128,-1,126
 496 1851 496 1851 485 1847.5 c 128,-1,127
 474 1844 474 1844 463 1842.5 c 128,-1,128
 452 1841 452 1841 448 1840 c 2,129,-1
 368 1728 l 1,130,-1
 896 1728 l 1,131,-1
 984 1816 l 1,132,133
 992 1810 992 1810 1014.5 1795.5 c 128,-1,134
 1037 1781 1037 1781 1060.5 1764 c 128,-1,135
 1084 1747 1084 1747 1102 1730 c 128,-1,136
 1120 1713 1120 1713 1120 1702 c 0,137,138
 1120 1694 1120 1694 1111.5 1687 c 128,-1,139
 1103 1680 1103 1680 1096 1680 c 2,140,-1
 344 1680 l 1,141,142
 298 1623 298 1623 249 1570.5 c 128,-1,143
 200 1518 200 1518 144 1472 c 0,110,111
1448 768 m 0,144,145
 1449 768 1449 768 1461 765 c 128,-1,146
 1473 762 1473 762 1486.5 758 c 128,-1,147
 1500 754 1500 754 1512.5 750.5 c 128,-1,148
 1525 747 1525 747 1528 746 c 0,149,150
 1549 740 1549 740 1583 729.5 c 128,-1,151
 1617 719 1617 719 1656 704.5 c 128,-1,152
 1695 690 1695 690 1735 671.5 c 128,-1,153
 1775 653 1775 653 1807 630.5 c 128,-1,154
 1839 608 1839 608 1859.5 582.5 c 128,-1,155
 1880 557 1880 557 1880 528 c 0,156,157
 1880 480 1880 480 1832 480 c 0,158,159
 1816 480 1816 480 1805.5 487 c 128,-1,160
 1795 494 1795 494 1784 504 c 0,161,162
 1758 527 1758 527 1729 548.5 c 128,-1,163
 1700 570 1700 570 1672 592 c 1,164,-1
 1104 552 l 1,165,-1
 1104 144 l 1,166,167
 1098 138 1098 138 1088 129.5 c 128,-1,168
 1078 121 1078 121 1067 113 c 128,-1,169
 1056 105 1056 105 1044.5 99.5 c 128,-1,170
 1033 94 1033 94 1024 94 c 0,171,172
 1016 94 1016 94 1011 98.5 c 128,-1,173
 1006 103 1006 103 1003.5 109 c 128,-1,174
 1001 115 1001 115 1000.5 122.5 c 128,-1,175
 1000 130 1000 130 1000 136 c 2,176,-1
 1000 544 l 1,177,-1
 400 512 l 1,178,179
 398 506 398 506 395 495 c 128,-1,180
 392 484 392 484 387 473.5 c 128,-1,181
 382 463 382 463 375 455.5 c 128,-1,182
 368 448 368 448 359 448 c 0,183,184
 351 448 351 448 344 453.5 c 128,-1,185
 337 459 337 459 331 466.5 c 128,-1,186
 325 474 325 474 320 482 c 128,-1,187
 315 490 315 490 312 496 c 2,188,-1
 240 608 l 1,189,-1
 984 608 l 1,190,-1
 1368 952 l 1,191,192
 1376 948 1376 948 1394 939 c 128,-1,193
 1412 930 1412 930 1431 919 c 128,-1,194
 1450 908 1450 908 1464 896 c 128,-1,195
 1478 884 1478 884 1478 873 c 0,196,197
 1478 866 1478 866 1471.5 862.5 c 128,-1,198
 1465 859 1465 859 1456 857.5 c 128,-1,199
 1447 856 1447 856 1438.5 855.5 c 128,-1,200
 1430 855 1430 855 1426 855 c 0,201,202
 1419 855 1419 855 1413 855 c 128,-1,203
 1407 855 1407 855 1400 856 c 1,204,-1
 1024 600 l 1,205,-1
 1640 624 l 1,206,207
 1606 646 1606 646 1571.5 666.5 c 128,-1,208
 1537 687 1537 687 1502 707 c 0,209,210
 1485 716 1485 716 1466.5 724.5 c 128,-1,211
 1448 733 1448 733 1432 744 c 0,212,213
 1429 746 1429 746 1424 750.5 c 128,-1,214
 1419 755 1419 755 1419 759 c 0,215,216
 1419 762 1419 762 1423 764 c 128,-1,217
 1427 766 1427 766 1432 767 c 128,-1,218
 1437 768 1437 768 1441.5 768 c 128,-1,219
 1446 768 1446 768 1448 768 c 0,144,145
280 1312 m 1,220,-1
 80 1312 l 1,221,-1
 80 1360 l 1,222,-1
 288 1360 l 1,223,-1
 336 1616 l 1,224,-1
 424 1568 l 1,225,-1
 808 1568 l 1,226,-1
 864 1608 l 1,227,228
 871 1602 871 1602 888.5 1589 c 128,-1,229
 906 1576 906 1576 923.5 1561 c 128,-1,230
 941 1546 941 1546 954.5 1532 c 128,-1,231
 968 1518 968 1518 968 1509 c 256,232,233
 968 1500 968 1500 960 1494.5 c 128,-1,234
 952 1489 952 1489 941.5 1486 c 128,-1,235
 931 1483 931 1483 920.5 1481.5 c 128,-1,236
 910 1480 910 1480 904 1480 c 1,237,-1
 896 1360 l 1,238,-1
 992 1360 l 1,239,-1
 1056 1424 l 1,240,-1
 1152 1352 l 2,241,242
 1155 1350 1155 1350 1158 1343 c 128,-1,243
 1161 1336 1161 1336 1161 1331 c 0,244,245
 1161 1323 1161 1323 1152.5 1317.5 c 128,-1,246
 1144 1312 1144 1312 1136 1312 c 2,247,-1
 896 1312 l 1,248,249
 893 1270 893 1270 889 1228 c 128,-1,250
 885 1186 885 1186 880 1144 c 1,251,-1
 968 1144 l 1,252,-1
 1032 1208 l 1,253,-1
 1128 1136 l 2,254,255
 1131 1134 1131 1134 1134 1127 c 128,-1,256
 1137 1120 1137 1120 1137 1115 c 0,257,258
 1137 1107 1137 1107 1128.5 1101.5 c 128,-1,259
 1120 1096 1120 1096 1112 1096 c 2,260,-1
 872 1096 l 1,261,262
 872 1070 872 1070 867.5 1040.5 c 128,-1,263
 863 1011 863 1011 852.5 983 c 128,-1,264
 842 955 842 955 825 931.5 c 128,-1,265
 808 908 808 908 784 896 c 0,266,267
 772 890 772 890 757 884 c 128,-1,268
 742 878 742 878 728 878 c 0,269,270
 712 878 712 878 708.5 888.5 c 128,-1,271
 705 899 705 899 702 913 c 128,-1,272
 699 927 699 927 690.5 940.5 c 128,-1,273
 682 954 682 954 656 960 c 2,274,-1
 584 976 l 2,275,276
 581 978 581 978 576.5 981.5 c 128,-1,277
 572 985 572 985 572 990 c 0,278,279
 572 997 572 997 589 999.5 c 128,-1,280
 606 1002 606 1002 628.5 1002 c 128,-1,281
 651 1002 651 1002 673 1001 c 128,-1,282
 695 1000 695 1000 704 1000 c 0,283,284
 730 1000 730 1000 744 1007 c 128,-1,285
 758 1014 758 1014 765.5 1027 c 128,-1,286
 773 1040 773 1040 776.5 1057.5 c 128,-1,287
 780 1075 780 1075 784 1096 c 1,288,-1
 328 1096 l 1,289,-1
 312 1024 l 1,290,291
 299 1014 299 1014 280 1003 c 128,-1,292
 261 992 261 992 244 992 c 0,293,294
 233 992 233 992 223.5 1002.5 c 128,-1,295
 214 1013 214 1013 216 1024 c 2,296,-1
 280 1312 l 1,220,-1
632 1360 m 1,297,-1
 808 1360 l 1,298,-1
 816 1520 l 1,299,-1
 664 1520 l 1,300,-1
 632 1360 l 1,297,-1
592 1144 m 1,301,-1
 792 1144 l 1,302,303
 797 1186 797 1186 801 1228 c 128,-1,304
 805 1270 805 1270 808 1312 c 1,305,-1
 624 1312 l 1,306,-1
 592 1144 l 1,301,-1
384 1360 m 1,307,-1
 536 1360 l 1,308,-1
 560 1520 l 1,309,-1
 416 1520 l 1,310,-1
 384 1360 l 1,307,-1
336 1144 m 1,311,-1
 496 1144 l 1,312,-1
 528 1312 l 1,313,-1
 376 1312 l 1,314,-1
 336 1144 l 1,311,-1
728 456 m 1,315,316
 735 451 735 451 756.5 438.5 c 128,-1,317
 778 426 778 426 801 411 c 128,-1,318
 824 396 824 396 842.5 381.5 c 128,-1,319
 861 367 861 367 861 359 c 0,320,321
 861 350 861 350 847 345.5 c 128,-1,322
 833 341 833 341 815.5 338.5 c 128,-1,323
 798 336 798 336 781.5 336 c 128,-1,324
 765 336 765 336 760 336 c 0,325,326
 648 276 648 276 533 225.5 c 128,-1,327
 418 175 418 175 296 138 c 0,328,329
 294 137 294 137 284 134 c 128,-1,330
 274 131 274 131 263 128 c 128,-1,331
 252 125 252 125 242.5 122.5 c 128,-1,332
 233 120 233 120 232 120 c 0,333,334
 228 120 228 120 217 121 c 128,-1,335
 206 122 206 122 206 130 c 0,336,337
 206 135 206 135 213 142.5 c 128,-1,338
 220 150 220 150 224 152 c 0,339,340
 236 159 236 159 251.5 164.5 c 128,-1,341
 267 170 267 170 280 176 c 0,342,343
 335 200 335 200 388 227 c 0,344,345
 480 274 480 274 565 330.5 c 128,-1,346
 650 387 650 387 728 456 c 1,315,316
1288 448 m 0,347,348
 1299 448 1299 448 1316 445.5 c 128,-1,349
 1333 443 1333 443 1351 439.5 c 128,-1,350
 1369 436 1369 436 1386 432.5 c 128,-1,351
 1403 429 1403 429 1415 427 c 0,352,353
 1434 423 1434 423 1471.5 415.5 c 128,-1,354
 1509 408 1509 408 1553.5 397 c 128,-1,355
 1598 386 1598 386 1644.5 370.5 c 128,-1,356
 1691 355 1691 355 1729 335.5 c 128,-1,357
 1767 316 1767 316 1791.5 292 c 128,-1,358
 1816 268 1816 268 1816 240 c 0,359,360
 1816 216 1816 216 1805 200 c 128,-1,361
 1794 184 1794 184 1768 184 c 0,362,363
 1747 184 1747 184 1734 189.5 c 128,-1,364
 1721 195 1721 195 1704 208 c 0,365,366
 1637 260 1637 260 1560 302 c 128,-1,367
 1483 344 1483 344 1405 375 c 0,368,369
 1384 383 1384 383 1363.5 390.5 c 128,-1,370
 1343 398 1343 398 1322 404 c 0,371,372
 1312 407 1312 407 1300.5 409.5 c 128,-1,373
 1289 412 1289 412 1280 416 c 0,374,375
 1276 418 1276 418 1269 423.5 c 128,-1,376
 1262 429 1262 429 1262 435 c 0,377,378
 1262 442 1262 442 1273 445 c 128,-1,379
 1284 448 1284 448 1288 448 c 0,347,348
EndSplineSet
EndChar

StartChar: uniE482
Encoding: 58498 58498 162
Width: 2048
Flags: W
LayerCount: 2
Fore
SplineSet
1152 1408 m 1,0,-1
 256 1408 l 1,1,-1
 256 1536 l 1,2,-1
 640 1536 l 1,3,-1
 640 1792 l 1,4,-1
 768 1792 l 1,5,-1
 768 1536 l 1,6,-1
 1152 1536 l 1,7,-1
 1152 1408 l 1,0,-1
1792 1280 m 1,8,-1
 1792 1152 l 1,9,-1
 1536 1152 l 1,10,-1
 1536 384 l 1,11,-1
 1408 384 l 1,12,-1
 1408 1664 l 1,13,-1
 1536 1664 l 1,14,-1
 1536 1280 l 1,15,-1
 1792 1280 l 1,8,-1
768 128 m 1,16,-1
 1664 128 l 1,17,-1
 1664 0 l 1,18,-1
 640 0 l 1,19,-1
 640 512 l 1,20,-1
 768 512 l 1,21,-1
 768 128 l 1,16,-1
1024 961 m 0,22,23
 1024 892 1024 892 999.5 833.5 c 128,-1,24
 975 775 975 775 932.5 732 c 128,-1,25
 890 689 890 689 831.5 664.5 c 128,-1,26
 773 640 773 640 704 640 c 0,27,28
 634 640 634 640 575.5 664 c 128,-1,29
 517 688 517 688 474.5 731 c 128,-1,30
 432 774 432 774 408 833 c 128,-1,31
 384 892 384 892 384 961 c 0,32,33
 384 1031 384 1031 408 1089.5 c 128,-1,34
 432 1148 432 1148 474.5 1190.5 c 128,-1,35
 517 1233 517 1233 576 1256.5 c 128,-1,36
 635 1280 635 1280 704 1280 c 256,37,38
 773 1280 773 1280 832 1256.5 c 128,-1,39
 891 1233 891 1233 933.5 1190.5 c 128,-1,40
 976 1148 976 1148 1000 1089.5 c 128,-1,41
 1024 1031 1024 1031 1024 961 c 0,22,23
512 961 m 256,42,43
 512 918 512 918 526 882.5 c 128,-1,44
 540 847 540 847 565 821.5 c 128,-1,45
 590 796 590 796 625.5 782 c 128,-1,46
 661 768 661 768 704 768 c 0,47,48
 746 768 746 768 781.5 782.5 c 128,-1,49
 817 797 817 797 842.5 822.5 c 128,-1,50
 868 848 868 848 882 883.5 c 128,-1,51
 896 919 896 919 896 961 c 0,52,53
 896 1004 896 1004 882 1039 c 128,-1,54
 868 1074 868 1074 842.5 1099 c 128,-1,55
 817 1124 817 1124 782 1138 c 128,-1,56
 747 1152 747 1152 704 1152 c 256,57,58
 661 1152 661 1152 626 1138 c 128,-1,59
 591 1124 591 1124 565.5 1099 c 128,-1,60
 540 1074 540 1074 526 1039 c 128,-1,61
 512 1004 512 1004 512 961 c 256,42,43
EndSplineSet
EndChar

StartChar: uniE483
Encoding: 58499 58499 163
Width: 2048
Flags: W
LayerCount: 2
Fore
SplineSet
366 1664 m 1,0,1
 303 1587 303 1587 226 1526 c 128,-1,2
 149 1465 149 1465 64 1416 c 1,3,-1
 0 1528 l 1,4,5
 71 1568 71 1568 140 1621.5 c 128,-1,6
 209 1675 209 1675 263 1740.5 c 128,-1,7
 317 1806 317 1806 350.5 1883 c 128,-1,8
 384 1960 384 1960 384 2048 c 1,9,-1
 512 2048 l 1,10,11
 512 1981 512 1981 496 1916.5 c 128,-1,12
 480 1852 480 1852 449 1792 c 1,13,-1
 1152 1792 l 1,14,-1
 1152 1664 l 1,15,-1
 366 1664 l 1,0,1
1666 1235 m 1,16,17
 1752 1167 1752 1167 1846.5 1115 c 128,-1,18
 1941 1063 1941 1063 2041 1019 c 1,19,-1
 1990 901 l 1,20,21
 1884 948 1884 948 1783.5 1003.5 c 128,-1,22
 1683 1059 1683 1059 1592 1131 c 1,23,24
 1540 1066 1540 1066 1479 1011 c 128,-1,25
 1418 956 1418 956 1349 908 c 1,26,-1
 1275 1012 l 1,27,28
 1337 1056 1337 1056 1392 1106 c 128,-1,29
 1447 1156 1447 1156 1495 1215 c 1,30,31
 1422 1287 1422 1287 1367 1373.5 c 128,-1,32
 1312 1460 1312 1460 1291 1561 c 1,33,34
 1243 1519 1243 1519 1192.5 1483.5 c 128,-1,35
 1142 1448 1142 1448 1088 1416 c 1,36,-1
 1024 1528 l 1,37,38
 1095 1568 1095 1568 1164 1621.5 c 128,-1,39
 1233 1675 1233 1675 1287 1740.5 c 128,-1,40
 1341 1806 1341 1806 1374.5 1883 c 128,-1,41
 1408 1960 1408 1960 1408 2048 c 1,42,-1
 1536 2048 l 1,43,44
 1536 1981 1536 1981 1520 1916.5 c 128,-1,45
 1504 1852 1504 1852 1473 1792 c 1,46,-1
 1920 1792 l 1,47,-1
 1920 1664 l 1,48,-1
 1792 1664 l 1,49,50
 1792 1602 1792 1602 1783 1547.5 c 128,-1,51
 1774 1493 1774 1493 1757.5 1441.5 c 128,-1,52
 1741 1390 1741 1390 1717.5 1339.5 c 128,-1,53
 1694 1289 1694 1289 1666 1235 c 1,16,17
1408 1664 m 1,54,55
 1408 1614 1408 1614 1420.5 1567.5 c 128,-1,56
 1433 1521 1433 1521 1454.5 1478 c 128,-1,57
 1476 1435 1476 1435 1505.5 1395.5 c 128,-1,58
 1535 1356 1535 1356 1569 1322 c 1,59,60
 1614 1400 1614 1400 1639 1486.5 c 128,-1,61
 1664 1573 1664 1573 1664 1664 c 1,62,-1
 1408 1664 l 1,54,55
1581 685 m 1,63,-1
 1933 333 l 1,64,-1
 1843 243 l 1,65,-1
 1701 384 l 1,66,-1
 1152 384 l 1,67,-1
 1152 256 l 2,68,69
 1152 203 1152 203 1131.5 156.5 c 128,-1,70
 1111 110 1111 110 1076.5 75.5 c 128,-1,71
 1042 41 1042 41 995 20.5 c 128,-1,72
 948 0 948 0 896 0 c 2,73,-1
 768 0 l 1,74,-1
 768 128 l 1,75,76
 805 128 805 128 849.5 127 c 128,-1,77
 894 126 894 126 933 136 c 128,-1,78
 972 146 972 146 998 173 c 128,-1,79
 1024 200 1024 200 1024 256 c 2,80,-1
 1024 384 l 1,81,-1
 256 384 l 1,82,-1
 256 512 l 1,83,84
 442 512 442 512 623.5 543 c 128,-1,85
 805 574 805 574 979 640 c 1,86,-1
 384 640 l 1,87,-1
 384 768 l 1,88,89
 493 768 493 768 596 801 c 128,-1,90
 699 834 699 834 789 896 c 1,91,-1
 256 896 l 1,92,-1
 256 1152 l 1,93,-1
 0 1152 l 1,94,-1
 0 1280 l 1,95,-1
 256 1280 l 1,96,-1
 256 1536 l 1,97,-1
 1024 1536 l 1,98,-1
 1024 1280 l 1,99,-1
 1280 1280 l 1,100,-1
 1280 1152 l 1,101,-1
 1024 1152 l 1,102,-1
 1024 1024 l 1,103,-1
 1152 1024 l 1,104,-1
 1152 896 l 1,105,-1
 987 896 l 1,106,107
 951 860 951 860 911 827.5 c 128,-1,108
 871 795 871 795 827 768 c 1,109,-1
 1248 768 l 1,110,-1
 1248 767 l 1,111,112
 1305 799 1305 799 1359 836 c 128,-1,113
 1413 873 1413 873 1464 914 c 1,114,-1
 1544 814 l 1,115,116
 1422 716 1422 716 1285.5 641 c 128,-1,117
 1149 566 1149 566 1001 512 c 1,118,-1
 1573 512 l 1,119,-1
 1491 595 l 1,120,-1
 1581 685 l 1,63,-1
896 1152 m 1,121,-1
 666 1152 l 1,122,-1
 749 1069 l 1,123,-1
 704 1024 l 1,124,-1
 896 1024 l 1,125,-1
 896 1152 l 1,121,-1
896 1408 m 1,126,-1
 666 1408 l 1,127,-1
 749 1325 l 1,128,-1
 704 1280 l 1,129,-1
 896 1280 l 1,130,-1
 896 1408 l 1,126,-1
384 1280 m 1,131,-1
 614 1280 l 1,132,-1
 531 1363 l 1,133,-1
 576 1408 l 1,134,-1
 384 1408 l 1,135,-1
 384 1280 l 1,131,-1
384 1024 m 1,136,-1
 614 1024 l 1,137,-1
 531 1107 l 1,138,-1
 576 1152 l 1,139,-1
 384 1152 l 1,140,-1
 384 1024 l 1,136,-1
1309 377 m 1,141,-1
 1821 121 l 1,142,-1
 1763 7 l 1,143,-1
 1251 263 l 1,144,-1
 1309 377 l 1,141,-1
797 263 m 1,145,-1
 285 7 l 1,146,-1
 227 121 l 1,147,-1
 739 377 l 1,148,-1
 797 263 l 1,145,-1
EndSplineSet
EndChar

StartChar: uniE484
Encoding: 58500 58500 164
Width: 2048
Flags: W
LayerCount: 2
Fore
SplineSet
366 1664 m 1,0,1
 303 1587 303 1587 226 1526 c 128,-1,2
 149 1465 149 1465 64 1416 c 1,3,-1
 0 1528 l 1,4,5
 71 1568 71 1568 140 1621.5 c 128,-1,6
 209 1675 209 1675 263 1740.5 c 128,-1,7
 317 1806 317 1806 350.5 1883 c 128,-1,8
 384 1960 384 1960 384 2048 c 1,9,-1
 512 2048 l 1,10,11
 512 1981 512 1981 496 1916.5 c 128,-1,12
 480 1852 480 1852 449 1792 c 1,13,-1
 1024 1792 l 1,14,-1
 1024 1664 l 1,15,-1
 731 1664 l 1,16,-1
 909 1485 l 1,17,-1
 819 1395 l 1,18,-1
 549 1664 l 1,19,-1
 366 1664 l 1,0,1
2048 1664 m 1,20,-1
 1755 1664 l 1,21,-1
 1933 1485 l 1,22,-1
 1843 1395 l 1,23,-1
 1573 1664 l 1,24,-1
 1390 1664 l 1,25,26
 1327 1587 1327 1587 1250 1526 c 128,-1,27
 1173 1465 1173 1465 1088 1416 c 1,28,-1
 1024 1528 l 1,29,30
 1095 1568 1095 1568 1164 1621.5 c 128,-1,31
 1233 1675 1233 1675 1287 1740.5 c 128,-1,32
 1341 1806 1341 1806 1374.5 1883 c 128,-1,33
 1408 1960 1408 1960 1408 2048 c 1,34,-1
 1536 2048 l 1,35,36
 1536 1981 1536 1981 1520 1916.5 c 128,-1,37
 1504 1852 1504 1852 1473 1792 c 1,38,-1
 2048 1792 l 1,39,-1
 2048 1664 l 1,20,-1
256 1152 m 1,40,-1
 384 1152 l 1,41,-1
 384 0 l 1,42,-1
 256 0 l 1,43,-1
 256 1152 l 1,40,-1
640 1024 m 1,44,-1
 1280 1024 l 1,45,-1
 1280 128 l 1,46,-1
 640 128 l 1,47,-1
 640 1024 l 1,44,-1
1152 256 m 1,48,-1
 1152 512 l 1,49,-1
 768 512 l 1,50,-1
 768 256 l 1,51,-1
 1152 256 l 1,48,-1
768 896 m 1,52,-1
 768 640 l 1,53,-1
 1152 640 l 1,54,-1
 1152 896 l 1,55,-1
 768 896 l 1,52,-1
896 1280 m 1,56,-1
 1792 1280 l 1,57,-1
 1792 192 l 2,58,59
 1792 152 1792 152 1777 117 c 128,-1,60
 1762 82 1762 82 1736 56 c 128,-1,61
 1710 30 1710 30 1675 15 c 128,-1,62
 1640 0 1640 0 1600 0 c 2,63,-1
 1408 0 l 1,64,-1
 1408 128 l 1,65,66
 1422 128 1422 128 1446.5 125.5 c 128,-1,67
 1471 123 1471 123 1499.5 122 c 128,-1,68
 1528 121 1528 121 1557.5 122 c 128,-1,69
 1587 123 1587 123 1610.5 130.5 c 128,-1,70
 1634 138 1634 138 1649 152.5 c 128,-1,71
 1664 167 1664 167 1664 192 c 2,72,-1
 1664 1152 l 1,73,-1
 896 1152 l 1,74,-1
 896 1280 l 1,56,-1
653 1229 m 1,75,-1
 563 1139 l 1,76,-1
 275 1427 l 1,77,-1
 365 1517 l 1,78,-1
 653 1229 l 1,75,-1
EndSplineSet
EndChar

StartChar: uniE485
Encoding: 58501 58501 165
Width: 2048
Flags: W
LayerCount: 2
Fore
SplineSet
2048 1408 m 1,0,-1
 2048 1280 l 1,1,-1
 1792 1280 l 1,2,-1
 1792 1152 l 1,3,-1
 1664 1152 l 1,4,-1
 1664 1280 l 1,5,-1
 1280 1280 l 1,6,-1
 1280 1152 l 1,7,-1
 1152 1152 l 1,8,-1
 1152 1280 l 1,9,-1
 896 1280 l 1,10,-1
 896 1408 l 1,11,-1
 1152 1408 l 1,12,-1
 1152 1536 l 1,13,-1
 1280 1536 l 1,14,-1
 1280 1408 l 1,15,-1
 1664 1408 l 1,16,-1
 1664 1536 l 1,17,-1
 1792 1536 l 1,18,-1
 1792 1408 l 1,19,-1
 2048 1408 l 1,0,-1
1545 512 m 1,20,21
 1584 444 1584 444 1635 375.5 c 128,-1,22
 1686 307 1686 307 1749.5 252 c 128,-1,23
 1813 197 1813 197 1887.5 162.5 c 128,-1,24
 1962 128 1962 128 2048 128 c 1,25,-1
 2048 0 l 1,26,27
 1953 0 1953 0 1869.5 32 c 128,-1,28
 1786 64 1786 64 1713.5 117 c 128,-1,29
 1641 170 1641 170 1580.5 240 c 128,-1,30
 1520 310 1520 310 1472 385 c 1,31,32
 1424 310 1424 310 1363.5 240 c 128,-1,33
 1303 170 1303 170 1230.5 117 c 128,-1,34
 1158 64 1158 64 1074.5 32 c 128,-1,35
 991 0 991 0 896 0 c 1,36,-1
 896 128 l 1,37,38
 981 128 981 128 1056 162.5 c 128,-1,39
 1131 197 1131 197 1194.5 252 c 128,-1,40
 1258 307 1258 307 1309 375.5 c 128,-1,41
 1360 444 1360 444 1399 512 c 1,42,-1
 896 512 l 1,43,-1
 896 640 l 1,44,-1
 1024 640 l 1,45,-1
 1024 1024 l 1,46,-1
 1408 1024 l 1,47,-1
 1408 1152 l 1,48,-1
 1536 1152 l 1,49,-1
 1536 1024 l 1,50,-1
 1920 1024 l 1,51,-1
 1920 640 l 1,52,-1
 2048 640 l 1,53,-1
 2048 512 l 1,54,-1
 1545 512 l 1,20,21
1536 640 m 1,55,-1
 1792 640 l 1,56,-1
 1792 896 l 1,57,-1
 1536 896 l 1,58,-1
 1536 640 l 1,55,-1
1152 640 m 1,59,-1
 1408 640 l 1,60,-1
 1408 896 l 1,61,-1
 1152 896 l 1,62,-1
 1152 640 l 1,59,-1
449 1312 m 1,63,-1
 877 877 l 1,64,-1
 786 787 l 1,65,-1
 512 1066 l 1,66,-1
 512 0 l 1,67,-1
 384 0 l 1,68,-1
 384 1064 l 1,69,-1
 109 787 l 1,70,-1
 18 877 l 1,71,-1
 449 1312 l 1,63,-1
EndSplineSet
EndChar

StartChar: uniE48A
Encoding: 58506 58506 166
Width: 2048
Flags: W
LayerCount: 2
Fore
SplineSet
1152 640 m 1,0,-1
 896 640 l 1,1,-1
 896 1920 l 1,2,-1
 1152 1920 l 1,3,-1
 1152 640 l 1,4,-1
 1152 640 l 1,0,-1
1152 128 m 1,5,-1
 896 128 l 1,6,-1
 896 384 l 1,7,-1
 1152 384 l 1,8,-1
 1152 128 l 1,9,-1
 1152 128 l 1,5,-1
EndSplineSet
EndChar

StartChar: uniE48B
Encoding: 58507 58507 167
Width: 2048
Flags: W
LayerCount: 2
Fore
SplineSet
896 0 m 1,0,-1
 896 1536 l 1,1,-1
 1152 1536 l 1,2,-1
 1152 0 l 1,3,-1
 896 0 l 1,0,-1
896 2048 m 1,4,-1
 1152 2048 l 1,5,-1
 1152 1792 l 1,6,-1
 896 1792 l 1,7,-1
 896 2048 l 1,4,-1
EndSplineSet
EndChar

StartChar: uniE49E
Encoding: 58526 58526 168
Width: 2048
Flags: W
LayerCount: 2
Fore
SplineSet
933 1204 m 1,0,1
 1012 1147 1012 1147 1078 1079 c 128,-1,2
 1144 1011 1144 1011 1203 935 c 1,3,-1
 1101 857 l 1,4,5
 1048 926 1048 926 989 987.5 c 128,-1,6
 930 1049 930 1049 859 1100 c 1,7,-1
 933 1204 l 1,8,-1
 933 1204 l 1,0,1
EndSplineSet
EndChar

StartChar: uniE49F
Encoding: 58527 58527 169
Width: 2048
Flags: W
LayerCount: 2
Fore
SplineSet
896 1280 m 1,0,-1
 1024 1280 l 1,1,-1
 1024 1152 l 1,2,-1
 896 1152 l 1,3,-1
 896 1280 l 1,0,-1
832 640 m 1,4,-1
 896 896 l 1,5,-1
 1024 896 l 1,6,-1
 960 640 l 1,7,-1
 832 640 l 1,4,-1
EndSplineSet
EndChar

StartChar: uniE4A0
Encoding: 58528 58528 170
Width: 2048
Flags: W
LayerCount: 2
Fore
SplineSet
896 1280 m 1,0,-1
 1024 1280 l 1,1,-1
 1024 1152 l 1,2,-1
 896 1152 l 1,3,-1
 896 1280 l 1,0,-1
896 768 m 1,4,-1
 896 896 l 1,5,-1
 1024 896 l 1,6,-1
 1024 768 l 1,7,-1
 896 768 l 1,4,-1
EndSplineSet
EndChar

StartChar: uniE4A1
Encoding: 58529 58529 171
Width: 2048
Flags: W
LayerCount: 2
Fore
SplineSet
563.090820312 531 m 1,0,1
 646.0859375 484 646.0859375 484 750.079101562 460 c 128,-1,2
 854.073242188 436 854.073242188 436 979.065429688 436 c 0,3,4
 1256.04785156 436 1256.04785156 436 1416.03808594 587 c 0,5,6
 1576.02832031 741 1576.02832031 741 1576.02832031 1006 c 0,7,8
 1576.02832031 1274 1576.02832031 1274 1401.0390625 1444 c 0,9,10
 1227.04980469 1612 1227.04980469 1612 938.067382812 1612 c 0,11,12
 845.073242188 1612 845.073242188 1612 765.578125 1600 c 128,-1,13
 686.083007812 1588 686.083007812 1588 615.087890625 1563 c 1,14,-1
 615.087890625 1322 l 1,15,16
 750.079101562 1399 750.079101562 1399 941.067382812 1399 c 0,17,18
 1101.05761719 1399 1101.05761719 1399 1203.05175781 1294 c 0,19,20
 1254.04882812 1242 1254.04882812 1242 1284.046875 1173.5 c 128,-1,21
 1314.04492188 1105 1314.04492188 1105 1314.04492188 1019 c 0,22,23
 1314.04492188 930 1314.04492188 930 1286.546875 863 c 128,-1,24
 1259.04785156 796 1259.04785156 796 1213.05078125 747 c 0,25,26
 1121.05664062 651 1121.05664062 651 967.06640625 651 c 0,27,28
 877.071289062 651 877.071289062 651 821.075195312 677 c 1,29,-1
 821.075195312 894 l 1,30,-1
 1050.06054688 894 l 1,31,-1
 1050.06054688 1089 l 1,32,-1
 563.090820312 1089 l 1,33,-1
 563.090820312 531 l 1,0,1
EndSplineSet
EndChar

StartChar: uniE4A5
Encoding: 58533 58533 172
Width: 875
Flags: W
LayerCount: 2
Fore
SplineSet
327 1825 m 1,0,1
 272 1825 272 1825 238 1794 c 128,-1,2
 204 1763 204 1763 185 1717.5 c 128,-1,3
 166 1672 166 1672 159.5 1619.5 c 128,-1,4
 153 1567 153 1567 153 1525 c 1,5,-1
 329 1525 l 1,6,-1
 329 1182 l 1,7,-1
 0 1182 l 1,8,-1
 0 1525 l 2,9,10
 0 1577 0 1577 7 1631 c 128,-1,11
 14 1685 14 1685 29 1736 c 128,-1,12
 44 1787 44 1787 69 1831.5 c 128,-1,13
 94 1876 94 1876 130.5 1909 c 128,-1,14
 167 1942 167 1942 215.5 1961.5 c 128,-1,15
 264 1981 264 1981 327 1981 c 1,16,-1
 327 1825 l 1,0,1
875 1525 m 1,17,-1
 875 1182 l 1,18,-1
 543 1182 l 1,19,-1
 543 1525 l 2,20,21
 543 1577 543 1577 550 1631 c 128,-1,22
 557 1685 557 1685 573 1735.5 c 128,-1,23
 589 1786 589 1786 614.5 1830.5 c 128,-1,24
 640 1875 640 1875 676.5 1908.5 c 128,-1,25
 713 1942 713 1942 761 1961.5 c 128,-1,26
 809 1981 809 1981 871 1981 c 1,27,-1
 871 1825 l 1,28,29
 815 1825 815 1825 781 1794 c 128,-1,30
 747 1763 747 1763 729 1717.5 c 128,-1,31
 711 1672 711 1672 705 1619.5 c 128,-1,32
 699 1567 699 1567 699 1525 c 1,33,-1
 875 1525 l 1,17,-1
EndSplineSet
EndChar

StartChar: uniE4A6
Encoding: 58534 58534 173
Width: 4070
Flags: W
LayerCount: 2
Fore
SplineSet
897 485 m 1,0,-1
 1080 485 l 1,1,-1
 1080 311 l 1,2,-1
 984 112 l 1,3,-1
 904 112 l 1,4,-1
 991 311 l 1,5,-1
 897 311 l 1,6,-1
 897 485 l 1,0,-1
0 488 m 1,7,-1
 182 488 l 1,8,-1
 182 311 l 1,9,-1
 0 311 l 1,10,-1
 0 488 l 1,7,-1
3025 1077 m 1,11,-1
 2525 702 l 1,12,-1
 2719 104 l 1,13,-1
 2208 474 l 1,14,-1
 1697 106 l 1,15,-1
 1889 702 l 1,16,-1
 1388 1077 l 1,17,-1
 2011 1077 l 1,18,-1
 2208 1683 l 1,19,-1
 2405 1077 l 1,20,-1
 3025 1077 l 1,11,-1
2432 732 m 1,21,-1
 2799 997 l 1,22,-1
 2348 997 l 1,23,-1
 2208 1441 l 1,24,-1
 2070 1001 l 1,25,-1
 1616 1001 l 1,26,-1
 1982 732 l 1,27,-1
 1838 301 l 1,28,-1
 2208 572 l 1,29,-1
 2575 301 l 1,30,-1
 2432 732 l 1,21,-1
3699 1522 m 1,31,32
 3705 1494 3705 1494 3710 1468 c 128,-1,33
 3715 1442 3715 1442 3726 1415 c 0,34,35
 3736 1391 3736 1391 3751.5 1370.5 c 128,-1,36
 3767 1350 3767 1350 3786 1332 c 0,37,38
 3848 1273 3848 1273 3900 1221 c 128,-1,39
 3952 1169 3952 1169 3989.5 1112 c 128,-1,40
 4027 1055 4027 1055 4048 987 c 128,-1,41
 4069 919 4069 919 4069 827 c 0,42,43
 4069 766 4069 766 4054 713 c 128,-1,44
 4039 660 4039 660 4012.5 612.5 c 128,-1,45
 3986 565 3986 565 3948.5 523.5 c 128,-1,46
 3911 482 3911 482 3866 444 c 2,47,-1
 3858 437 l 1,48,-1
 3820 471 l 1,49,50
 3853 504 3853 504 3882 539 c 128,-1,51
 3911 574 3911 574 3932.5 613 c 128,-1,52
 3954 652 3954 652 3967 695 c 128,-1,53
 3980 738 3980 738 3980 787 c 0,54,55
 3980 821 3980 821 3975 854 c 128,-1,56
 3970 887 3970 887 3957 919 c 0,57,58
 3943 953 3943 953 3914.5 985.5 c 128,-1,59
 3886 1018 3886 1018 3851.5 1046.5 c 128,-1,60
 3817 1075 3817 1075 3779.5 1098.5 c 128,-1,61
 3742 1122 3742 1122 3709 1137 c 1,62,-1
 3709 418 l 2,63,64
 3709 363 3709 363 3686 313.5 c 128,-1,65
 3663 264 3663 264 3624.5 227 c 128,-1,66
 3586 190 3586 190 3535.5 168.5 c 128,-1,67
 3485 147 3485 147 3431 147 c 0,68,69
 3393 147 3393 147 3361.5 156 c 128,-1,70
 3330 165 3330 165 3307 184 c 128,-1,71
 3284 203 3284 203 3271 232 c 128,-1,72
 3258 261 3258 261 3258 301 c 0,73,74
 3258 354 3258 354 3281.5 400 c 128,-1,75
 3305 446 3305 446 3344 479.5 c 128,-1,76
 3383 513 3383 513 3432 532.5 c 128,-1,77
 3481 552 3481 552 3532 552 c 0,78,79
 3556 552 3556 552 3582 546 c 128,-1,80
 3608 540 3608 540 3629 528 c 1,81,-1
 3629 1522 l 1,82,-1
 3699 1522 l 1,31,32
EndSplineSet
EndChar

StartChar: uniE4AE
Encoding: 58542 58542 174
Width: 4690
Flags: W
LayerCount: 2
Fore
SplineSet
727 1447 m 1,0,-1
 445 915 l 1,1,-1
 655 915 l 1,2,-1
 655 840 l 1,3,-1
 410 840 l 1,4,-1
 410 702 l 1,5,-1
 655 702 l 1,6,-1
 655 628 l 1,7,-1
 410 628 l 1,8,-1
 410 313 l 1,9,-1
 297 313 l 1,10,-1
 297 628 l 1,11,-1
 53 628 l 1,12,-1
 53 702 l 1,13,-1
 297 702 l 1,14,-1
 297 840 l 1,15,-1
 53 840 l 1,16,-1
 53 915 l 1,17,-1
 264 915 l 1,18,-1
 0 1447 l 1,19,-1
 127 1447 l 1,20,-1
 297 1072 l 2,21,22
 314 1035 314 1035 330.5 994 c 128,-1,23
 347 953 347 953 359 915 c 1,24,-1
 364 915 l 1,25,26
 389 996 389 996 427 1075 c 2,27,-1
 603 1447 l 1,28,-1
 727 1447 l 1,0,-1
2107 1162 m 0,29,30
 2107 1117 2107 1117 2125.5 1085 c 128,-1,31
 2144 1053 2144 1053 2175 1027.5 c 128,-1,32
 2206 1002 2206 1002 2245 981.5 c 128,-1,33
 2284 961 2284 961 2324.5 939 c 128,-1,34
 2365 917 2365 917 2404 891 c 128,-1,35
 2443 865 2443 865 2474 830.5 c 128,-1,36
 2505 796 2505 796 2523.5 749 c 128,-1,37
 2542 702 2542 702 2542 638 c 0,38,39
 2542 582 2542 582 2524.5 533.5 c 128,-1,40
 2507 485 2507 485 2475.5 447 c 128,-1,41
 2444 409 2444 409 2399 383 c 128,-1,42
 2354 357 2354 357 2300 346 c 1,43,-1
 2300 165 l 1,44,-1
 2211 165 l 1,45,-1
 2211 341 l 1,46,47
 2185 341 2185 341 2153 346.5 c 128,-1,48
 2121 352 2121 352 2088.5 361.5 c 128,-1,49
 2056 371 2056 371 2026.5 385 c 128,-1,50
 1997 399 1997 399 1978 416 c 1,51,-1
 2015 511 l 1,52,53
 2061 476 2061 476 2117 456.5 c 128,-1,54
 2173 437 2173 437 2230 437 c 0,55,56
 2272 437 2272 437 2307 450.5 c 128,-1,57
 2342 464 2342 464 2368 489 c 128,-1,58
 2394 514 2394 514 2408.5 549 c 128,-1,59
 2423 584 2423 584 2423 626 c 0,60,61
 2423 676 2423 676 2404.5 712 c 128,-1,62
 2386 748 2386 748 2355.5 776 c 128,-1,63
 2325 804 2325 804 2286 825.5 c 128,-1,64
 2247 847 2247 847 2206.5 868.5 c 128,-1,65
 2166 890 2166 890 2127.5 913.5 c 128,-1,66
 2089 937 2089 937 2058.5 969 c 128,-1,67
 2028 1001 2028 1001 2009.5 1043.5 c 128,-1,68
 1991 1086 1991 1086 1991 1145 c 0,69,70
 1991 1196 1991 1196 2007.5 1242.5 c 128,-1,71
 2024 1289 2024 1289 2054.5 1325.5 c 128,-1,72
 2085 1362 2085 1362 2127.5 1386.5 c 128,-1,73
 2170 1411 2170 1411 2221 1419 c 1,74,-1
 2221 1595 l 1,75,-1
 2309 1595 l 1,76,-1
 2309 1424 l 1,77,78
 2363 1422 2363 1422 2412 1407.5 c 128,-1,79
 2461 1393 2461 1393 2507 1363 c 1,80,-1
 2472 1272 l 1,81,82
 2448 1284 2448 1284 2425.5 1294.5 c 128,-1,83
 2403 1305 2403 1305 2380.5 1312.5 c 128,-1,84
 2358 1320 2358 1320 2333.5 1324.5 c 128,-1,85
 2309 1329 2309 1329 2281 1329 c 0,86,87
 2245 1329 2245 1329 2213 1317 c 128,-1,88
 2181 1305 2181 1305 2157.5 1283 c 128,-1,89
 2134 1261 2134 1261 2120.5 1230 c 128,-1,90
 2107 1199 2107 1199 2107 1162 c 0,29,30
4690 1397 m 1,91,-1
 4690 1283 l 1,92,-1
 3734 1283 l 1,93,-1
 3734 1397 l 1,94,-1
 4690 1397 l 1,91,-1
3734 1085 m 1,95,-1
 4690 1085 l 1,96,-1
 4690 970 l 1,97,-1
 4269 970 l 1,98,-1
 4269 328 l 1,99,-1
 4153 328 l 1,100,-1
 4153 970 l 1,101,-1
 3734 970 l 1,102,-1
 3734 1085 l 1,95,-1
EndSplineSet
EndChar

StartChar: uniE4B0
Encoding: 58544 58544 175
Width: 3362
Flags: W
LayerCount: 2
Fore
SplineSet
3090 1408 m 1,0,1
 3159 1343 3159 1343 3210 1259.5 c 128,-1,2
 3261 1176 3261 1176 3294.5 1083.5 c 128,-1,3
 3328 991 3328 991 3345 894 c 128,-1,4
 3362 797 3362 797 3362 704 c 0,5,6
 3362 610 3362 610 3345.5 513 c 128,-1,7
 3329 416 3329 416 3295.5 324 c 128,-1,8
 3262 232 3262 232 3210.5 149 c 128,-1,9
 3159 66 3159 66 3090 0 c 1,10,-1
 3004 0 l 1,11,-1
 3004 8 l 1,12,13
 3075 71 3075 71 3128 152.5 c 128,-1,14
 3181 234 3181 234 3216.5 326 c 128,-1,15
 3252 418 3252 418 3269.5 514.5 c 128,-1,16
 3287 611 3287 611 3287 704 c 0,17,18
 3287 798 3287 798 3270 894.5 c 128,-1,19
 3253 991 3253 991 3217.5 1082 c 128,-1,20
 3182 1173 3182 1173 3129 1254 c 128,-1,21
 3076 1335 3076 1335 3004 1399 c 1,22,-1
 3004 1408 l 1,23,-1
 3090 1408 l 1,0,1
1122 1112 m 1,24,-1
 1196 1112 l 1,25,-1
 1196 0 l 1,26,-1
 720 0 l 1,27,-1
 720 80 l 1,28,-1
 1122 80 l 1,29,-1
 1122 1112 l 1,24,-1
0 1422 m 1,30,-1
 476 1422 l 1,31,-1
 476 1344 l 1,32,-1
 75 1344 l 1,33,-1
 75 311 l 1,34,-1
 0 311 l 1,35,-1
 0 1422 l 1,30,-1
2155 704 m 256,36,37
 2155 797 2155 797 2171.5 894.5 c 128,-1,38
 2188 992 2188 992 2221.5 1084 c 128,-1,39
 2255 1176 2255 1176 2306.5 1259.5 c 128,-1,40
 2358 1343 2358 1343 2427 1408 c 1,41,-1
 2513 1408 l 1,42,-1
 2513 1399 l 1,43,44
 2481 1373 2481 1373 2454.5 1340.5 c 128,-1,45
 2428 1308 2428 1308 2404 1275 c 0,46,47
 2315 1151 2315 1151 2272.5 1003.5 c 128,-1,48
 2230 856 2230 856 2230 704 c 0,49,50
 2230 610 2230 610 2247 513 c 128,-1,51
 2264 416 2264 416 2299 324.5 c 128,-1,52
 2334 233 2334 233 2387 152 c 128,-1,53
 2440 71 2440 71 2513 8 c 1,54,-1
 2513 0 l 1,55,-1
 2427 0 l 1,56,57
 2358 65 2358 65 2306.5 148.5 c 128,-1,58
 2255 232 2255 232 2221.5 324.5 c 128,-1,59
 2188 417 2188 417 2171.5 514 c 128,-1,60
 2155 611 2155 611 2155 704 c 256,36,37
EndSplineSet
EndChar

StartChar: uniE4B1
Encoding: 58545 58545 176
Width: 2048
Flags: W
LayerCount: 2
Fore
SplineSet
765 1024 m 1,0,-1
 387 1024 l 1,1,-1
 302 768 l 1,2,-1
 167 768 l 1,3,-1
 509 1792 l 1,4,-1
 643 1792 l 1,5,-1
 911 990 l 1,6,-1
 830 828 l 1,7,-1
 765 1024 l 1,0,-1
722 1152 m 1,8,-1
 576 1590 l 1,9,-1
 430 1152 l 1,10,-1
 722 1152 l 1,8,-1
1704 473 m 2,11,12
 1721 432 1721 432 1735.5 400 c 128,-1,13
 1750 368 1750 368 1770 345.5 c 128,-1,14
 1790 323 1790 323 1820 311.5 c 128,-1,15
 1850 300 1850 300 1898 300 c 1,16,-1
 1898 256 l 1,17,-1
 1449 256 l 1,18,-1
 1449 300 l 1,19,20
 1466 300 1466 300 1486.5 299.5 c 128,-1,21
 1507 299 1507 299 1525 303.5 c 128,-1,22
 1543 308 1543 308 1555 320 c 128,-1,23
 1567 332 1567 332 1567 357 c 0,24,25
 1567 371 1567 371 1560.5 396 c 128,-1,26
 1554 421 1554 421 1544.5 450 c 128,-1,27
 1535 479 1535 479 1523.5 509.5 c 128,-1,28
 1512 540 1512 540 1501.5 567 c 128,-1,29
 1491 594 1491 594 1483 613.5 c 128,-1,30
 1475 633 1475 633 1472 640 c 1,31,-1
 1024 640 l 1,32,33
 1021 632 1021 632 1012 612.5 c 128,-1,34
 1003 593 1003 593 991.5 566.5 c 128,-1,35
 980 540 980 540 967.5 510 c 128,-1,36
 955 480 955 480 944.5 451.5 c 128,-1,37
 934 423 934 423 927.5 398 c 128,-1,38
 921 373 921 373 921 358 c 0,39,40
 921 334 921 334 933.5 322.5 c 128,-1,41
 946 311 946 311 964 306.5 c 128,-1,42
 982 302 982 302 1002.5 301.5 c 128,-1,43
 1023 301 1023 301 1039 300 c 1,44,-1
 1039 256 l 1,45,-1
 662 256 l 1,46,-1
 662 300 l 1,47,48
 711 309 711 309 738 321 c 128,-1,49
 765 333 765 333 782 353.5 c 128,-1,50
 799 374 799 374 812 405 c 128,-1,51
 825 436 825 436 845 484 c 2,52,-1
 1237 1408 l 1,53,-1
 1319 1408 l 1,54,-1
 1704 473 l 2,11,12
1413 768 m 1,55,-1
 1236 1149 l 1,56,-1
 1067 768 l 1,57,-1
 1413 768 l 1,55,-1
EndSplineSet
EndChar

StartChar: uniE4B3
Encoding: 58547 58547 177
Width: 1322
Flags: W
LayerCount: 2
Fore
SplineSet
166 0 m 1,0,-1
 166 1398 l 1,1,-1
 1156 1398 l 1,2,-1
 1156 0 l 1,3,-1
 166 0 l 1,0,-1
314 148 m 1,4,-1
 1008 148 l 1,5,-1
 1008 1250 l 1,6,-1
 314 1250 l 1,7,-1
 314 148 l 1,4,-1
EndSplineSet
EndChar

StartChar: uniE000
Encoding: 57344 57344 178
Width: 2048
Flags: W
LayerCount: 2
Fore
SplineSet
612 1023 m 128,-1,1
 612 1194 612 1194 732 1314 c 128,-1,2
 852 1434 852 1434 1022.5 1434 c 2,3,-1
 1737 1433 l 1,4,5
 1690 1518 1690 1518 1604 1604 c 0,6,7
 1494 1714 1494 1714 1342 1779 c 128,-1,8
 1190 1844 1190 1844 1023 1844 c 128,-1,9
 856 1844 856 1844 704 1779 c 128,-1,10
 552 1714 552 1714 442 1604 c 128,-1,11
 332 1494 332 1494 267 1342 c 128,-1,12
 202 1190 202 1190 202 1023 c 128,-1,13
 202 856 202 856 267 704 c 128,-1,14
 332 552 332 552 442 442 c 128,-1,15
 552 332 552 332 704 267 c 128,-1,16
 856 202 856 202 1023 202 c 128,-1,17
 1190 202 1190 202 1342 267 c 128,-1,18
 1494 332 1494 332 1604 442 c 0,19,20
 1682 520 1682 520 1737.78321078 619.852142295 c 1,21,-1
 1023.5 612 l 2,22,23
 854 610 854 610 732 732 c 0,24,0
 612 852 612 852 612 1023 c 128,-1,1
1638 1024 m 1029,25,-1
819 1022 m 128,-1,27
 820 1108 820 1108 879 1168 c 128,-1,28
 938 1228 938 1228 1023 1228.5 c 0,29,30
 1030.11032225 1228.45817457 1030.11032225 1228.45817457 1037.04570788 1228 c 2,31,-1
 1616.46976104 1228 l 2,32,33
 1627.02654719 1229 1627.02654719 1229 1638 1229 c 0,34,35
 1723 1229 1723 1229 1783 1169 c 128,-1,36
 1843 1109 1843 1109 1843 1024 c 128,-1,37
 1843 939 1843 939 1783 879 c 128,-1,38
 1723 819 1723 819 1638 819 c 1,39,-1
 1638 818 l 1,40,-1
 1023 818 l 2,41,42
 936 819 936 819 878 876.5 c 0,43,26
 818 936 818 936 819 1022 c 128,-1,27
EndSplineSet
EndChar

StartChar: uniE001
Encoding: 57345 57345 179
Width: 2048
Flags: W
LayerCount: 2
Fore
SplineSet
2048 1280 m 1,0,-1
 1416 794 l 1,1,-1
 1664 0 l 1,2,-1
 1024 492 l 1,3,-1
 384 0 l 1,4,-1
 632 794 l 1,5,-1
 0 1280 l 1,6,-1
 784 1280 l 1,7,-1
 1024 2048 l 1,8,-1
 1264 1280 l 1,9,-1
 2048 1280 l 1,10,-1
 2048 1280 l 1,0,-1
EndSplineSet
EndChar

StartChar: uniE002
Encoding: 57346 57346 180
Width: 2048
Flags: W
LayerCount: 2
Fore
SplineSet
1416 794 m 1,0,-1
 1664 0 l 1,1,-1
 1024 492 l 1,2,-1
 384 0 l 1,3,-1
 632 794 l 1,4,-1
 0 1280 l 1,5,-1
 784 1280 l 1,6,-1
 1024 2048 l 1,7,-1
 1264 1280 l 1,8,-1
 2048 1280 l 1,9,-1
 1416 794 l 1,0,-1
1421 348 m 1,10,11
 1383 472 1383 472 1345 594.5 c 128,-1,12
 1307 717 1307 717 1267 841 c 1,13,14
 1370 918 1370 918 1470 996 c 128,-1,15
 1570 1074 1570 1074 1672 1152 c 1,16,-1
 1170 1152 l 1,17,-1
 1024 1619 l 1,18,-1
 878 1152 l 1,19,-1
 376 1152 l 1,20,21
 478 1074 478 1074 578 996 c 128,-1,22
 678 918 678 918 781 841 c 1,23,24
 741 717 741 717 703 594.5 c 128,-1,25
 665 472 665 472 627 348 c 1,26,-1
 1024 654 l 1,27,-1
 1421 348 l 1,10,11
EndSplineSet
EndChar

StartChar: uniE003
Encoding: 57347 57347 181
Width: 2048
Flags: W
LayerCount: 2
Fore
SplineSet
784 1280 m 1,0,-1
 1024 2048 l 1,1,-1
 1024 492 l 1,2,-1
 384 0 l 1,3,-1
 632 794 l 1,4,-1
 0 1280 l 1,5,-1
 784 1280 l 1,6,-1
 784 1280 l 1,0,-1
EndSplineSet
EndChar

StartChar: uniE004
Encoding: 57348 57348 182
Width: 2048
Flags: W
LayerCount: 2
Fore
SplineSet
2048 1280 m 1,0,-1
 1416 794 l 1,1,-1
 1664 0 l 1,2,-1
 1024 492 l 1,3,-1
 1024 2048 l 1,4,-1
 1264 1280 l 1,5,-1
 2048 1280 l 1,6,-1
 2048 1280 l 1,0,-1
EndSplineSet
EndChar

StartChar: uniE005
Encoding: 57349 57349 183
Width: 2048
Flags: W
LayerCount: 2
Fore
SplineSet
1609 1056 m 0,0,1
 1484 1056 1484 1056 1374.5 1012 c 128,-1,2
 1265 968 1265 968 1182.5 889.5 c 128,-1,3
 1100 811 1100 811 1050 703.5 c 128,-1,4
 1000 596 1000 596 994 469 c 1,5,-1
 384 0 l 1,6,-1
 632 794 l 1,7,-1
 0 1280 l 1,8,-1
 784 1280 l 1,9,-1
 1024 2048 l 1,10,-1
 1264 1280 l 1,11,-1
 2048 1280 l 1,12,-1
 1735 1040 l 1,13,14
 1704 1047 1704 1047 1672.5 1051.5 c 128,-1,15
 1641 1056 1641 1056 1609 1056 c 0,0,1
1600 896 m 256,16,17
 1693 896 1693 896 1774.5 860.5 c 128,-1,18
 1856 825 1856 825 1916.5 764.5 c 128,-1,19
 1977 704 1977 704 2012.5 622.5 c 128,-1,20
 2048 541 2048 541 2048 448 c 256,21,22
 2048 355 2048 355 2012.5 273.5 c 128,-1,23
 1977 192 1977 192 1916.5 131.5 c 128,-1,24
 1856 71 1856 71 1774.5 35.5 c 128,-1,25
 1693 0 1693 0 1600 0 c 256,26,27
 1507 0 1507 0 1425.5 35.5 c 128,-1,28
 1344 71 1344 71 1283.5 131.5 c 128,-1,29
 1223 192 1223 192 1187.5 273.5 c 128,-1,30
 1152 355 1152 355 1152 448 c 256,31,32
 1152 541 1152 541 1187.5 622.5 c 128,-1,33
 1223 704 1223 704 1283.5 764.5 c 128,-1,34
 1344 825 1344 825 1425.5 860.5 c 128,-1,35
 1507 896 1507 896 1600 896 c 256,16,17
1280 448 m 0,36,37
 1280 382 1280 382 1305.5 324 c 128,-1,38
 1331 266 1331 266 1374.5 222.5 c 128,-1,39
 1418 179 1418 179 1476 153.5 c 128,-1,40
 1534 128 1534 128 1600 128 c 0,41,42
 1647 128 1647 128 1692 141.5 c 128,-1,43
 1737 155 1737 155 1776 181 c 1,44,-1
 1333 624 l 1,45,46
 1307 585 1307 585 1293.5 540 c 128,-1,47
 1280 495 1280 495 1280 448 c 0,36,37
1867 272 m 1,48,49
 1893 311 1893 311 1906.5 356 c 128,-1,50
 1920 401 1920 401 1920 448 c 0,51,52
 1920 514 1920 514 1894.5 572 c 128,-1,53
 1869 630 1869 630 1825.5 673.5 c 128,-1,54
 1782 717 1782 717 1724 742.5 c 128,-1,55
 1666 768 1666 768 1600 768 c 0,56,57
 1553 768 1553 768 1508 754.5 c 128,-1,58
 1463 741 1463 741 1424 715 c 1,59,-1
 1867 272 l 1,48,49
EndSplineSet
EndChar

StartChar: uniE006
Encoding: 57350 57350 184
Width: 2048
Flags: W
LayerCount: 2
Fore
SplineSet
1504 1920 m 0,0,1
 1617 1920 1617 1920 1716 1877 c 128,-1,2
 1815 1834 1815 1834 1889 1760.5 c 128,-1,3
 1963 1687 1963 1687 2005.5 1587.5 c 128,-1,4
 2048 1488 2048 1488 2048 1376 c 0,5,6
 2048 1267 2048 1267 2006.5 1167 c 128,-1,7
 1965 1067 1965 1067 1889 991 c 2,8,-1
 1024 127 l 1,9,-1
 159 991 l 2,10,11
 83 1067 83 1067 41.5 1167 c 128,-1,12
 0 1267 0 1267 0 1376 c 0,13,14
 0 1488 0 1488 42.5 1587.5 c 128,-1,15
 85 1687 85 1687 159 1760.5 c 128,-1,16
 233 1834 233 1834 332 1877 c 128,-1,17
 431 1920 431 1920 544 1920 c 0,18,19
 627 1920 627 1920 692 1901 c 128,-1,20
 757 1882 757 1882 812.5 1848.5 c 128,-1,21
 868 1815 868 1815 918.5 1768 c 128,-1,22
 969 1721 969 1721 1024 1665 c 1,23,24
 1079 1721 1079 1721 1129.5 1768 c 128,-1,25
 1180 1815 1180 1815 1235.5 1848.5 c 128,-1,26
 1291 1882 1291 1882 1356 1901 c 128,-1,27
 1421 1920 1421 1920 1504 1920 c 0,0,1
1798 1082 m 2,28,29
 1857 1141 1857 1141 1888 1217 c 128,-1,30
 1919 1293 1919 1293 1919 1376 c 0,31,32
 1919 1463 1919 1463 1887 1538.5 c 128,-1,33
 1855 1614 1855 1614 1798.5 1669.5 c 128,-1,34
 1742 1725 1742 1725 1666.5 1756.5 c 128,-1,35
 1591 1788 1591 1788 1504 1788 c 0,36,37
 1420 1788 1420 1788 1355 1761.5 c 128,-1,38
 1290 1735 1290 1735 1235 1692 c 128,-1,39
 1180 1649 1180 1649 1129.5 1594.5 c 128,-1,40
 1079 1540 1079 1540 1024 1484 c 1,41,42
 970 1538 970 1538 919 1593 c 128,-1,43
 868 1648 868 1648 812.5 1692 c 128,-1,44
 757 1736 757 1736 691.5 1764 c 128,-1,45
 626 1792 626 1792 544 1792 c 0,46,47
 458 1792 458 1792 382 1759.5 c 128,-1,48
 306 1727 306 1727 249.5 1670.5 c 128,-1,49
 193 1614 193 1614 160.5 1538 c 128,-1,50
 128 1462 128 1462 128 1376 c 0,51,52
 128 1293 128 1293 159.5 1217 c 128,-1,53
 191 1141 191 1141 250 1082 c 2,54,-1
 1024 308 l 1,55,-1
 1798 1082 l 2,28,29
EndSplineSet
EndChar

StartChar: uniE008
Encoding: 57352 57352 185
Width: 2048
Flags: W
LayerCount: 2
Fore
SplineSet
1889 1761 m 0,0,1
 1942 1708 1942 1708 1977.5 1645 c 128,-1,2
 2013 1582 2013 1582 2030.5 1514 c 128,-1,3
 2048 1446 2048 1446 2048 1375.5 c 128,-1,4
 2048 1305 2048 1305 2030.5 1237.5 c 128,-1,5
 2013 1170 2013 1170 1977.5 1107 c 128,-1,6
 1942 1044 1942 1044 1889 991 c 2,7,-1
 1024 127 l 1,8,-1
 159 991 l 2,9,10
 106 1044 106 1044 70.5 1107 c 128,-1,11
 35 1170 35 1170 17.5 1237.5 c 128,-1,12
 0 1305 0 1305 0 1375.5 c 128,-1,13
 0 1446 0 1446 17.5 1514 c 128,-1,14
 35 1582 35 1582 70.5 1645 c 128,-1,15
 106 1708 106 1708 159 1761 c 0,16,17
 237 1838 237 1838 336 1879 c 128,-1,18
 435 1920 435 1920 544 1920 c 256,19,20
 653 1920 653 1920 752 1879 c 128,-1,21
 851 1838 851 1838 929 1761 c 2,22,-1
 1024 1665 l 1,23,-1
 1119 1761 l 2,24,25
 1197 1838 1197 1838 1296 1879 c 128,-1,26
 1395 1920 1395 1920 1504 1920 c 256,27,28
 1613 1920 1613 1920 1712 1879 c 128,-1,29
 1811 1838 1811 1838 1889 1761 c 0,0,1
EndSplineSet
EndChar

StartChar: uniE009
Encoding: 57353 57353 186
Width: 2048
Flags: W
LayerCount: 2
Fore
SplineSet
1505 1920 m 0,0,1
 1580 1920 1580 1920 1649.5 1900.5 c 128,-1,2
 1719 1881 1719 1881 1779 1846 c 128,-1,3
 1839 1811 1839 1811 1889 1761 c 128,-1,4
 1939 1711 1939 1711 1974 1651 c 128,-1,5
 2009 1591 2009 1591 2028.5 1521.5 c 128,-1,6
 2048 1452 2048 1452 2048 1377 c 0,7,8
 2048 1269 2048 1269 2006.5 1169 c 128,-1,9
 1965 1069 1965 1069 1889 993 c 2,10,-1
 1024 128 l 1,11,-1
 159 993 l 2,12,13
 83 1069 83 1069 41.5 1169 c 128,-1,14
 0 1269 0 1269 0 1377 c 0,15,16
 0 1452 0 1452 19.5 1521.5 c 128,-1,17
 39 1591 39 1591 74 1651 c 128,-1,18
 109 1711 109 1711 159 1761 c 128,-1,19
 209 1811 209 1811 269 1846 c 128,-1,20
 329 1881 329 1881 398.5 1900.5 c 128,-1,21
 468 1920 468 1920 543 1920 c 0,22,23
 652 1920 652 1920 754.5 1877 c 128,-1,24
 857 1834 857 1834 933 1755 c 1,25,-1
 651 1472 l 1,26,-1
 1099 1024 l 1,27,-1
 805 731 l 1,28,-1
 896 640 l 1,29,-1
 1280 1024 l 1,30,-1
 832 1472 l 1,31,32
 881 1521 881 1521 929 1573.5 c 128,-1,33
 977 1626 977 1626 1026 1675.5 c 128,-1,34
 1075 1725 1075 1725 1128 1769.5 c 128,-1,35
 1181 1814 1181 1814 1239 1847.5 c 128,-1,36
 1297 1881 1297 1881 1363 1900.5 c 128,-1,37
 1429 1920 1429 1920 1505 1920 c 0,0,1
EndSplineSet
EndChar

StartChar: uniE00A
Encoding: 57354 57354 187
Width: 2048
Flags: W
LayerCount: 2
Fore
SplineSet
347 1024 m 1,0,-1
 308 1024 l 1,1,-1
 1024 308 l 1,2,-1
 1612 896 l 1,3,-1
 1793 896 l 1,4,-1
 1024 127 l 1,5,-1
 159 991 l 2,6,7
 124 1026 124 1026 97 1066.5 c 128,-1,8
 70 1107 70 1107 50 1152 c 1,9,-1
 293 1152 l 1,10,-1
 576 1434 l 1,11,-1
 1024 987 l 1,12,-1
 1344 1306 l 1,13,-1
 1499 1152 l 1,14,-1
 1854 1152 l 1,15,16
 1886 1203 1886 1203 1903 1260 c 128,-1,17
 1920 1317 1920 1317 1920 1377 c 0,18,19
 1920 1464 1920 1464 1887.5 1539 c 128,-1,20
 1855 1614 1855 1614 1798.5 1669.5 c 128,-1,21
 1742 1725 1742 1725 1666.5 1756.5 c 128,-1,22
 1591 1788 1591 1788 1504 1788 c 0,23,24
 1420 1788 1420 1788 1355 1761.5 c 128,-1,25
 1290 1735 1290 1735 1235 1692 c 128,-1,26
 1180 1649 1180 1649 1129.5 1594.5 c 128,-1,27
 1079 1540 1079 1540 1024 1484 c 1,28,29
 970 1538 970 1538 919 1593 c 128,-1,30
 868 1648 868 1648 812.5 1692 c 128,-1,31
 757 1736 757 1736 691.5 1764 c 128,-1,32
 626 1792 626 1792 544 1792 c 0,33,34
 458 1792 458 1792 382.5 1759.5 c 128,-1,35
 307 1727 307 1727 250.5 1670.5 c 128,-1,36
 194 1614 194 1614 161.5 1538.5 c 128,-1,37
 129 1463 129 1463 129 1377 c 0,38,39
 129 1330 129 1330 140 1280 c 1,40,-1
 9 1280 l 1,41,42
 4 1304 4 1304 2.5 1328 c 128,-1,43
 1 1352 1 1352 1 1376 c 0,44,45
 1 1489 1 1489 43.5 1588 c 128,-1,46
 86 1687 86 1687 159.5 1761 c 128,-1,47
 233 1835 233 1835 332 1877.5 c 128,-1,48
 431 1920 431 1920 544 1920 c 0,49,50
 627 1920 627 1920 692 1901 c 128,-1,51
 757 1882 757 1882 812.5 1848.5 c 128,-1,52
 868 1815 868 1815 918.5 1768 c 128,-1,53
 969 1721 969 1721 1024 1665 c 1,54,55
 1079 1721 1079 1721 1129.5 1768 c 128,-1,56
 1180 1815 1180 1815 1235.5 1848.5 c 128,-1,57
 1291 1882 1291 1882 1356 1901 c 128,-1,58
 1421 1920 1421 1920 1504 1920 c 0,59,60
 1616 1920 1616 1920 1715 1877.5 c 128,-1,61
 1814 1835 1814 1835 1887.5 1762 c 128,-1,62
 1961 1689 1961 1689 2003.5 1590 c 128,-1,63
 2046 1491 2046 1491 2046 1379 c 0,64,65
 2046 1282 2046 1282 2012 1190.5 c 128,-1,66
 1978 1099 1978 1099 1915 1024 c 1,67,-1
 1445 1024 l 1,68,-1
 1344 1126 l 1,69,-1
 1024 805 l 1,70,-1
 576 1254 l 1,71,-1
 347 1024 l 1,0,-1
EndSplineSet
EndChar

